<?xml version="1.0" encoding="utf-8"?>
<!-- Generator: Adobe Illustrator 24.0.1, SVG Export Plug-In . SVG Version: 6.00 Build 0)  -->
<svg version="1.1" id="Layer_1" xmlns="http://www.w3.org/2000/svg" xmlns:xlink="http://www.w3.org/1999/xlink" x="0px" y="0px"
	 viewBox="0 0 724 646" style="enable-background:new 0 0 724 646;" xml:space="preserve">
<style type="text/css">
	.st0{fill:#4D9FC2;}
	.st1{fill:#F3C58A;}
	.st2{fill:#6497AF;}
	.st3{fill:#318990;}
	.st4{fill:#EF4658;}
	.st5{fill:#F0536C;}
	.st6{fill:#3B7090;}
	.st7{fill:#E7962C;}
	.st8{fill:#F8B85A;}
	.st9{fill:#2F767A;}
	.st10{fill:#F08D6D;}
	.st11{fill:#368C92;}
	.st12{fill:#376F8F;}
	.st13{fill:#477998;}
	.st14{fill:#EBEDEF;}
	.st15{fill:#8ABCC0;}
	.st16{fill:#B9D6D8;}
	.st17{fill:#F27482;}
	.st18{fill:#6BA6C3;}
	.st19{fill:#F16179;}
	.st20{fill:#183F57;}
	.st21{fill:#FAFAF9;}
	.st22{fill:#FFFEFE;}
	.st23{fill:#621C18;}
	.st24{fill:#EBD7CC;}
	.st25{fill:#173646;}
	.st26{fill:#6EA2BD;}
	.st27{fill:#FEF9F4;}
	.st28{fill:#DB4B2A;}
	.st29{fill:#E4CFC5;}
	.st30{fill:#1186C8;}
	.st31{fill:#204C67;}
	.st32{fill:#305D78;}
	.st33{fill:#376F8F;stroke:#002F40;stroke-miterlimit:10;}
	.st34{fill:#00A5CF;stroke:#002F40;stroke-miterlimit:10;}
</style>
<g>
	<path class="st0" d="M537.53,174.45c4.28,7.67,9.01,15.13,12.76,23.05c8.82,18.61,13.81,38.36,15.88,58.81
		c2.41,23.69,0.38,47.05-6.04,70c-6.64,23.76-17.47,45.47-32.67,64.9c-4.78,6.11-10.23,11.7-15.41,17.48
		c-0.65,0.73-1.57,1.22-2.62,2.02c-1.76-3.92-4.12-7.07-8.44-5.7c-2.02,0.64-4.29,2.82-5,4.81c-1.4,3.92,0.9,6.76,5.51,8.77
		c-4.48,3.55-8.39,6.71-12.37,9.79c-1.56,1.21-3.14,2.5-4.92,3.28c-0.98,0.42-2.79,0.3-3.54-0.36c-3.24-2.88-6.78-3.72-9.58-1.86
		c-2.86,1.9-3.54,5.5-1.81,9.5c0.15,0.35,0.23,0.74,0.5,1.66c-13.14,7.77-27.27,13.24-42.2,17.33c-0.54-0.88-1.02-1.62-1.46-2.38
		c-1.68-2.9-4.32-3.77-7.44-3.27c-3.15,0.51-5.03,2.68-5.15,5.68c-0.12,2.95-1.37,3.79-4.05,4.01c-3.59,0.3-7.15,1-11.45,1.64
		c2.41-4.59,2.05-8.38-1.77-10.3c-2.01-1.01-5.59-0.79-7.54,0.39c-3.93,2.37-2.73,6.32-1.06,10.3c-9.75,0-19.24,0-28.74,0
		c-0.36-6.16-0.77-12.32-1.06-18.48c-0.29-6.24-1.37-12.4,0.62-18.7c1.95-6.13-0.31-11.89-3.55-17.22c-0.67-1.11-1.46-2.27-1.7-3.5
		c-1.34-6.69-2.53-13.41-3.77-20.12c17-21.36,34.49-42.38,48.18-66.13c1.41-2.44,2.75-2.6,5.08-1.66c2.79,1.12,5.73,1.86,8.61,2.77
		c0.4,0.41,0.79,0.82,1.19,1.23c-3.49,1.05-3.75,3.28-2.66,6.37c1.23,3.46,2.05,7.06,3.15,10.58c0.3,0.96,0.83,1.91,1.44,2.71
		c1.62,2.12,3.69,3.97,4.97,6.27c3.2,5.73,6.11,11.64,9.05,17.51c1.17,2.33,2.16,4.53,5.51,3.72c3.41-0.83,4.23-3.13,4.08-6.21
		c-0.3-6.17-0.56-12.34-0.84-18.5c0.91,0.11,1.83,0.18,2.73,0.34c8.69,1.55,17.33,3.58,26.09,4.53c5.96,0.65,12.12,0.17,18.12-0.49
		c3.68-0.41,7.58-1.59,8.96-5.96c2.61-5.25,1.18-9.96-4.11-13.55c0.66-4.75,1.32-9.51,1.98-14.26c4.33,1.15,8.63,2.41,13.01,3.32
		c0.81,0.17,2.72-1.05,2.77-1.72c0.46-6.55,0.96-13.14,0.72-19.69c-0.11-3.04-0.72-6.83-5.19-7.29c-0.62-0.18-1.24-0.44-1.87-0.51
		c-12.39-1.38-24.87-2.17-37.14-4.22c-17.36-2.9-34.09-8.02-48.31-18.99c-2.92-2.25-4.95-5.63-7.4-8.49
		c-4-16.3-7.95-32.61-12.04-48.89c-0.67-2.67-0.64-4.77,1.65-6.71c7.82-6.63,15.51-13.4,23.31-20.06c3.63-3.1,7.39-6.06,11.49-9.4
		c0.49,2.31,0.94,3.94,1.17,5.6c1.09,7.92,2.11,15.84,3.2,23.76c0.45,3.25,2.61,4.41,5.82,3.23c0.33,0.19,0.85,0.31,0.97,0.59
		c3.49,8.02,4.83,8.83,13.39,8c2.48,4.64,4.87,9.33,7.51,13.88c0.8,1.37,2.09,2.77,3.5,3.43c11.57,5.43,23.2,10.75,34.87,15.99
		c4.16,1.87,8.46,3.43,12.69,5.13c0.38-1.15,1.09-2.29,1.1-3.44c0.08-12,0.09-24.01,0-36.01c-0.01-1.65-0.4-3.42-1.11-4.91
		c-13.08-27.52-26.19-55.01-39.47-82.44c-0.78-1.62-2.82-3.18-4.58-3.68c-6.34-1.8-12.79-3.21-19.23-4.61
		c-2.73-0.59-5.55-0.79-8.32-1.17c-1.99,3.18-4.16,6.27-5.94,9.56c-4.5,8.29-8.83,16.68-13.23,25.03
		c-18.96,6.63-37.91,13.29-56.9,19.86c-4.44,1.54-8.99,2.77-13.5,4.13c2.7-4.44,3.43-9.3,3.01-14.39
		c-0.22-4.48-0.44-8.95-0.66-13.43c-0.01-1.26-0.02-2.53-0.03-3.79c4.93-3.3,6.29-8.52,3.7-14.12c-1.45-3.15-3.93-4.89-7.28-3.95
		c-2.9,0.81-4.93-0.11-7.29-1.49c-10.91-6.37-22.06-4.12-29.84,5.85c-5.64,7.22-8.04,15.46-6.73,24.44
		c1.32,9.03,3.96,17.46,14.93,19.2c0.05,1.68,0.1,3.36,0.15,5.04c-0.69,3.48-1.38,6.96-2.08,10.44c-1.2,0.89-2.41,1.78-3.61,2.67
		c-10.33,4.91-20.66,9.8-30.97,14.75c-0.92,0.44-1.82,1.11-2.49,1.89c-3.6,4.19-7.07,8.5-10.7,12.67
		c-4.74,5.44-9.58,10.79-14.38,16.17c-1.11-3.82-3.03-6.71-7.56-6.67c-7.35,0.06-14.71,0.1-22.06,0.15
		c-6.82-0.08-13.64-0.17-20.46-0.25c-0.96-1.21-1.81-2.53-2.89-3.62c-3.2-3.25-6.48-6.4-9.73-9.6c4.03-9.44,7.52-19.16,12.25-28.23
		c4.61-8.85,10.47-17.05,15.83-25.5c0.61-0.97,1.57-1.71,2.32-2.51c5.25,2.81,8.37,2.76,10.96-0.07c2.4-2.62,1.87-6.31-1.5-10.88
		c5.46-5.46,10.91-10.91,15.89-15.9c2.16,1.72,4.2,3.84,6.68,5.08c1.17,0.59,3.44-0.11,4.78-0.93c4.07-2.48,3.75-6.3-1.28-13.32
		c6.19-4.14,12.36-8.27,18.6-12.45c1.12,0.89,1.88,1.61,2.75,2.16c4.6,2.92,10.26,0.11,10.15-5.34c-0.06-3.01,1.2-4.16,3.57-5.22
		c18.66-8.39,38.07-13.87,58.46-16.16c29.52-3.31,58.13,0.21,86,10.24c21.72,7.82,41.35,19.21,58.72,34.41
		c4.56,3.99,8.83,8.32,13.28,12.44c1.04,0.97,2.25,1.76,3.39,2.63c0.18,0.16,0.35,0.34,0.51,0.54c0.13,1.4,0.26,2.8,0.5,5.36
		c-3.72,0-7.22-0.14-10.7,0.07c-1.4,0.08-3.15,0.57-4.05,1.52c-1.76,1.87-1.02,4.02,0.8,5.5c2.22,1.81,4.14,0.79,5.81-1.08
		c4.03-4.51,9.14-4.1,12.61,0.59c2.25,3.04,4.92,5.83,7.74,8.36c4.13,3.7,4.5,5.19,1.02,9.44c-0.77,0.95-2.51,1.17-3.14,2.15
		c-0.88,1.35-1.93,3.42-1.45,4.6c0.52,1.28,2.98,2.87,4.08,2.55c1.47-0.42,3.67-2.88,3.4-3.9
		C534.01,179.14,535.97,176.95,537.53,174.45z M392.56,441.99c3.78,0.1,7.13-3.1,7.21-6.88c0.07-3.68-3.33-7.14-7.03-7.14
		c-3.57,0-6.98,3.49-7.02,7.19C385.68,438.61,388.96,441.89,392.56,441.99z M440.45,435.22c-0.01,3.45,3.31,6.71,6.89,6.77
		c3.8,0.06,7.08-3.12,7.13-6.92c0.05-3.72-3.32-7.12-7.04-7.1C443.99,427.98,440.46,431.64,440.45,435.22z M495.3,387.21
		c-0.39,3.5,2.61,6.96,6.32,7.3c4.04,0.37,7.17-2.03,7.58-5.8c0.44-3.99-1.94-7.18-5.72-7.66
		C499.41,380.54,495.74,383.3,495.3,387.21z M392.83,381.02c-4.16-0.03-7.1,2.73-7.12,6.72c-0.02,3.42,3.24,6.7,6.77,6.79
		c3.92,0.1,7.19-2.87,7.29-6.6C399.87,383.96,396.95,381.06,392.83,381.02z M393.04,404.75c-4.28-0.1-7.21,2.54-7.32,6.6
		c-0.1,3.6,3.34,6.89,7.21,6.9c3.54,0.01,6.74-3.18,6.84-6.81C399.88,407.59,397.12,404.85,393.04,404.75z M447.56,404.75
		c-4.2-0.03-7.14,2.79-7.11,6.8c0.02,3.46,3.31,6.61,7,6.7c3.75,0.09,7.02-3.16,7.02-7C454.47,407.39,451.71,404.78,447.56,404.75z
		 M426.86,434.91c-0.03-3.64-3.18-6.88-6.72-6.91c-3.65-0.04-6.85,3.4-6.81,7.3c0.05,4.12,2.92,6.8,7.18,6.69
		C424.34,441.89,426.9,439.03,426.86,434.91z M447.66,394.53c3.96-0.06,6.77-2.83,6.81-6.7c0.03-4-2.94-6.85-7.09-6.81
		c-3.58,0.04-6.89,3.24-6.93,6.7C440.41,391.35,443.85,394.59,447.66,394.53z M287.94,172.77c-4.1,0.01-6.93,2.62-6.97,6.42
		c-0.04,3.79,3.19,7.05,7,7.06c3.79,0.01,7.1-3.31,7.03-7.07C294.93,175.45,291.97,172.75,287.94,172.77z M233.15,172.76
		c-4.09,0.03-6.9,2.67-6.91,6.49c-0.01,3.8,3.25,7.02,7.07,7c3.8-0.02,7.09-3.39,6.97-7.13
		C240.16,175.36,237.21,172.73,233.15,172.76z M287.82,125.31c-4.22,0.06-7.02,2.94-6.83,7.02c0.18,3.9,3,6.52,7.01,6.51
		c3.64-0.01,6.9-3.13,6.97-6.66C295.04,128.54,291.63,125.26,287.82,125.31z M260.25,149.04c-3.6,0.07-6.86,3.29-6.85,6.78
		c0,3.63,3.46,6.8,7.36,6.74c3.96-0.06,6.8-3.16,6.64-7.26C267.24,151.48,264.37,148.96,260.25,149.04z M426.87,387.9
		c0.04-4.21-2.35-6.8-6.35-6.88c-4.28-0.09-7.11,2.51-7.18,6.6c-0.07,4.16,2.7,6.95,6.86,6.91
		C424.22,394.5,426.82,391.91,426.87,387.9z M481.61,387.76c0.05-4.09-2.46-6.7-6.49-6.73c-4.28-0.03-7.02,2.58-7.04,6.71
		c-0.02,4,2.58,6.7,6.55,6.8C478.79,394.63,481.55,391.95,481.61,387.76z M287.99,149.04c-4.09-0.01-6.94,2.58-7.02,6.37
		c-0.07,3.78,3.17,7.16,6.84,7.15c3.9-0.01,7.26-3.26,7.14-6.9C294.84,152.1,291.62,149.05,287.99,149.04z M426.87,411.25
		c-0.02-4.06-2.58-6.54-6.71-6.5c-4.22,0.04-6.91,2.77-6.83,6.92c0.08,3.94,2.8,6.58,6.78,6.58
		C424.26,418.25,426.89,415.51,426.87,411.25z M260.64,172.76c-3.79-0.07-7.23,3.11-7.24,6.71c-0.01,3.42,3.36,6.74,6.89,6.78
		c3.8,0.04,7.06-3.13,7.1-6.91C267.43,175.53,264.67,172.84,260.64,172.76z M474.91,404.76c-4.26,0.04-6.95,2.79-6.83,6.97
		c0.11,3.58,3.38,6.63,7.03,6.52c3.95-0.11,6.49-2.82,6.5-6.92C481.61,407.24,479.03,404.72,474.91,404.76z"/>
	<path class="st0" d="M230.22,395.02c-5.57-8.21-11.27-16.33-16.65-24.66c-2.47-3.82-4.32-8.05-6.45-12.09
		c0.28-0.11,0.56-0.22,0.84-0.33c5.7,1.22,8-0.1,8.88-5.12c0.25-1.43,0.42-2.87,0.64-4.3c0.76-5.03,1.53-10.06,2.28-15.03
		c8.27,0.72,10.95-0.4,13.07-5.18c2.18-4.92,1.2-7.49-4.93-12.9c0-0.13-0.05-0.3,0.01-0.38c6.94-8.98,6.41-12.15-3.08-18.39
		c4.63-0.91,9.26-1.81,13.88-2.72c1.02,7.02,3.93,9.56,11.04,9.59c4.08,0.02,8.18-0.13,12.25,0.07c1.61,0.08,3.48,0.5,4.74,1.43
		c20.03,14.94,34.14,34.09,41.18,58.2c-0.8,1.34-1.5,2.75-2.42,4c-2.86,3.88-5.8,7.7-8.7,11.54c-2.98,3.1-6,6.17-8.93,9.31
		c-2.2,2.36-4.3,4.83-6.44,7.25c-1.99,2.03-3.98,4.07-5.97,6.1c-5.8,0.02-11.61,0.1-17.41,0c-1.17-0.02-2.34-0.73-3.5-1.11
		c0.59-3.89-1.31-5.15-4.98-5.1C243.12,395.25,236.67,395.08,230.22,395.02z"/>
	<path class="st1" d="M355.85,517.23c5.71,0.77,11.42,1.55,17.13,2.31c22.79,3.03,45.7,4.33,68.67,3.89
		c19.11-0.37,38.12-2.11,57.06-4.95c19.68-2.96,39.46-5.48,59.47-4.38c3.15,0.17,6.29,0.62,9.43,0.93c1.26,0.2,2.53,0.4,3.8,0.6
		c8.54,2.66,17.09,5.32,25.63,8c1.46,0.46,2.88,1.04,4.2,2.4c-167.69,0-335.37,0-504.43,0c4.6-7.31,8.56-13.61,12.52-19.9
		c2.81-2.8,5.62-5.59,8.43-8.39c1.76-0.81,3.52-1.62,5.29-2.43c0.3-0.35,0.6-0.7,0.9-1.05c0,0-0.05,0.05-0.05,0.05
		c0.28-0.28,0.57-0.56,0.85-0.83c0,0-0.05,0.03-0.05,0.03c3.81-2.09,7.62-4.17,11.43-6.26c7.54-0.01,15.17-0.7,22.6,0.2
		c5.32,0.64,10.38,3.41,15.56,5.23c14.94,6.83,29.7,14.06,44.88,20.3c7.04,2.9,14.88,3.89,22.36,5.74c0.44,0.46,0.86,1.3,1.33,1.32
		c8.59,0.4,17.18,0.7,25.77,1.03c4.9-0.39,9.82-0.66,14.71-1.21c2.46-0.28,4.86-1.06,7.28-1.62c14.9-0.54,29.8-1.23,44.7-1.57
		C342.13,516.5,348.99,517.02,355.85,517.23z"/>
	<path class="st2" d="M355.85,517.23c-6.86-0.21-13.72-0.72-20.57-0.57c-14.9,0.34-29.8,1.03-44.7,1.57
		c-7.44-0.03-14.88-0.06-22.32-0.09c-5.87-2.3-7.05-7.31-7.47-12.79c-0.12-1.56-0.28-3.12-0.41-4.63c-0.01-0.98-0.05-2.02-0.05-3.06
		c0-5.12,0.01-5.05,5.23-5.17c2.96-0.07,5.92-0.42,8.88-0.64c24.42,0.02,48.83,0.03,73.25,0.09c2.34,0.01,3.7-0.51,3.76-3.25
		c0.13-7.23,0.7-14.46,0.68-21.68c-0.02-8.15-0.48-16.3-0.78-24.45c-0.01-0.34-0.28-0.67-0.64-1.48
		c-6.35,4.86-13.57,6.11-20.97,4.47c-7.69-1.71-12.77-7.02-16.05-14.08c2.79-3.66,5.58-7.32,8.37-10.98
		c0.31,1.09,0.74,2.16,0.9,3.26c1.17,8.34,7.33,12.66,15.96,11.11c5.21-0.93,10.2-8.26,9.2-13.53c-1.52-8.06-7.93-12.24-16.02-10.48
		c-0.77,0.17-1.56,0.18-2.35,0.27c2.98-3.73,5.95-7.45,8.93-11.18c2.53,0.55,5.06,1.1,8.2,1.78c-0.88-3.58-1.55-6.32-2.22-9.06
		c1.6-2.22,3.2-4.44,4.79-6.66c1.24,6.71,2.43,13.43,3.77,20.12c0.25,1.23,1.03,2.39,1.7,3.5c3.24,5.34,5.49,11.09,3.55,17.22
		c-2,6.3-0.91,12.46-0.62,18.7c0.28,6.16,0.7,12.32,1.06,18.48c0.1,10.38,0.08,20.77,0.39,31.15c0.1,3.21,1.2,6.37,1.66,9.58
		C361.68,509.87,360.01,514.08,355.85,517.23z"/>
	<path class="st3" d="M139.8,390.32c0.12,0.37,0.24,0.74,0.36,1.11c0.13,0.23,0.26,0.46,0.39,0.69c0.19,0.58,0.39,1.16,0.58,1.75
		c-0.05,0.07-0.15,0.2-0.14,0.22c0.12,0.11,0.25,0.2,0.38,0.3c0.2,0.63,0.4,1.26,0.6,1.89c0,0-0.12,0.31-0.12,0.31l0.31,0.18
		c0.18,0.62,0.36,1.24,0.54,1.87c-0.05,0.08-0.17,0.2-0.15,0.24c0.09,0.16,0.23,0.29,0.35,0.43c0.13,0.52,0.26,1.03,0.4,1.55
		c0.13,0.54,0.26,1.07,0.39,1.61c0.1,0.52,0.2,1.04,0.3,1.55c0.33,6.61,0.67,13.21,1,19.82c-0.07,0.55-0.15,1.11-0.22,1.66
		c-0.76,5.32-1.52,10.63-2.19,15.25c7.93-6.31,16.07-12.79,24.2-19.27c5.02-4.23,10.04-8.46,15.07-12.69
		c-0.27,0.99-0.42,2.03-0.82,2.97c-5.84,13.45-13.35,25.95-21.94,37.81c-12.23,16.88-25.85,32.53-41.35,46.51
		c-0.63-0.83-1.25-1.66-1.88-2.49c0.44-1.1,1.38-2.27,1.23-3.27c-1.45-9.42-3.09-18.82-4.68-28.21c-0.1-3.53-0.19-7.06-0.29-10.6
		c1.03-8.46,2.06-16.92,3.09-25.38c1.48-3.18,2.95-6.37,4.43-9.55c0.15-0.21,0.24-0.45,0.28-0.71c0.16-0.27,0.31-0.55,0.47-0.82
		c0.1-0.27,0.2-0.53,0.3-0.8c0.15-0.26,0.31-0.52,0.46-0.78c0.11-0.27,0.22-0.55,0.32-0.82c0.14-0.25,0.28-0.51,0.42-0.76
		c0.12-0.27,0.25-0.55,0.37-0.82c0.13-0.25,0.26-0.5,0.39-0.76c0.4-0.81,0.79-1.61,1.19-2.42c0.12-0.25,0.24-0.49,0.37-0.74
		c0.29-0.64,0.57-1.29,0.86-1.93c0.58-1.22,1.17-2.44,1.75-3.66c0.14-0.2,0.23-0.43,0.26-0.68c0.91-2.95,1.83-5.9,2.74-8.85
		c0.13-0.77,0.26-1.53,0.38-2.3c0.53,0.7,1.45,1.36,1.53,2.11c0.4,3.66,0.75,7.34,0.81,11.02c0.4,22.73-1.81,45.18-7.63,67.22
		c-0.4,1.52-0.35,3.15-0.51,4.73c0.98-0.28,1.5-0.7,1.64-1.22c1.29-4.93,2.72-9.83,3.73-14.82c4.54-22.57,6.55-45.32,4.18-68.3
		c-0.27-2.65-1.38-5.21-2.1-7.81c0-1.56,0-3.11,0-4.67c0.24-0.17,0.47-0.35,0.71-0.52c2.35,4.16,4.7,8.32,7.05,12.47
		c0,0-0.08,0.28-0.08,0.28L139.8,390.32z"/>
	<path class="st4" d="M537.53,174.45c-1.56,2.5-3.53,4.69-2.6,8.23c0.27,1.02-1.94,3.48-3.4,3.9c-1.1,0.32-3.57-1.27-4.08-2.55
		c-0.48-1.18,0.57-3.25,1.45-4.6c0.64-0.98,2.37-1.21,3.14-2.15c3.48-4.25,3.1-5.74-1.02-9.44c-2.82-2.53-5.49-5.32-7.74-8.36
		c-3.47-4.69-8.58-5.09-12.61-0.59c-1.67,1.87-3.6,2.89-5.81,1.08c-1.83-1.49-2.56-3.63-0.8-5.5c0.9-0.95,2.65-1.43,4.05-1.52
		c3.48-0.21,6.99-0.07,10.7-0.07c-0.24-2.55-0.37-3.96-0.5-5.36c0.1-0.87,0.29-1.74,0.3-2.62c0.03-4.15,0.01-8.29,0.01-11.9
		c4.07,3.84,8.06,7.6,12.04,11.37c0.18,2.11-0.87,5.01,2.12,5.61c1.51,0.3,3.35-1.06,5.05-1.66c4.83,0.1,9.77,0.9,14.47,0.17
		c14.68-2.25,26.63-17.52,24.25-33.69c-0.1-0.65,0.72-1.44,1.12-2.16c1.01,1.02,2.02,2.04,3.03,3.06c0.27,0.32,0.53,0.64,0.8,0.95
		c2.51,3.96,5.02,7.92,7.77,12.27c2.7-0.63,6.08-0.44,8.43-3.77c0.68-0.97,3.65-1.41,4.7-0.74c1.1,0.71,1.96,3.37,1.45,4.56
		c-0.49,1.15-2.79,1.81-4.4,2.12c-1.14,0.22-2.5-0.88-3.7-0.76c-5.53,0.57-6.26,1.55-5.96,7.25c0.34,6.36-1.07,11.56-6.23,22.61
		c3.82,1.88,6.76,5.48,11.93,4.72c1.09-0.16,3.23,1.82,3.57,3.16c0.28,1.09-1.17,3.53-2.27,3.82c-1.35,0.36-4.2-0.51-4.54-1.5
		c-1.62-4.67-6.29-4.83-9.5-7.06c-0.49-0.34-1.91-0.06-2.39,0.43c-5.26,5.45-11.59,9.05-19.36,11.05c1.69,3.7,1.36,7.86,5.43,10.24
		c0.97,0.57,1.49,3.59,0.85,4.73c-0.61,1.09-3.3,1.99-4.49,1.51c-1.17-0.46-2.58-3.13-2.18-4.2c1.54-4.13-1.32-7.07-2.24-10.48
		c-0.16-0.61-1.59-1.1-2.5-1.25c-5.16-0.85-10.33-1.66-15.53-2.27C539.46,173.01,538.47,173.98,537.53,174.45z M565.19,162.62
		c5.11,0.01,7.61-2.41,7.56-7.32c-0.04-4.53-3.24-7.78-7.6-7.74c-3.56,0.04-7.45,4.09-7.49,7.8
		C557.63,159.38,560.97,162.61,565.19,162.62z M544.33,168.06c1.77-2.22,3.71-3.6,3.56-4.71c-0.19-1.43-2.05-2.64-3.19-3.95
		c-1.24,1.2-3.19,2.25-3.5,3.66C540.96,164.16,542.76,165.71,544.33,168.06z"/>
	<path class="st2" d="M108.09,183.9c-6.04,2.24-10.31-0.14-14.63-4.5c-10-10.09-20.47-19.72-30.77-29.52
		c-4.17-3.97-4.39-9.05-0.37-13.2c4.73-4.89,9.56-9.68,14.34-14.51c3.14-0.01,6.2-0.26,8.84,2.3c10.2,9.87,20.35,19.81,30.89,29.32
		c9.91,8.95,8.21,12.86-0.06,20.78C113.35,177.43,110.83,180.77,108.09,183.9z"/>
	<path class="st5" d="M577.65,112.64c-0.39,0.72-1.22,1.51-1.12,2.16c2.39,16.17-9.57,31.43-24.25,33.69
		c-4.7,0.72-9.64-0.07-14.47-0.17c-0.61-1.72-0.75-4.27-1.95-4.93c-1.2-0.66-3.44,0.58-5.22,0.98c-3.99-3.76-7.97-7.52-12.04-11.37
		c0,3.61,0.02,7.75-0.01,11.9c-0.01,0.87-0.2,1.74-0.3,2.62c-0.15-0.2-0.32-0.38-0.51-0.54c0.17-5.61-0.06-11.28,0.62-16.83
		c0.55-4.44-2.2-8.25-6.89-8.06c-0.78,0.03-1.79,0.6-2.3,0.28c-1.34-0.82-3.21-1.85-3.45-3.06c-0.24-1.21,0.99-3.6,2.07-3.95
		c1.33-0.44,3.35,0.41,4.74,1.25c0.98,0.59,1.18,2.37,2.12,3.15c4.3,3.57,5.73,3.14,9.15-1.37c2.13-2.81,4.64-5.44,7.37-7.65
		c2.73-2.21,5.95-3.8,9.27-5.85c-2.04-3.18-2.31-7.38-6.66-9.23c-1.01-0.43-1.87-3.39-1.36-4.58c0.5-1.18,3.03-2.42,4.26-2.1
		c1.22,0.32,2.93,2.77,2.69,3.93c-0.86,4.1,1.87,6.73,3.36,9.81c0.36,0.74,2.23,1.24,3.27,1.07c6.64-1.1,13.11-0.84,19.53,1.34
		c0.94,0.32,2.91-0.11,3.29-0.81c1.7-3.12,4.71-5.66,4.08-9.94c-0.16-1.11,1.75-3.26,3.08-3.64c1.1-0.32,3.64,1.01,3.94,2.07
		c0.39,1.35-0.43,4.23-1.42,4.59c-4.68,1.73-5.23,6.22-7.66,9.47C573.33,108.95,575.49,110.79,577.65,112.64z M538.91,132.49
		c4.25,0.01,7.65-3.18,7.63-7.17c-0.02-3.68-4.03-7.81-7.56-7.79c-4.37,0.03-7.54,3.36-7.51,7.92
		C531.5,130.23,533.89,132.48,538.91,132.49z M557.43,142.01c0.02-0.61,0.03-1.22,0.04-1.83c-1.38-0.98-2.87-2.85-4.11-2.69
		c-1.34,0.17-2.43,2.23-3.64,3.46c1.3,1.14,2.46,2.84,3.95,3.21C554.69,144.42,556.17,142.79,557.43,142.01z M573.21,125.03
		c0.03-0.55,0.06-1.09,0.09-1.64c-1.41-0.92-2.86-2.61-4.23-2.54c-1.21,0.06-2.33,2.06-3.49,3.2c1.21,1.22,2.28,3.15,3.69,3.44
		C570.36,127.73,571.88,125.93,573.21,125.03z"/>
	<path class="st6" d="M224.84,296.62c9.49,6.25,10.02,9.41,3.08,18.39c-0.06,0.08-0.01,0.25-0.01,0.38
		c6.13,5.41,7.11,7.98,4.93,12.9c-2.12,4.78-4.8,5.9-13.07,5.18c-0.76,4.98-1.52,10.01-2.28,15.03c-0.22,1.43-0.39,2.87-0.64,4.3
		c-0.88,5.03-3.18,6.35-8.88,5.13c0.91-7.54,1.67-15.1,2.76-22.61c0.75-5.14-0.68-7.46-5.72-8.14c-3.09-0.42-6.18-0.84-9.18-1.25
		c-1.29,3.01-2.46,5.76-3.63,8.51c-1.9,4.4-3.59,8.91-5.77,13.17c-1.66,3.24-4.48,3.44-8.8,1.23c0.38-1.51,0.56-3.11,1.17-4.51
		c2.53-5.77,5.2-11.47,7.81-17.2c2.02-4.44,1.23-6.64-3.15-8.89c-0.73-0.38-1.45-0.77-2.81-1.5c1.35-0.38,2-0.44,2.52-0.73
		c1.86-1.02,3.68-2.12,5.52-3.18c-2.13-0.23-4.26-0.64-6.4-0.64c-2.23,0-4.62,0.76-5.16-2.55c-0.58-3.61-1.21-7.22-1.82-10.83
		c2.52-1.24,6.24-0.27,7.41-4c0.48,0.02,0.96,0.04,1.44,0.05c2.74,5.08,7.33,6.67,12.73,6.73c2.11-0.43,4.22-0.87,6.33-1.3
		c0.88-0.2,1.77-0.39,2.65-0.59l0.27,0.06l0.23-0.15c0.27-0.06,0.53-0.12,0.8-0.17c0.5-0.07,1-0.15,1.5-0.22
		C214.06,298.35,219.45,297.48,224.84,296.62z"/>
	<path class="st6" d="M108.09,183.9c2.74-3.12,5.26-6.47,8.25-9.33c8.27-7.92,9.97-11.83,0.06-20.78
		c-10.53-9.51-20.69-19.45-30.89-29.32c-2.64-2.55-5.69-2.31-8.84-2.3c2.31-2.52,4.51-5.16,6.96-7.53
		c3.29-3.18,7.73-3.43,11.05-0.29c11.99,11.3,23.92,22.69,35.62,34.29c1.52,1.51,2.58,4.73,2.1,6.73c-0.77,3.22,0.4,4.92,2.49,6.7
		c1.7,1.45,3.34,2.97,5,4.46c1.87,7.96,3.74,15.93,5.61,23.89c-1.17-0.8-2.48-1.44-3.49-2.41c-4.45-4.28-8.91-8.56-13.16-13.04
		c-2.2-2.33-3.74-2.54-6.04-0.06c-3.75,4.03-7.84,7.74-11.78,11.59C110.06,185.63,109.07,184.76,108.09,183.9z"/>
	<path class="st7" d="M136.4,100.89c0.95,1.41,1.75,2.94,2.86,4.2c9.83,11.19,10.37,25.47,13.05,39.02
		c2.83,14.31,5.54,28.64,8.3,42.96c1.13,6.08,2.25,12.15,3.38,18.23c0.61,3.63,1.14,7.28,1.83,10.9
		c2.93,15.38,5.91,30.75,8.86,46.13c1.2,2.81-0.07,4.07-2.78,4.4c-1.18,0.14-2.36,0.25-3.53,0.37c-0.54-3.36-0.95-6.74-1.62-10.07
		c-5.1-25.32-10.24-50.64-15.4-75.95c-5.26-25.83-10.56-51.65-15.76-77.48C135.42,102.77,136.11,101.79,136.4,100.89z"/>
	<path class="st8" d="M136.4,100.89c-0.29,0.9-0.98,1.88-0.81,2.7c5.2,25.84,10.5,51.66,15.76,77.48
		c5.15,25.31,10.29,50.63,15.4,75.95c0.67,3.33,1.09,6.71,1.62,10.07c-1.67,0.29-3.34,0.58-5.01,0.87
		c-2.31-10.2-4.6-20.41-6.95-30.6c-0.32-1.37-0.95-2.67-1.43-4.01c-3.16-14.31-6.32-28.62-9.47-42.93
		c-1.87-7.96-3.74-15.93-5.61-23.89c-1.23-6.17-2.39-12.35-3.72-18.5c-1.22-5.65-2.19-11.4-4.02-16.86
		c-3.25-9.67-0.29-18.95,0.94-28.36c0.2-1.53,0.55-3.04,1.05-5.73C135.22,98.91,135.81,99.9,136.4,100.89z"/>
	<path class="st9" d="M112.4,462.09c1.59,9.4,3.23,18.79,4.68,28.22c0.15,1-0.79,2.18-1.22,3.27c-0.29-0.06-0.59-0.12-0.88-0.18
		c-0.73-1.37-1.43-2.76-2.21-4.11c-6.33-10.94-13.04-21.67-18.9-32.84c-5.95-11.34-7.15-23.77-6.88-36.49
		c0.18-8.46-0.69-16.94-1.08-25.4c0.94,0.76,2.2,1.34,2.77,2.32c1.84,3.18,3.49,6.48,5.11,9.79
		C102.43,424.31,107.44,443.19,112.4,462.09z"/>
	<path class="st2" d="M145.51,190.42c3.16,14.31,6.32,28.62,9.47,42.93c-2.82-2.56-5.71-5.04-8.42-7.71
		c-1.29-1.27-2.92-2.76-3.22-4.37c-1.18-6.51-6.58-9.52-10.66-13.59c-7.14-7.13-14.42-14.13-21.64-21.19
		c3.95-3.85,8.04-7.56,11.78-11.59c2.3-2.47,3.84-2.26,6.04,0.06c4.24,4.48,8.71,8.75,13.16,13.04
		C143.02,188.97,144.34,189.62,145.51,190.42z"/>
	<path class="st6" d="M163.99,205.29c-1.13-6.08-2.25-12.16-3.38-18.23c3.21,2.64,6.1,5.66,10.7,6.08c1.32,0.12,2.57,1.73,3.72,2.8
		c7.32,6.84,14.61,13.72,21.9,20.59c3.25,3.19,6.54,6.35,9.73,9.6c1.08,1.1,1.93,2.41,2.89,3.62c-6.31-0.02-13.21,1.54-18.77-0.52
		c-5.09-1.88-8.74-7.66-13.01-11.73c-1.52-1.45-2.93-3.03-4.51-4.41C170.22,210.43,167.09,207.88,163.99,205.29z"/>
	<path class="st6" d="M151.81,301.04c-4.77-3.47-5.81-7.34-3.26-12.15c2.39-4.52,6.71-5.85,12.11-3.72
		c0.73,0.29,1.46,0.58,2.19,0.87c0.64,2.79,1.47,5.55,1.88,8.38c0.51,3.54,2.1,5.54,5.89,5.26c0.45,2.18,1.2,4.35,1.27,6.54
		c0.09,3.07,3.59,6.92-1.71,9.08c-0.26,0.11,0.01,1.43-0.03,2.19c-0.07,1.09-0.2,2.18-0.31,3.27c-3.71,4.25-7.35,8.57-11.14,12.74
		c-3.75,4.13-6.01,4.08-10.24,0.1c0.51-1.15,0.79-2.5,1.58-3.41c4.28-4.96,8.7-9.81,13.06-14.71c3.63-4.08,2.84-7.81-2.05-10.05
		C157.95,303.99,154.89,302.5,151.81,301.04z"/>
	<path class="st5" d="M629.06,110.54c0.14-0.2,0.33-0.3,0.57-0.31c0.32-0.2,0.65-0.39,0.97-0.59c0.14-0.18,0.32-0.26,0.54-0.24
		c0.35-0.2,0.7-0.39,1.04-0.59c0,0,0.08-0.05,0.07-0.05c6.4-1.48,12.69-0.68,18.95,0.89c0.54,0.46,1.08,0.93,1.62,1.39
		c0.33,0.25,0.66,0.49,0.99,0.74c0.65,0.59,1.3,1.18,1.95,1.78c-0.46,1.06-1.27,2.1-1.33,3.18c-0.47,7.75-5.11,14.16-12.61,16.33
		c-4.1,1.18-8.41,1.69-12.66,2.2c-0.72,0.09-1.67-1.32-2.43-2.13c-2.21-2.36-4.38-4.76-6.57-7.15c0.78-2.94,1.57-5.87,2.35-8.81
		c0.3-0.45,0.59-0.9,0.89-1.35c0.25-0.32,0.49-0.64,0.74-0.96c0.75-0.77,1.5-1.53,2.24-2.3c0.32-0.25,0.65-0.5,0.97-0.75
		c0,0-0.01,0-0.01,0C627.92,111.4,628.49,110.97,629.06,110.54z M630.52,115.93c-0.66,0.93-2.65,2.53-2.9,4.36
		c-0.34,2.58,1.66,4.36,4.46,4.21c2.43-0.13,4.33-1.18,4.06-4.14C635.91,117.8,635.19,115.68,630.52,115.93z"/>
	<path class="st2" d="M169.84,320.75c0.1-1.09,0.24-2.18,0.31-3.27c0.05-0.76-0.23-2.08,0.03-2.19c5.3-2.16,1.8-6.01,1.71-9.08
		c-0.06-2.19-0.82-4.36-1.27-6.54c1.56-0.29,3.12-0.58,4.68-0.87c0.61,3.61,1.23,7.22,1.82,10.83c0.53,3.31,2.93,2.54,5.16,2.55
		c2.13,0,4.26,0.41,6.4,0.64c-1.84,1.07-3.66,2.16-5.52,3.18c-0.52,0.29-1.17,0.35-2.52,0.73c1.36,0.73,2.08,1.12,2.81,1.5
		c4.38,2.25,5.17,4.45,3.15,8.89c-2.61,5.73-5.28,11.44-7.81,17.2c-0.62,1.41-0.79,3-1.17,4.51c-3.73-1.64-7.51-3.17-11.17-4.96
		c-3.01-1.47-3.8-4.52-2.21-8.16c1.68-3.86,3.6-7.62,5.24-11.5C169.9,323.2,169.73,321.92,169.84,320.75z"/>
	<path class="st2" d="M181.85,408.78c-5.02,4.23-10.04,8.46-15.07,12.69c-4.54-0.24-9.07-0.5-13.61-0.7
		c-4.14-0.18-7.01-2.2-7.1-5.84c-0.1-3.62,0.53-7.26,0.84-10.9c2.74-1,5.42-2.64,8.22-2.87c6.4-0.52,12.85-0.36,19.29-0.47
		c3.3,0.36,6.6,0.72,9.9,1.08c-0.49,1.8-0.97,3.6-1.46,5.4c-0.36,0.55-0.71,1.09-1.07,1.64
		C181.8,408.81,181.85,408.78,181.85,408.78z"/>
	<path class="st4" d="M620.17,125.99c2.19,2.39,4.35,4.79,6.57,7.15c0.75,0.8,1.71,2.21,2.43,2.13c4.25-0.51,8.56-1.02,12.66-2.2
		c7.5-2.17,12.14-8.58,12.61-16.33c0.07-1.08,0.87-2.12,1.33-3.18c0,0,0.14,0.13,0.14,0.13c0.21,0.22,0.42,0.43,0.63,0.65
		c0,0,0.16,0.18,0.16,0.18c0.08,0.26,0.24,0.45,0.49,0.57c0.25,0.13,0.39,0.33,0.41,0.6c0.24,0.33,0.47,0.66,0.71,0.98
		c0,0,0.02,0.03,0.02,0.03c0.18,0.26,0.36,0.51,0.55,0.77c0.22,0.16,0.32,0.38,0.3,0.65c0.18,0.31,0.37,0.63,0.55,0.94
		c0.21,0.17,0.29,0.4,0.24,0.66c0.8,1.37,1.61,2.75,2.41,4.12c0,0,0.08,0.02,0.08,0.02c-0.58,3.93-1.16,7.85-1.74,11.78c0,0,0,0,0,0
		c-0.24,0.55-0.48,1.1-0.72,1.65c0,0,0.01-0.03,0.01-0.03c-0.27,0.54-0.53,1.08-0.8,1.62c0,0,0.01-0.02,0.01-0.02
		c-1.04,1.41-2.08,2.82-3.12,4.23c-0.48,0.47-0.97,0.93-1.45,1.4c-0.33,0.26-0.66,0.51-0.98,0.77c0,0,0.02-0.01,0.02-0.01
		c-0.6,0.44-1.2,0.88-1.8,1.33c-0.12,0.16-0.27,0.25-0.47,0.26c-0.36,0.21-0.71,0.41-1.07,0.62c-0.12,0.15-0.28,0.22-0.47,0.21
		c-0.37,0.18-0.75,0.35-1.12,0.53c-0.16,0.14-0.35,0.21-0.56,0.2c-0.59,0.2-1.18,0.41-1.78,0.61c0,0-0.08,0.02-0.08,0.02
		c-1.25,0.08-2.49,0.24-3.74,0.23c-5.41-0.06-10.73-0.54-15.21-4.07c0,0,0.01,0.01,0.01,0.01c-0.32-0.25-0.63-0.5-0.95-0.76
		c-0.23-0.22-0.46-0.45-0.69-0.67c-0.28-0.29-0.56-0.59-0.83-0.88c0,0,0.02,0.02,0.02,0.02c-0.26-0.28-0.51-0.57-0.77-0.85
		c0,0,0.02,0.02,0.02,0.02c-0.24-0.29-0.48-0.58-0.73-0.88c0,0,0,0,0,0c-0.21-0.29-0.43-0.59-0.64-0.88
		c-0.16-0.12-0.24-0.28-0.23-0.49c-0.96-2.19-1.93-4.38-2.89-6.57c-0.07-2.36-0.13-4.73-0.2-7.09
		C619.73,126.13,619.95,126.08,620.17,125.99z M652.75,138.78c-0.01-0.61-0.02-1.22-0.04-1.83c-1.68-1.21-3.27-3.23-5.08-3.45
		c-2.84-0.35-4.38,1.83-4.34,4.75c0.04,2.94,2.16,4.55,4.52,4.2C649.6,142.18,651.11,140.07,652.75,138.78z M638.91,143.54
		c-0.35-0.6-0.7-1.2-1.05-1.79c-0.93-0.43-1.9-1.25-2.79-1.18c-0.7,0.06-1.32,1.21-1.97,1.88c0.85,0.81,1.6,2.11,2.57,2.29
		C636.64,144.92,637.82,143.98,638.91,143.54z"/>
	<path class="st9" d="M115.19,426.12c-1.03,8.46-2.06,16.92-3.09,25.38c-3.71-11.36-6.69-23.03-11.35-33.98
		c-4.64-10.91-10.98-21.11-16.57-31.61c0-0.54,0-1.09,0-1.63c0.57-0.04,1.14-0.07,1.71-0.11c0,0,0.03,0.02,0.03,0.02
		c0.26,0.18,0.52,0.36,0.78,0.54c0.52,0.35,1.05,0.71,1.57,1.06c0.27,0.21,0.55,0.41,0.82,0.62c0,0,0.15,0.1,0.15,0.1
		c0.21,0.16,0.42,0.32,0.63,0.49c1.94,1.69,3.88,3.38,5.82,5.07c0.18,0.18,0.37,0.37,0.55,0.55c0,0,0.22,0.22,0.22,0.22
		c0.19,0.19,0.38,0.39,0.57,0.58c0,0,0.2,0.22,0.2,0.22c0.2,0.2,0.39,0.4,0.59,0.6c0,0,0.19,0.19,0.19,0.19
		c0.19,0.21,0.39,0.41,0.58,0.61c1.37,1.65,2.74,3.31,4.11,4.96c0.2,0.27,0.4,0.53,0.61,0.8c3.53,6.86,7.07,13.72,10.6,20.59
		c0.13,0.33,0.26,0.66,0.38,0.99c-0.03,0.22,0.02,0.42,0.15,0.6C114.71,424.02,114.95,425.07,115.19,426.12z"/>
	<path class="st2" d="M192.18,334.44c1.17-2.75,2.35-5.5,3.63-8.51c3.01,0.41,6.09,0.83,9.18,1.25c5.05,0.69,6.47,3,5.72,8.14
		c-1.09,7.51-1.86,15.07-2.76,22.61c-0.28,0.11-0.56,0.22-0.84,0.33c-3.49-0.6-6.99-1.14-10.47-1.8c-3.79-0.72-5.43-3.24-4.82-7.11
		c0.63-4.01,1.31-8.02,1.71-12.06C193.63,336.4,192.66,335.39,192.18,334.44z"/>
	<path class="st2" d="M151.81,301.04c3.08,1.46,6.14,2.96,9.23,4.38c4.89,2.24,5.67,5.97,2.05,10.05
		c-4.35,4.9-8.77,9.75-13.06,14.71c-0.79,0.91-1.06,2.26-1.58,3.41c-2.86-2.49-5.8-4.9-8.56-7.49c-3.37-3.16-3.4-5.66-0.33-9.17
		c3.63-4.15,7.33-8.23,10.87-12.45C151.2,303.57,151.37,302.19,151.81,301.04z"/>
	<path class="st10" d="M175.31,298.8c-1.56,0.29-3.12,0.58-4.68,0.87c-3.79,0.28-5.38-1.72-5.89-5.26
		c-0.41-2.82-1.24-5.59-1.88-8.38c0.04-3.16-1.07-6.72,2.92-8.53c1.64-0.3,3.29-0.6,4.94-0.91c2.27-0.16,4.54-0.31,6.81-0.47
		c1.22-0.04,2.45-0.09,3.67-0.13c1.27,0.66,2.55,1.31,3.82,1.97c0.05,0.52,0.06,1.05,0.17,1.57c0.63,2.99,2.23,6.26-2.58,7.49
		c-0.43,0.11-0.68,1.8-0.63,2.74c0.1,1.69,0.49,3.36,0.75,5.04C181.55,298.53,177.83,297.56,175.31,298.8z"/>
	<path class="st5" d="M493.61,61.18c0.24,0.21,0.49,0.42,0.73,0.63c-0.02,0.31-0.04,0.63-0.06,0.94c-0.3,1.09-0.62,2.17-0.88,3.26
		c-0.87,3.67-2.19,7.23-6,8.61c-2.98,1.07-6.58,0.67-9.33,2.05c-5.68,2.84-3.81-4.11-6.71-4.67c-0.54-0.11-0.95-0.83-1.68-1.51
		c0,2.97,0,5.46,0,7.95c-1.31,0.82-2.56,1.77-3.95,2.39c-0.65,0.29-1.61,0.02-2.38-0.19c-0.17-0.05-0.28-1.25-0.16-1.29
		c0.69-0.27,1.57-0.69,2.16-0.47c2.89,1.1,3.45-0.78,3.61-2.82c0.12-1.55-0.59-3.21-0.28-4.68c0.68-3.19,1.1-5.85-3.43-6.08
		c-0.45-0.02-0.83-1.3-1.24-2c0.88-0.11,2.3-0.62,2.56-0.27c2.67,3.57,4.41,1.9,6.21-0.82c0.56-0.85,1.44-1.63,2.35-2.08
		c3.32-1.64,3.64-3.43,0.65-5.79c-0.44-0.35-0.63-1.37-0.48-1.98c0.09-0.38,1.22-0.92,1.53-0.75c0.57,0.32,1.23,1.1,1.24,1.7
		c0.06,3.85,2.25,4.57,5.52,4.1c1.02-0.15,2.19-0.15,3.14,0.19c3.16,1.13,4.67-0.11,5.3-3.17c0.16-0.77,0.77-1.5,1.34-2.07
		c0.12-0.12,1.49,0.65,1.45,0.8c-0.2,0.8-0.53,1.65-1.07,2.25c-1.32,1.49-3.04,2.81-1.1,4.99
		C492.97,60.67,493.29,60.92,493.61,61.18z M481.76,66.7c-1.71-1.32-2.74-2.65-3.98-2.87c-0.7-0.12-2.6,1.87-2.42,2.41
		c0.43,1.35,1.75,2.41,2.72,3.59C479.07,68.99,480.07,68.13,481.76,66.7z"/>
	<path class="st11" d="M579.92,476.88c0,1.31,0,2.61,0,3.92c-0.22,1.9-0.44,3.81-0.67,5.71c-0.05,0.47-0.09,0.94-0.14,1.41
		c-0.25,0.89-0.49,1.78-0.74,2.67c0.34,0.11,0.67,0.21,1.01,0.32c0.65-1.03,1.29-2.07,1.94-3.1c2.66-2.35,5.31-4.69,7.97-7.04
		c0.3-0.23,0.61-0.45,0.91-0.68c2.61-1.63,5.22-3.27,7.82-4.9c-0.11,0.77-0.02,1.64-0.36,2.29c-6.81,12.65-15.34,23.99-26.39,34.54
		c0.71-4.13,1.6-7.4,1.79-10.71c0.59-10.17,0.97-20.34,1.33-30.52c0.13-3.79-0.02-7.6-0.04-11.4c0.83,1.55,1.65,3.1,2.48,4.64
		c0.74,2.17,1.48,4.35,2.22,6.52c0.18,1.05,0.37,2.1,0.55,3.16C579.72,474.76,579.82,475.82,579.92,476.88z"/>
	<path class="st12" d="M230.22,395.02c6.45,0.06,12.9,0.23,19.35,0.15c3.67-0.05,5.57,1.21,4.98,5.1c-1.67,0.22-3.35,0.64-5.02,0.65
		c-20.19,0.08-40.37,0.1-60.56,0.13c-0.01-0.84-0.03-1.69-0.04-2.53c0-1.04,0.01-2.08,0.01-3.12c12.19-0.05,24.39-0.1,36.58-0.17
		C227.08,395.21,228.65,395.09,230.22,395.02z"/>
	<path class="st13" d="M177.52,276.13c-2.27,0.16-4.54,0.31-6.81,0.47c-0.39-1.49-0.78-2.98-1.27-4.85
		c-1.73,0.15-3.36,0.29-4.99,0.44c-2.67,0.58-5.33,1.28-8.03,1.65c-0.76,0.1-1.66-0.76-2.5-1.18c7.43-1.62,14.85-3.23,22.28-4.85
		c2.69-0.59,6.24-0.36,7.87-2.01c2.22-2.24,4.37-1.91,6.71-1.92c10.82-0.06,21.65,0,32.47-0.05c1.24-0.01,2.49-0.46,3.73-0.7
		c1.57-0.56,3.13-1.13,4.7-1.69c2.32,4.21,4.74,0.27,7.12,0.09c-2.04,1.08-3.99,2.83-6.14,3.14c-13.76,1.95-27.57,3.58-41.36,5.32
		c-0.5,0.06-0.99,0.12-1.49,0.18c-1.63,0.14-3.27,0.29-4.9,0.43c-1.24,1.22-2.49,2.45-3.73,3.67c-0.14-1.17,0.05-2.53-0.5-3.44
		c-0.47-0.76-1.88-1.45-2.74-1.32c-0.71,0.1-1.66,1.42-1.74,2.27c-0.09,1.04,0.62,2.15,0.99,3.23
		C177.29,275.36,177.4,275.74,177.52,276.13z"/>
	<path class="st11" d="M567.24,512.42c-0.84-5.24-1.63-10.48-2.54-15.71c-1.43-8.31,0.2-16.12,3.57-23.73c1-2.25,1.53-4.7,2.28-7.06
		c2.47-1.05,2.12,0.74,2.12,2.12c0,7.85,0.36,15.72-0.13,23.54c-0.38,6.11-1.73,12.17-2.88,18.2
		C569.48,510.79,568.08,511.55,567.24,512.42z"/>
	<path class="st4" d="M469.67,78.44c0-2.49,0-4.98,0-7.95c0.73,0.68,1.15,1.4,1.68,1.51c2.89,0.57,1.03,7.52,6.71,4.67
		c2.76-1.38,6.36-0.98,9.33-2.05c3.8-1.37,5.12-4.94,6-8.61c0.26-1.09,0.59-2.17,0.88-3.26c0,0,0.38,0.04,0.38,0.04l0.39-0.01
		c0,0-0.01-0.01-0.01-0.01c0.2,0.3,0.39,0.6,0.59,0.9c0.18,0.15,0.26,0.35,0.24,0.59c0.51,0.57,1.03,1.14,1.54,1.71
		c0,0-0.01-0.01-0.01-0.01c0.04,4.3,0.08,8.61,0.12,12.91c0.01,0.2-0.05,0.37-0.18,0.51c-0.44,0.46-0.93,0.89-1.32,1.39
		c-4.04,5.23-10.43,7.68-16.53,5.4c-3.13-1.17-5.72-3.81-8.55-5.78C470.51,79.75,470.09,79.1,469.67,78.44z M488.65,84.08
		c1.53-2.32,2.92-3.54,3-4.84c0.06-0.93-1.88-2.9-2.53-2.75c-1.34,0.32-3.15,1.6-3.38,2.77C485.53,80.32,487.15,81.75,488.65,84.08z
		"/>
	<path class="st14" d="M146.9,404.03c-0.31,3.63-0.94,7.28-0.84,10.9c0.1,3.65,2.96,5.67,7.1,5.84c4.54,0.19,9.08,0.46,13.61,0.7
		c-8.13,6.48-16.27,12.95-24.2,19.27c0.66-4.62,1.42-9.94,2.18-15.25c0.07-0.55,0.15-1.11,0.23-1.66c-0.33-6.61-0.67-13.21-1-19.82
		C144.96,404.02,145.93,404.02,146.9,404.03z"/>
	<path class="st15" d="M567.24,512.42c0.84-0.87,2.24-1.64,2.43-2.63c1.15-6.04,2.5-12.1,2.88-18.2c0.49-7.82,0.13-15.69,0.13-23.54
		c0-1.38,0.34-3.17-2.12-2.12c0.44-3.06,0.88-6.13,1.46-10.2c1.03,1.6,1.69,2.63,2.35,3.65c0.02,3.8,0.17,7.6,0.04,11.4
		c-0.36,10.18-0.73,20.36-1.33,30.52c-0.19,3.31-1.08,6.59-1.79,10.71c11.05-10.55,19.58-21.89,26.39-34.54
		c0.35-0.64,0.25-1.52,0.36-2.29c0,0-0.01,0.08-0.01,0.08c-0.03-0.35-0.05-0.69-0.08-1.03c1.59-2.18,3.18-4.37,5.19-7.11
		c1.67,3.41,1.61,6.25,0.07,9.14c-0.18-1.47-0.35-2.94-0.55-4.55c-0.53,0.32-0.86,0.4-0.93,0.59c-4.58,11.05-11.17,20.84-18.9,29.91
		c-2.17,2.54-4.05,5.31-6.07,7.98c-1.77,1.81-3.55,3.62-5.33,5.43c-1.27-0.2-2.54-0.4-3.8-0.6
		C567.49,514.16,567.37,513.29,567.24,512.42z"/>
	<path class="st16" d="M131.83,382.64c0.72,2.6,1.83,5.16,2.1,7.81c2.37,22.99,0.37,45.74-4.18,68.3c-1,4.99-2.43,9.89-3.73,14.82
		c-0.14,0.52-0.66,0.94-1.64,1.22c0.16-1.58,0.11-3.21,0.51-4.73c5.82-22.04,8.03-44.49,7.63-67.22c-0.06-3.68-0.41-7.36-0.81-11.02
		c-0.08-0.75-1-1.41-1.53-2.11C129.25,387.02,129.32,384.55,131.83,382.64z"/>
	<path class="st16" d="M84.19,385.9c5.59,10.51,11.93,20.7,16.57,31.61c4.66,10.96,7.64,22.63,11.35,33.98
		c0.1,3.53,0.19,7.07,0.29,10.6c-4.95-18.9-9.96-37.78-18.62-55.44c-1.62-3.31-3.27-6.61-5.11-9.79c-0.57-0.98-1.83-1.56-2.77-2.32
		C83.48,392.03,82.36,389.26,84.19,385.9z"/>
	<path class="st11" d="M576.74,510.19c2.02-2.67,3.9-5.44,6.07-7.98c7.74-9.07,14.32-18.85,18.9-29.91c0.08-0.18,0.4-0.26,0.93-0.59
		c0.19,1.61,0.37,3.08,0.55,4.55c-0.22,0.74-0.45,1.47-0.67,2.21c-0.15,0.52-0.3,1.04-0.45,1.56
		c-2.76,12.09-11.28,19.94-20.27,27.45c-0.69,0.58-1.39,1.15-2.08,1.73c-0.51,0.26-1.02,0.51-1.53,0.77
		C577.71,510.05,577.22,510.12,576.74,510.19z"/>
	<path class="st2" d="M226.98,263.1c-1.24,0.25-2.49,0.7-3.73,0.7c-10.82,0.05-21.65-0.01-32.47,0.05
		c-2.34,0.01-4.49-0.32-6.71,1.92c-1.63,1.65-5.17,1.42-7.87,2.01c-7.43,1.62-14.85,3.24-22.28,4.85c0.91-0.99,1.64-2.4,2.77-2.87
		c2.1-0.89,4.43-1.24,6.67-1.82c1.67-0.29,3.34-0.58,5.01-0.87c1.18-0.12,2.36-0.22,3.53-0.37c2.71-0.33,3.98-1.59,2.78-4.4
		c3.38,0,6.77,0,10.15,0c12.81,0,25.61-0.02,38.42,0.03C224.5,262.36,225.74,262.84,226.98,263.1z"/>
	<path class="st17" d="M470.94,80.4c2.83,1.97,5.41,4.61,8.55,5.78c6.09,2.28,12.49-0.17,16.53-5.4c0.39-0.5,0.88-0.93,1.32-1.39
		c-0.48,2.89,1.66,3.01,3.58,3.55c0.86,0.24,1.74,0.92,2.25,1.65c0.19,0.27-0.63,1.81-0.96,1.8c-0.88-0.02-2.01-0.34-2.58-0.96
		c-2.14-2.29-4.01-2.99-6.58-0.4c-1.32,1.33-3.38,1.92-5.57,3.09c0.73,1.2,1.57,2.29,2.08,3.52c0.3,0.74,0.27,1.74,0.03,2.52
		c-0.11,0.35-1.38,0.78-1.59,0.59c-0.6-0.55-1.04-1.35-1.34-2.13c-0.54-1.41-0.59-3.78-1.47-4.13c-2.24-0.87-4.84-1.08-7.26-0.96
		c-0.58,0.03-0.88,2.48-1.64,3.57c-0.46,0.66-1.58,0.86-2.41,1.27c-0.25-0.89-0.94-2.4-0.69-2.58c3.91-2.71,1.61-4.64-0.63-6.75
		C471.82,82.37,471.46,81.3,470.94,80.4z"/>
	<path class="st17" d="M651.21,109.66c-6.26-1.58-12.55-2.38-18.95-0.89c-1.1-1.95-2.24-3.87-3.27-5.85c-0.49-0.95-1.18-2.09-1.01-3
		c0.11-0.62,1.85-1.59,2.35-1.35c0.96,0.46,2.06,1.59,2.24,2.59c1.03,5.77,1.27,5.99,6.86,5.7c1.95-0.1,3.95,0.14,5.88,0.45
		c4.33,0.7,5.76-0.3,6.73-4.44c0.3-1.26,1.38-2.38,2.29-3.41c0.1-0.12,2.09,1.05,2.03,1.23c-0.43,1.3-1.1,2.54-1.82,3.73
		C653.49,106.2,652.33,107.92,651.21,109.66z"/>
	<path class="st17" d="M627.39,145.19c4.49,3.53,9.8,4.01,15.21,4.07c1.25,0.01,2.49-0.15,3.74-0.23c0.67,2.94,1.34,5.89,2.17,9.55
		c-0.28,0.1-1.44,0.54-2.61,0.98c-0.39-1.24-0.96-2.45-1.13-3.71c-0.44-3.19-1-6.1-5.28-5.72c-0.77,0.07-1.58-0.13-2.36-0.24
		c-5.6-0.78-5.55-0.76-7.52,4.92c-0.28,0.8-1.35,1.65-2.2,1.83c-0.66,0.14-1.93-0.55-2.2-1.19c-0.33-0.79-0.02-1.92,0.24-2.84
		c0.11-0.4,0.8-0.63,1.21-0.96C628.99,149.73,629.9,147.65,627.39,145.19z"/>
	<path class="st13" d="M188.93,395.39c0,1.04-0.01,2.08-0.01,3.12c-0.18-0.01-0.36-0.02-0.54-0.02c-0.51-0.15-1.36-0.56-1.49-0.4
		c-0.94,1.16-1.73,2.44-2.57,3.68c-3.3-0.36-6.6-0.72-9.91-1.08c0.05-5.27,0.26-5.51,5.54-5.5
		C182.95,395.2,185.94,395.32,188.93,395.39z"/>
	<path class="st18" d="M114.97,493.4c0.29,0.06,0.59,0.12,0.88,0.18c0.62,0.83,1.25,1.66,1.87,2.49c0.01,0.55,0.01,1.11,0.02,1.66
		c-2.81,2.8-5.62,5.59-8.43,8.39C108.53,499.18,110.22,495.37,114.97,493.4z"/>
	<path class="st17" d="M620.17,125.99c-0.22,0.08-0.44,0.14-0.68,0.17c-0.16-0.34-0.55-0.75-0.46-1c1.63-4.51,0.23-6.67-4.72-6.57
		c-0.77,0.01-1.94-1.32-2.2-2.23c-0.17-0.59,0.88-2.11,1.55-2.22c0.9-0.15,2.31,0.39,2.88,1.11c1.64,2.07,3.32,3.31,5.98,1.94
		C621.74,120.12,620.96,123.06,620.17,125.99z"/>
	<path class="st17" d="M656.1,143.1c1.04-1.41,2.08-2.82,3.12-4.23c-0.23,3.85,2.98,3.47,5.25,4.34c1.19,0.46,2.49,1.1,3.2,2.05
		c0.29,0.4-0.97,2.71-1.28,2.66c-1.24-0.2-2.37-1-3.55-1.56C660.6,145.27,658.35,144.18,656.1,143.1z"/>
	<path class="st19" d="M619.7,133.26c0.96,2.19,1.93,4.38,2.89,6.57c-2.36-2.26-4.65-1.45-7.11-0.05c-1.07,0.61-2.49,0.77-3.75,0.76
		c-0.24,0-0.9-2.38-0.62-2.57c1.01-0.69,2.32-1.18,3.55-1.25C617.13,136.58,619.9,137.18,619.7,133.26z"/>
	<path class="st17" d="M497.51,78.88c-0.04-4.3-0.08-8.61-0.12-12.91c1.3,1.7,2.67,2.33,4.66,0.79c0.61-0.48,1.84-0.27,2.76-0.15
		c0.18,0.02,0.49,1.47,0.24,1.69c-0.59,0.52-1.54,1.05-2.25,0.95c-2.85-0.42-3.22,1.07-3.45,3.42
		C499.13,74.78,498.15,76.81,497.51,78.88z"/>
	<path class="st2" d="M164.45,272.18c1.63-0.14,3.26-0.28,4.99-0.44c0.49,1.87,0.88,3.36,1.27,4.85c-1.65,0.3-3.29,0.6-4.94,0.91
		C165.33,275.73,164.89,273.95,164.45,272.18z"/>
	<path class="st5" d="M662.37,123.84c-0.8-1.37-1.61-2.75-2.41-4.12c1.83,3.53,3.99,2.54,6.48,0.67c0.84-0.63,2.23-0.54,3.37-0.78
		c0.1,1.11,0.21,2.21,0.31,3.32c-2.34,0.28-4.67,0.57-7.01,0.85l-0.36,0.12L662.37,123.84z"/>
	<path class="st16" d="M115.19,426.12c-0.24-1.05-0.49-2.1-0.73-3.15c0.82-0.79,1.75-1.51,2.45-2.4c0.99-1.27,1.82-2.66,2.71-4
		C118.15,419.75,116.67,422.94,115.19,426.12z"/>
	<path class="st17" d="M660.71,135.64c0.58-3.93,1.16-7.85,1.74-11.78C661.87,127.79,661.29,131.71,660.71,135.64z"/>
	<path class="st16" d="M129.8,392.01c-0.91,2.95-1.83,5.9-2.74,8.85C127.98,397.91,128.89,394.96,129.8,392.01z"/>
	<path class="st16" d="M85.89,384.15c-0.57,0.04-1.14,0.07-1.71,0.11c0,0,0.07,0.03,0.07,0.03c-0.39,0-0.77,0.01-1.16,0.01
		c-0.74-0.69-1.47-1.38-2.21-2.07c0.32-0.4,0.63-0.8,0.95-1.2C83.19,382.07,84.54,383.11,85.89,384.15z"/>
	<path class="st15" d="M579.07,470.55c-0.74-2.17-1.48-4.35-2.22-6.52C577.59,466.2,578.33,468.37,579.07,470.55z"/>
	<path class="st15" d="M579.26,486.51c0.22-1.9,0.44-3.81,0.67-5.71C579.7,482.7,579.48,484.6,579.26,486.51z"/>
	<path class="st17" d="M663.11,123.78c2.34-0.28,4.67-0.57,7.01-0.85C667.78,123.21,665.44,123.5,663.11,123.78z"/>
	<path class="st15" d="M581.33,487.81c-0.65,1.03-1.29,2.07-1.94,3.1c-0.34-0.11-0.67-0.21-1.01-0.32c0.25-0.89,0.49-1.78,0.74-2.67
		C579.86,487.88,580.59,487.84,581.33,487.81z"/>
	<path class="st16" d="M126.81,401.54c-0.58,1.22-1.17,2.44-1.75,3.66C125.64,403.98,126.22,402.76,126.81,401.54z"/>
	<path class="st15" d="M579.92,476.88c-0.1-1.06-0.2-2.12-0.3-3.18C579.72,474.76,579.82,475.82,579.92,476.88z"/>
	<path class="st14" d="M143.7,402.45c-0.13-0.54-0.26-1.07-0.39-1.61C143.44,401.38,143.57,401.92,143.7,402.45z"/>
	<path class="st15" d="M602.07,480.04c0.15-0.52,0.3-1.04,0.45-1.56C602.37,478.99,602.22,479.52,602.07,480.04z"/>
	<path class="st17" d="M651.89,146.58c0.6-0.44,1.2-0.88,1.8-1.33C653.09,145.69,652.49,146.14,651.89,146.58z"/>
	<path class="st17" d="M629.06,110.54c-0.57,0.43-1.14,0.86-1.71,1.29C627.92,111.4,628.49,110.97,629.06,110.54z"/>
	<path class="st17" d="M497.4,65.98c-0.51-0.57-1.03-1.14-1.54-1.71C496.37,64.84,496.88,65.41,497.4,65.98z"/>
	<path class="st17" d="M659.99,137.29c0.24-0.55,0.48-1.1,0.72-1.65C660.47,136.19,660.23,136.74,659.99,137.29z"/>
	<path class="st17" d="M659.21,138.88c0.27-0.54,0.53-1.08,0.8-1.62C659.74,137.81,659.48,138.35,659.21,138.88z"/>
	<path class="st17" d="M646.42,149.01c0.59-0.2,1.18-0.41,1.78-0.61C647.6,148.6,647.01,148.81,646.42,149.01z"/>
	<path class="st15" d="M578.19,509.99c0.51-0.26,1.02-0.51,1.53-0.77C579.21,509.47,578.7,509.73,578.19,509.99z"/>
	<path class="st14" d="M142.91,399.3c-0.12-0.14-0.26-0.27-0.35-0.43c-0.02-0.04,0.09-0.16,0.15-0.24
		C142.86,398.83,142.93,399.05,142.91,399.3z"/>
	<path class="st5" d="M658.31,116.67c-0.24-0.33-0.47-0.66-0.71-0.98C657.84,116.02,658.07,116.35,658.31,116.67z"/>
	<path class="st16" d="M103.33,400.8c-0.2-0.27-0.4-0.53-0.61-0.8C102.93,400.27,103.13,400.53,103.33,400.8z"/>
	<path class="st5" d="M581.48,116.65c-0.27-0.32-0.53-0.64-0.8-0.95C580.95,116.02,581.21,116.33,581.48,116.65z"/>
	<path class="st5" d="M657.19,115.09c-0.25-0.12-0.41-0.31-0.49-0.57C656.86,114.71,657.02,114.9,657.19,115.09z"/>
	<path class="st5" d="M656.54,114.34c-0.21-0.22-0.42-0.43-0.63-0.65C656.12,113.91,656.33,114.12,656.54,114.34z"/>
	<path class="st17" d="M627.37,111.83c-0.32,0.25-0.65,0.5-0.97,0.75C626.72,112.33,627.04,112.08,627.37,111.83z"/>
	<path class="st17" d="M653.82,111.78c-0.33-0.25-0.66-0.49-0.99-0.74C653.16,111.29,653.49,111.54,653.82,111.78z"/>
	<path class="st17" d="M630.61,109.64c-0.32,0.2-0.65,0.39-0.97,0.59C629.96,110.03,630.28,109.84,630.61,109.64z"/>
	<path class="st16" d="M124.2,407.13c-0.12,0.25-0.24,0.49-0.37,0.74C123.95,407.63,124.08,407.38,124.2,407.13z"/>
	<path class="st17" d="M648.76,148.19c0.37-0.18,0.75-0.35,1.12-0.53C649.5,147.84,649.13,148.02,648.76,148.19z"/>
	<path class="st17" d="M632.19,108.81c-0.35,0.2-0.69,0.39-1.04,0.59C631.49,109.2,631.84,109.01,632.19,108.81z"/>
	<path class="st16" d="M122.64,410.3c-0.13,0.25-0.26,0.5-0.39,0.76C122.38,410.8,122.51,410.55,122.64,410.3z"/>
	<path class="st17" d="M650.35,147.45c0.36-0.21,0.71-0.41,1.07-0.62C651.07,147.04,650.71,147.25,650.35,147.45z"/>
	<path class="st16" d="M121.88,411.88c-0.14,0.25-0.28,0.51-0.42,0.76C121.6,412.38,121.74,412.13,121.88,411.88z"/>
	<path class="st16" d="M121.14,413.46c-0.15,0.26-0.31,0.52-0.46,0.78C120.83,413.98,120.98,413.72,121.14,413.46z"/>
	<path class="st16" d="M120.37,415.04c-0.16,0.27-0.31,0.55-0.47,0.82C120.06,415.59,120.22,415.31,120.37,415.04z"/>
	<path class="st17" d="M653.67,145.26c0.33-0.26,0.65-0.51,0.98-0.77C654.33,144.75,654,145,653.67,145.26z"/>
	<path class="st17" d="M626.45,144.44c0.32,0.25,0.63,0.5,0.95,0.76C627.08,144.94,626.77,144.69,626.45,144.44z"/>
	<path class="st17" d="M624.92,142.88c0.28,0.29,0.56,0.59,0.83,0.88C625.48,143.47,625.2,143.18,624.92,142.88z"/>
	<path class="st16" d="M114.31,422.37c-0.13-0.33-0.26-0.66-0.38-0.99C114.06,421.71,114.18,422.04,114.31,422.37z"/>
	<path class="st17" d="M624.15,114.87c-0.25,0.32-0.49,0.64-0.74,0.96C623.66,115.51,623.9,115.19,624.15,114.87z"/>
	<path class="st17" d="M624.17,142.05c0.26,0.28,0.51,0.57,0.77,0.85C624.68,142.62,624.43,142.33,624.17,142.05z"/>
	<path class="st17" d="M623.46,141.19c0.24,0.29,0.48,0.58,0.73,0.88C623.95,141.77,623.7,141.48,623.46,141.19z"/>
	<path class="st17" d="M495.62,63.68c-0.2-0.3-0.39-0.6-0.59-0.9C495.23,63.08,495.43,63.38,495.62,63.68z"/>
	<path class="st17" d="M622.82,140.31c0.21,0.29,0.43,0.59,0.64,0.88C623.25,140.9,623.04,140.61,622.82,140.31z"/>
	<path class="st17" d="M493.61,61.18c-0.32-0.26-0.64-0.51-0.96-0.77C492.97,60.67,493.29,60.92,493.61,61.18z"/>
	<path class="st9" d="M83.1,384.3c0.39,0,0.77-0.01,1.16-0.01C83.87,384.3,83.48,384.3,83.1,384.3z"/>
	<path class="st16" d="M86.71,384.72c-0.26-0.18-0.52-0.36-0.78-0.54C86.19,384.36,86.45,384.54,86.71,384.72z"/>
	<path class="st16" d="M89.1,386.4c-0.27-0.21-0.55-0.41-0.82-0.62C88.55,385.98,88.82,386.19,89.1,386.4z"/>
	<path class="st16" d="M89.88,386.99c-0.21-0.16-0.42-0.32-0.63-0.49C89.46,386.67,89.67,386.83,89.88,386.99z"/>
	<path class="st14" d="M139.8,390.32l-0.29-0.12c0,0,0.08-0.28,0.08-0.28C139.69,390.04,139.76,390.17,139.8,390.32z"/>
	<path class="st14" d="M140.55,392.12c-0.13-0.23-0.26-0.46-0.39-0.69C140.29,391.66,140.42,391.89,140.55,392.12z"/>
	<path class="st16" d="M96.25,392.61c-0.18-0.18-0.37-0.37-0.55-0.55C95.89,392.25,96.07,392.43,96.25,392.61z"/>
	<path class="st11" d="M597.94,474.23c0.03,0.34,0.05,0.69,0.08,1.03c-0.07-0.23-0.17-0.45-0.21-0.68
		C597.79,474.48,597.89,474.35,597.94,474.23z"/>
	<path class="st17" d="M495.04,62.79c0,0-0.39,0.01-0.39,0.01s-0.38-0.04-0.38-0.04c0.02-0.31,0.04-0.63,0.06-0.94
		C494.57,62.14,494.81,62.46,495.04,62.79z"/>
	<path class="st15" d="M590.21,480.09c-0.3,0.23-0.61,0.45-0.91,0.68C589.6,480.54,589.9,480.32,590.21,480.09z"/>
	<path class="st16" d="M97.05,393.41c-0.19-0.19-0.38-0.39-0.57-0.58C96.67,393.03,96.86,393.22,97.05,393.41z"/>
	<path class="st16" d="M97.84,394.23c-0.2-0.2-0.39-0.4-0.59-0.6C97.45,393.83,97.64,394.03,97.84,394.23z"/>
	<path class="st14" d="M141.37,394.38c-0.13-0.1-0.27-0.19-0.38-0.3c-0.01-0.01,0.09-0.14,0.14-0.22
		C141.26,394.01,141.34,394.18,141.37,394.38z"/>
	<path class="st16" d="M98.61,395.04c-0.19-0.2-0.39-0.41-0.58-0.61C98.22,394.63,98.42,394.83,98.61,395.04z"/>
	<path class="st5" d="M659.72,119.06c-0.18-0.31-0.37-0.63-0.55-0.94C659.35,118.43,659.54,118.74,659.72,119.06z"/>
	<path class="st5" d="M658.87,117.47c-0.18-0.26-0.36-0.51-0.55-0.77C658.5,116.96,658.69,117.21,658.87,117.47z"/>
	<path class="st14" d="M142.16,396.76l-0.31-0.18c0,0,0.11-0.31,0.12-0.31C142.08,396.42,142.15,396.58,142.16,396.76z"/>
	<path class="st20" d="M349.46,386.01c-1.6,2.22-3.2,4.44-4.79,6.66c-1.99,2.43-3.99,4.85-5.99,7.28
		c-2.98,3.73-5.95,7.45-8.93,11.18c-2.56,3.12-5.13,6.24-7.69,9.36c-2.79,3.66-5.58,7.32-8.36,10.98c-2.51,3.03-5,6.08-7.54,9.09
		c-4.42,5.25-8.87,10.47-13.31,15.7c-8.14,10.17-16.26,20.36-24.48,30.47c-0.83,1.02-2.33,1.48-4.05,2.52
		c0.53-4.67-7.08-10.13-15.39-12.02c-0.45,2-0.9,4-1.35,6c-6.18-1.3-7.42-6.03-3.06-11.69c4.77-6.74,9.58-13.45,14.28-20.23
		c4.32-6.24,8.52-12.56,12.77-18.85c1.57-2.29,3.14-4.57,4.71-6.86c8.48-12.16,16.95-24.32,25.43-36.48
		c7.78-0.58,14.28,2.8,20.57,7.07c15.14-16.18,28.75-33.08,39.79-51.97c10.51-17.98,17.8-36.78,15.03-58.18
		c8.08-4.02,16.17-8.05,24.25-12.07c3.57,3.1,7.07,6.29,10.72,9.3c23.25,19.18,48.65,35.18,74.6,50.38
		c0.53,0.31,1.16,0.46,2.01,0.79c0.12-1.82,0.22-3.37,0.33-4.92c5.29,3.59,6.72,8.31,4.11,13.55c-7.68,2.99-15.37,1.49-22.69-0.82
		c-12.62-3.98-24.98-8.77-37.5-13.09c-5.43-1.87-10.96-3.41-16.45-5.1c-1.32-0.64-2.64-1.27-3.97-1.91
		c-0.39-0.39-0.78-0.78-1.17-1.16c-2.88-0.91-5.82-1.65-8.61-2.77c-2.33-0.93-3.67-0.78-5.08,1.66
		C383.95,343.63,366.46,364.65,349.46,386.01z"/>
	<path class="st21" d="M489,329.52c-0.1,1.55-0.21,3.1-0.33,4.92c-0.84-0.33-1.47-0.48-2.01-0.79
		c-25.95-15.2-51.35-31.21-74.6-50.38c-3.65-3.01-7.15-6.19-10.72-9.29c-2.2-2.37-4.39-4.74-6.59-7.11
		c-0.91-1.28-1.79-2.58-2.72-3.85c-7.56-10.31-15.2-20.56-22.64-30.96c-1.22-1.71-1.55-4.05-2.29-6.11
		c0.36-0.51,0.86-0.97,1.07-1.54c2.68-7.13,5.33-14.26,7.96-21.41c0.88-2.39,1.67-4.81,2.58-7.42c-4.09-0.9-7.6-1.68-11.31-2.5
		c1.11-3.92,2.1-7.4,3.19-11.22c-3.87-0.97-7.45-1.72-10.94-2.8c-2.54-0.79-4.95-2.02-7.41-3.06c0.3-0.3,0.6-0.59,0.9-0.89
		c0.26-0.21,0.53-0.42,0.79-0.63c0,0-0.01,0.07-0.01,0.07c4.5-1.37,9.05-2.6,13.5-4.14c18.98-6.57,37.93-13.23,56.9-19.86
		c2.44,5.02,4.88,10.04,7.31,15.05c0.19,0.29,0.39,0.59,0.58,0.88c0.24,0,0.37,0.12,0.37,0.37c-0.07,0.41-0.14,0.81-0.21,1.22
		c-2.93,1.47-6.04,2.67-8.75,4.47c-11.6,7.72-23.09,15.59-34.58,23.48c-2.06,1.42-3,3.17-2.08,6.07
		c4.55,14.37,8.55,28.92,13.33,43.21c1.48,4.44,4.8,8.26,7.28,12.36c2.44,2.86,4.48,6.24,7.4,8.49
		c14.22,10.97,30.95,16.09,48.31,18.99c12.27,2.05,24.76,2.85,37.14,4.22c0.64,0.07,1.25,0.34,1.87,0.51
		c-1,1.66-1.89,3.39-3.02,4.95c-4.43,6.15-7.28,12.91-8.29,20.42C490.32,320.01,489.66,324.76,489,329.52z"/>
	<path class="st22" d="M191.29,269.96c13.79-1.74,27.6-3.37,41.36-5.32c2.15-0.31,4.1-2.06,6.14-3.14c0.85-0.98,1.7-1.96,2.55-2.95
		c0.49-0.6,0.98-1.19,1.47-1.79c0.83-1,1.66-1.99,2.49-2.99c0.75-0.85,1.5-1.71,2.25-2.56c3.49-4.13,6.97-8.26,10.46-12.4
		c0.25-0.34,0.51-0.68,0.76-1.02c0.29-0.43,0.59-0.86,0.88-1.29c4.8-5.39,9.65-10.73,14.38-16.18c3.63-4.17,7.09-8.48,10.7-12.67
		c0.67-0.77,1.56-1.45,2.49-1.89c10.31-4.95,20.65-9.84,30.97-14.75c-0.81,7.04-1.61,14.08-2.47,21.55
		c2.42-0.22,4.01-0.22,5.53-0.53c5.32-1.06,6.31-0.31,6.42,5.11c0.02,0.79,0.12,1.6-0.02,2.37c-0.58,3.31,1.25,4.27,4.12,4.82
		c4.63,0.87,9.19,2.1,13.78,3.17c-0.39,10.96-2.94,21.46-6.61,31.74c-0.84-0.7-2.05-1.22-2.47-2.12
		c-6.22-13.43-15.77-24.12-27.24-33.22c-2.49-1.97-5.3-3.54-7.53-5.01c-8.22,12.18-15.78,24.01-24.03,35.35
		c-4.53,6.22-9.69,12.22-15.52,17.22c-12.23,10.47-26.8,16.99-41.81,22.55c-3.98,1.47-7.77,3.44-11.65,5.18
		c-0.5,0.07-1,0.15-1.5,0.22c-0.27,0.06-0.53,0.12-0.8,0.17l-0.23,0.15c0,0-0.27-0.06-0.27-0.06c-0.88,0.2-1.77,0.39-2.65,0.59
		c-2.11,0.43-4.22,0.87-6.33,1.3c-0.09-2.92-0.18-5.84-0.26-8.77c-0.13-6.17-2.17-11.5-6.87-15.67c-1.62-2.19-3.25-4.39-4.87-6.58
		c1.63-0.14,3.27-0.29,4.9-0.43C190.29,270.08,190.79,270.02,191.29,269.96z"/>
	<path class="st2" d="M226.98,263.1c-1.24-0.26-2.48-0.74-3.72-0.75c-12.81-0.06-25.61-0.03-38.42-0.03c-3.38,0-6.77,0-10.15,0
		c-2.96-15.38-5.93-30.75-8.86-46.13c-0.69-3.62-1.22-7.26-1.83-10.9c3.1,2.59,6.23,5.14,9.28,7.79c1.58,1.38,2.99,2.96,4.51,4.41
		c4.27,4.08,7.92,9.85,13.01,11.73c5.56,2.06,12.45,0.5,18.77,0.52c6.82,0.08,13.64,0.16,20.46,0.25c2.93,3.53,3.57,7.62,3.32,12.08
		c-0.23,4.05,0.14,8.13-0.12,12.17c-0.15,2.41-1.01,4.78-1.55,7.16C230.11,261.97,228.54,262.54,226.98,263.1z"/>
	<path class="st23" d="M323.72,172.88c-10.98-1.74-13.61-10.17-14.93-19.2c-1.31-8.99,1.09-17.23,6.73-24.44
		c7.78-9.97,18.93-12.22,29.84-5.85c2.36,1.38,4.4,2.3,7.29,1.49c3.35-0.94,5.83,0.8,7.28,3.95c2.59,5.6,1.23,10.82-3.7,14.12
		c-3.74-0.89-7.46-1.95-11.25-2.59c-1.36-0.23-4.14,0.51-4.15,0.84c-0.07,5.71-4.09,8.12-8.3,10.45c0,0-0.01,0-0.01,0
		c-0.56,0.21-1.11,0.43-1.67,0.64c-1.7,1.3-3.58,2.44-5.06,3.95c-1.31,1.34-2.42,3.01-3.21,4.72c-0.87,1.89-2.14,4.25-1.63,5.92
		c0.53,1.73,2.09,4.41,5.28,3.14c0.36-0.14,1.13,0.75,1.72,1.16c0.31,0.53,0.63,1.07,0.95,1.6
		C327.19,172.81,325.46,172.84,323.72,172.88z"/>
	<path class="st24" d="M407.56,257.67c-2.48-4.1-5.8-7.93-7.28-12.36c-4.78-14.29-8.79-28.84-13.33-43.21
		c-0.92-2.9,0.02-4.66,2.08-6.07c11.48-7.89,22.98-15.76,34.58-23.48c2.71-1.8,5.82-3,8.75-4.47c0.46,0.28,0.93,0.57,1.39,0.85
		c0.23,0.12,0.31,0.3,0.24,0.55c1.7,6.63,3.37,13.27,5.13,19.89c0.18,0.69,0.88,1.24,1.33,1.86c-1.4,4.9-0.43,9.51,1.72,13.97
		c-3.21,1.18-5.37,0.02-5.82-3.23c-1.09-7.92-2.1-15.84-3.2-23.76c-0.23-1.66-0.68-3.29-1.17-5.6c-4.1,3.35-7.86,6.3-11.49,9.4
		c-7.8,6.66-15.49,13.43-23.31,20.06c-2.29,1.94-2.32,4.04-1.65,6.71C399.6,225.06,403.56,241.37,407.56,257.67z"/>
	<path class="st25" d="M416.46,324.06c5.49,1.69,11.03,3.23,16.45,5.1c12.52,4.32,24.88,9.11,37.5,13.09
		c7.33,2.31,15.02,3.81,22.69,0.82c-1.38,4.38-5.27,5.56-8.96,5.96c-6,0.66-12.16,1.14-18.12,0.49c-8.76-0.95-17.4-2.98-26.09-4.53
		c-0.9-0.16-1.82-0.23-2.73-0.34c-2.76-1.12-5.48-2.34-8.28-3.34C420.78,338.42,417.26,332.23,416.46,324.06z"/>
	<path class="st6" d="M433.98,169.48c0.07-0.25-0.01-0.43-0.24-0.55c-0.39-0.69-0.79-1.38-1.18-2.07c0-0.24-0.13-0.37-0.37-0.37
		c-0.19-0.29-0.39-0.59-0.58-0.89c-2.44-5.02-4.87-10.03-7.31-15.05c4.4-8.35,8.73-16.73,13.23-25.03c1.79-3.29,3.95-6.38,5.94-9.56
		c0.53,1.27,1.07,2.53,1.6,3.8c-4.85,8.89-9.63,17.82-14.6,26.65c-1.54,2.73-1.51,5.08,0.03,7.76c2.35,4.11,4.51,8.33,6.66,12.55
		c9.57,18.77,19.06,37.59,28.75,56.3c1.09,2.1,2.93,4.3,4.98,5.31c8.74,4.3,17.65,8.24,26.56,12.19c4.79,2.12,9.7,3.97,14.56,5.94
		c1.03,1.92,2.05,3.84,3.08,5.76c-4.24-1.7-8.53-3.26-12.69-5.13c-11.66-5.24-23.29-10.55-34.87-15.99c-1.41-0.66-2.7-2.05-3.5-3.43
		c-2.64-4.55-5.02-9.24-7.51-13.88c-4.32-8.47-8.64-16.93-12.97-25.4C440.37,182.08,437.17,175.78,433.98,169.48z"/>
	<path class="st26" d="M445.07,119.76c-0.53-1.27-1.07-2.53-1.6-3.8c2.78,0.38,5.59,0.57,8.32,1.17c6.44,1.4,12.9,2.81,19.23,4.61
		c1.76,0.5,3.8,2.06,4.58,3.68c13.28,27.42,26.39,54.92,39.47,82.44c0.71,1.49,1.1,3.26,1.11,4.91c0.09,12,0.08,24.01,0,36.01
		c-0.01,1.15-0.72,2.29-1.1,3.44c-1.02-1.92-2.05-3.84-3.08-5.75c-0.12-11.86-0.25-23.73-0.37-35.59c-0.03-0.26,0.02-0.55-0.09-0.78
		c-13.07-27.47-26.15-54.93-39.29-82.36c-0.45-0.94-1.5-1.96-2.46-2.22c-2.91-0.78-5.91-1.21-8.88-1.78
		C455.64,122.41,450.36,121.09,445.07,119.76z"/>
	<path class="st6" d="M231.67,261.41c0.54-2.39,1.39-4.75,1.55-7.16c0.26-4.04-0.11-8.13,0.12-12.17c0.25-4.46-0.39-8.55-3.32-12.08
		c7.35-0.05,14.71-0.09,22.06-0.15c4.54-0.04,6.45,2.85,7.56,6.67c-0.29,0.43-0.59,0.86-0.88,1.29c-0.25,0.34-0.51,0.68-0.76,1.02
		c-3.49,4.13-6.97,8.26-10.46,12.4c-0.75,0.85-1.5,1.71-2.25,2.56c-0.83,1-1.66,1.99-2.49,2.99c-0.49,0.6-0.98,1.19-1.47,1.79
		c-0.85,0.98-1.7,1.96-2.55,2.95C236.42,261.68,233.99,265.63,231.67,261.41z"/>
	<path class="st23" d="M416.46,324.06c0.8,8.17,4.32,14.36,12.47,17.26c2.8,1,5.52,2.22,8.28,3.34c0.28,6.17,0.54,12.34,0.84,18.5
		c0.15,3.08-0.67,5.38-4.08,6.21c-3.34,0.81-4.34-1.39-5.51-3.72c-2.94-5.88-5.85-11.78-9.05-17.51c-1.28-2.3-3.35-4.15-4.97-6.27
		c-0.62-0.8-1.14-1.75-1.44-2.71c-1.1-3.51-1.92-7.11-3.15-10.58c-1.09-3.09-0.83-5.33,2.66-6.37c0,0-0.01-0.07-0.01-0.07
		C413.82,322.79,415.14,323.42,416.46,324.06z"/>
	<path class="st24" d="M345.54,227.52c-4.59-1.08-9.15-2.3-13.78-3.17c-2.87-0.54-4.7-1.5-4.12-4.82c0.13-0.77,0.03-1.58,0.02-2.37
		c-0.11-5.42-1.1-6.17-6.42-5.11c-1.52,0.3-3.1,0.31-5.53,0.53c0.86-7.47,1.66-14.51,2.47-21.55c1.2-0.89,2.41-1.78,3.61-2.67
		c1.59,2.19,3.17,4.37,4.76,6.56c0.88,1.4,1.58,2.97,2.68,4.17c5.45,5.97,11.01,11.85,16.53,17.76
		C345.69,220.4,345.61,223.96,345.54,227.52z"/>
	<path class="st10" d="M327.98,171.17c-0.58-0.41-1.36-1.31-1.72-1.16c-3.19,1.28-4.76-1.4-5.28-3.14
		c-0.51-1.67,0.76-4.03,1.63-5.92c0.79-1.71,1.89-3.37,3.21-4.72c1.48-1.52,3.35-2.65,5.06-3.95c0.56-0.21,1.11-0.43,1.67-0.64
		c0,0,0.01,0,0.01,0c3.35-1.77,6.65-3.61,10.06-5.27c1.41-0.69,3.07-1.45,4.54-1.32c3.06,0.26,6.08,1.09,9.12,1.68
		c0.22,4.48,0.44,8.95,0.66,13.43c-7.07,2.23-14.17,1.89-21.29,0.26c-2.88-0.47-5.75-0.95-8.63-1.42c-0.05,0.38-0.1,0.75-0.15,1.13
		c1.49,0.41,3.05,0.67,4.45,1.3c0.81,0.36,1.89,1.28,1.93,2c0.21,3.31,0.09,6.63,0.09,10.44
		C330.96,172.67,329.47,171.92,327.98,171.17z"/>
	<path class="st24" d="M490.98,315.26c1.01-7.52,3.86-14.28,8.29-20.42c1.13-1.56,2.02-3.3,3.02-4.95c4.47,0.46,5.09,4.25,5.2,7.29
		c0.24,6.55-0.27,13.14-0.72,19.69c-0.05,0.67-1.96,1.89-2.77,1.72C499.61,317.67,495.31,316.4,490.98,315.26z"/>
	<path class="st3" d="M335.64,160.42c7.12,1.62,14.22,1.97,21.29-0.26c0.42,5.09-0.31,9.95-3.02,14.39c0,0,0.01-0.07,0.01-0.07
		c-0.26,0.21-0.53,0.42-0.79,0.63c-0.3,0.3-0.6,0.59-0.9,0.89c-0.53,0-1.06,0-1.58,0c-3.52-2.43-6.54-6.04-11.59-4.89
		c-0.14,0.03-0.36-0.31,0.04,0.06c-0.25-2.06-0.17-3.54-0.64-4.82C337.71,164.3,336.6,162.39,335.64,160.42z M349.15,171.4
		c-0.02,0.21-0.04,0.42-0.06,0.63c0.52-0.09,1.04-0.18,1.56-0.27c-0.02-0.12-0.04-0.24-0.05-0.36
		C350.12,171.4,349.64,171.4,349.15,171.4z"/>
	<path class="st10" d="M443.56,188.38c4.32,8.47,8.64,16.94,12.97,25.4c-8.56,0.83-9.91,0.02-13.39-8c-0.12-0.28-0.64-0.4-0.97-0.59
		c-2.14-4.47-3.11-9.07-1.71-13.98C441.48,190.27,442.52,189.33,443.56,188.38z"/>
	<path class="st3" d="M326.56,194.91c-1.59-2.18-3.18-4.37-4.76-6.55c0.69-3.48,1.39-6.96,2.08-10.44
		c3.59,6.81,9.84,9.08,16.94,9.91c-0.62,1.06-1.24,2.11-1.85,3.17c-0.89,1.1-1.77,2.19-2.66,3.29c-0.65,1.77-1.31,3.53-2.07,5.57
		C331.47,198.08,329.01,196.5,326.56,194.91z"/>
	<path class="st10" d="M340.81,187.83c-7.1-0.83-13.35-3.1-16.94-9.91c-0.05-1.68-0.1-3.36-0.15-5.04c1.73-0.04,3.47-0.07,5.2-0.11
		c1.35,1.06,2.71,2.11,4.06,3.17c4.06,3.33,8.12,6.67,12.18,10c-0.67,0.64-1.34,1.28-2.01,1.92
		C342.37,187.85,341.59,187.84,340.81,187.83z"/>
	<path class="st27" d="M392.56,441.99c-3.6-0.09-6.89-3.38-6.85-6.84c0.04-3.7,3.45-7.19,7.02-7.19c3.7,0,7.1,3.46,7.03,7.14
		C399.69,438.88,396.34,442.08,392.56,441.99z"/>
	<path class="st27" d="M440.45,435.22c0.01-3.58,3.54-7.24,6.98-7.26c3.72-0.02,7.08,3.38,7.04,7.1c-0.05,3.8-3.33,6.99-7.13,6.92
		C443.76,441.92,440.44,438.67,440.45,435.22z"/>
	<path class="st27" d="M495.3,387.21c0.43-3.91,4.1-6.68,8.18-6.16c3.78,0.48,6.16,3.67,5.72,7.66c-0.42,3.78-3.55,6.17-7.58,5.8
		C497.91,394.17,494.92,390.71,495.3,387.21z"/>
	<path class="st27" d="M392.83,381.02c4.12,0.03,7.04,2.94,6.93,6.9c-0.1,3.74-3.37,6.7-7.29,6.6c-3.52-0.09-6.79-3.37-6.77-6.79
		C385.73,383.76,388.67,380.99,392.83,381.02z"/>
	<path class="st27" d="M393.04,404.75c4.08,0.1,6.84,2.84,6.73,6.69c-0.1,3.63-3.31,6.82-6.84,6.81c-3.87-0.01-7.32-3.3-7.21-6.9
		C385.83,407.3,388.76,404.65,393.04,404.75z"/>
	<path class="st27" d="M447.56,404.75c4.15,0.03,6.91,2.63,6.91,6.5c0,3.84-3.27,7.09-7.02,7c-3.69-0.09-6.98-3.23-7-6.7
		C440.42,407.54,443.37,404.72,447.56,404.75z"/>
	<path class="st27" d="M426.86,434.91c0.04,4.12-2.53,6.98-6.34,7.08c-4.26,0.11-7.13-2.57-7.18-6.69c-0.05-3.9,3.16-7.34,6.81-7.3
		C423.68,428.04,426.83,431.28,426.86,434.91z"/>
	<path class="st27" d="M447.66,394.53c-3.81,0.06-7.25-3.18-7.21-6.81c0.03-3.46,3.34-6.66,6.93-6.7c4.16-0.04,7.13,2.81,7.09,6.81
		C454.43,391.7,451.62,394.47,447.66,394.53z"/>
	<path class="st27" d="M287.94,172.77c4.03-0.01,6.99,2.68,7.06,6.42c0.07,3.75-3.24,7.08-7.03,7.07c-3.81-0.01-7.04-3.28-7-7.06
		C281.01,175.39,283.84,172.78,287.94,172.77z"/>
	<path class="st27" d="M233.15,172.76c4.06-0.03,7.01,2.6,7.13,6.36c0.12,3.74-3.17,7.11-6.97,7.13c-3.82,0.02-7.08-3.21-7.07-7
		C226.24,175.43,229.06,172.79,233.15,172.76z"/>
	<path class="st27" d="M287.82,125.31c3.81-0.05,7.22,3.23,7.15,6.87c-0.07,3.53-3.34,6.65-6.97,6.66
		c-4.01,0.01-6.83-2.61-7.01-6.51C280.79,128.25,283.6,125.37,287.82,125.31z"/>
	<path class="st27" d="M260.25,149.04c4.12-0.08,7,2.45,7.14,6.26c0.16,4.1-2.68,7.2-6.64,7.26c-3.9,0.06-7.35-3.11-7.36-6.74
		C253.39,152.33,256.65,149.1,260.25,149.04z"/>
	<path class="st27" d="M426.87,387.9c-0.04,4.01-2.65,6.59-6.67,6.63c-4.16,0.04-6.94-2.76-6.86-6.91c0.07-4.09,2.9-6.69,7.18-6.6
		C424.52,381.1,426.91,383.69,426.87,387.9z"/>
	<path class="st27" d="M481.61,387.76c-0.06,4.2-2.82,6.87-6.98,6.77c-3.97-0.1-6.57-2.8-6.55-6.8c0.02-4.13,2.76-6.74,7.04-6.71
		C479.15,381.05,481.66,383.66,481.61,387.76z"/>
	<path class="st27" d="M287.99,149.04c3.64,0.01,6.86,3.06,6.97,6.62c0.12,3.64-3.24,6.89-7.14,6.9c-3.68,0.01-6.92-3.37-6.84-7.15
		C281.04,151.62,283.89,149.03,287.99,149.04z"/>
	<path class="st27" d="M426.87,411.25c0.03,4.26-2.61,7-6.75,7.01c-3.98,0-6.7-2.64-6.78-6.58c-0.09-4.15,2.6-6.88,6.83-6.92
		C424.28,404.71,426.84,407.19,426.87,411.25z"/>
	<path class="st27" d="M260.64,172.76c4.03,0.07,6.79,2.77,6.75,6.59c-0.04,3.77-3.3,6.95-7.1,6.91c-3.52-0.04-6.9-3.36-6.89-6.78
		C253.41,175.88,256.85,172.69,260.64,172.76z"/>
	<path class="st27" d="M474.91,404.76c4.12-0.04,6.7,2.49,6.69,6.57c-0.01,4.1-2.55,6.81-6.5,6.92c-3.64,0.1-6.92-2.94-7.03-6.52
		C467.96,407.55,470.65,404.8,474.91,404.76z"/>
	<path class="st28" d="M356.27,146.73c-3.04-0.6-6.05-1.42-9.12-1.68c-1.47-0.13-3.13,0.64-4.54,1.32c-3.4,1.65-6.71,3.5-10.06,5.27
		c4.2-2.33,8.22-4.74,8.29-10.45c0-0.33,2.79-1.07,4.15-0.84c3.79,0.64,7.5,1.7,11.25,2.59
		C356.25,144.21,356.26,145.47,356.27,146.73z"/>
	<path class="st25" d="M412.49,322.15c0,0,0.01,0.07,0.01,0.07c-0.4-0.41-0.79-0.82-1.19-1.23
		C411.71,321.37,412.1,321.76,412.49,322.15z"/>
	<path class="st21" d="M377.09,286.04c2.77,21.4-4.52,40.2-15.03,58.18c-11.04,18.89-24.65,35.8-39.79,51.97
		c-6.29-4.27-12.79-7.65-20.57-7.07c-4.02,0.87-8.1,1.53-12.04,2.68c-2.84,0.83-5.49,2.29-8.23,3.47c2.14-2.42,4.24-4.88,6.44-7.25
		c2.93-3.15,5.95-6.21,8.93-9.31c2.05-1.93,4.22-3.75,6.13-5.81c14.6-15.74,26.6-33.17,34.42-53.27c1.03-2.65,1.47-5.53,2.19-8.3
		c0,0-0.01,0.02-0.01,0.02c0.28-0.23,0.57-0.46,0.85-0.68c0.55-1.03,1.28-2.01,1.61-3.1c3.15-10.44,6.52-20.81,9.25-31.36
		c3.97-15.33,5.45-31.02,5.55-46.84c1.2,1.37,2.76,2.55,3.54,4.13c3.31,6.73,6.83,13.41,9.41,20.43c2.62,7.14,4.22,14.64,6.26,21.99
		C376.36,279.3,376.73,282.67,377.09,286.04z"/>
	<path class="st6" d="M307.93,363.2c-7.04-24.11-21.15-43.26-41.18-58.2c-1.25-0.93-3.13-1.36-4.74-1.43
		c-4.07-0.2-8.17-0.06-12.25-0.07c-7.11-0.03-10.02-2.56-11.04-9.59c2.02-0.51,4-1.25,6.05-1.5c6.28-0.79,11.65-2.82,15.98-7.95
		c3.84-4.56,8.66-8.3,13.04-12.4c0.09,3.25,0.18,6.5,0.26,9.74c-0.92,3.68,0.37,5.62,3.82,7.74c8.14,5.02,16.07,10.53,23.45,16.6
		c9.99,8.22,16.89,19.09,23.57,30.03c-3.71,6.59-7.3,13.26-11.2,19.74C312.12,358.55,309.87,360.78,307.93,363.2z"/>
	<path class="st2" d="M188.97,401.04c20.19-0.03,40.37-0.05,60.56-0.13c1.67-0.01,3.35-0.42,5.02-0.65c1.17,0.39,2.33,1.1,3.5,1.12
		c5.8,0.1,11.61,0.02,17.41,0.01c-2.59,6.26-4.41,12.62-2.88,19.48c-5.17,0.1-10.33,0.21-15.5,0.32c-0.85,0.09-1.7,0.19-2.54,0.28
		c-22.11-0.06-44.23-0.11-66.34-0.17C188.46,414.54,188.71,407.79,188.97,401.04z"/>
	<path class="st24" d="M273.79,272.05c-4.38,4.1-9.2,7.84-13.04,12.4c-4.33,5.13-9.69,7.16-15.98,7.95
		c-2.05,0.26-4.04,0.99-6.05,1.5c-4.63,0.9-9.25,1.81-13.88,2.72c-5.39,0.86-10.78,1.73-16.17,2.59c3.88-1.74,7.67-3.71,11.65-5.18
		c15.01-5.56,29.59-12.08,41.81-22.55c5.83-4.99,10.99-11,15.52-17.22c8.25-11.33,15.81-23.17,24.03-35.35
		c2.23,1.47,5.04,3.04,7.53,5.01c11.47,9.1,21.02,19.8,27.24,33.22c0.41,0.89,1.63,1.42,2.47,2.11c-1.86,4.54-3.72,9.08-5.58,13.62
		c-0.36-0.69-0.77-1.36-1.06-2.07c-4.76-11.95-11.82-22.19-21.97-30.26c-2.25-1.79-3.69-2.06-5.91,0.21
		c-9.39,9.62-18.99,19.02-28.49,28.54C275.1,270.1,274.5,271.13,273.79,272.05z"/>
	<path class="st24" d="M272.58,420.87c-1.53-6.86,0.29-13.23,2.88-19.48c1.99-2.03,3.98-4.07,5.97-6.1
		c2.73-1.18,5.38-2.65,8.22-3.47c3.94-1.15,8.02-1.81,12.04-2.68c-8.48,12.16-16.95,24.32-25.43,36.48
		C275.04,424.03,273.81,422.45,272.58,420.87z"/>
	<path class="st24" d="M307.93,363.2c1.95-2.42,4.19-4.65,5.78-7.28c3.9-6.48,7.49-13.15,11.2-19.74c0.78-2.42,1.55-4.84,2.33-7.26
		c0.6-0.44,1.57-0.77,1.76-1.35c1.5-4.57,2.86-9.18,4.26-13.79c2.1-0.81,4.19-1.62,6.29-2.43c-0.72,2.77-1.16,5.65-2.19,8.3
		c-7.82,20.09-19.81,37.53-34.42,53.27c-1.91,2.06-4.08,3.88-6.13,5.81c2.91-3.84,5.85-7.66,8.7-11.54
		C306.43,365.94,307.13,364.53,307.93,363.2z"/>
	<path class="st2" d="M174.26,492.67c0.27-0.58,0.53-1.16,0.8-1.74c1.78,0.33,3.56,0.95,5.34,0.95c21.92,0.08,43.84,0.07,65.77,0.08
		c-0.17,1.02-0.33,2.04-0.5,3.07c-0.07,0.33-0.15,0.65-0.22,0.98c-0.18,1.03-0.36,2.06-0.54,3.08c-1.14,6.54-2.27,13.08-3.41,19.61
		c-7.48-1.85-15.31-2.84-22.36-5.74C203.97,506.73,189.2,499.5,174.26,492.67z"/>
	<path class="st11" d="M183.37,436.95c-0.66,0.58-1.56,1.04-1.94,1.77c-8.36,16.02-21.26,28.09-34.63,39.74
		c-3.47,3.03-7.12,5.86-10.69,8.78c-3.81,2.09-7.62,4.18-11.43,6.26c0.73-0.92,1.42-1.86,2.18-2.74
		c10.28-11.84,21.08-23.26,30.73-35.59c13.39-17.1,24.35-35.72,30.79-56.68c0.18,0,0.36,0,0.54,0.02c0.01,0.84,0.03,1.68,0.04,2.53
		c-0.25,6.75-0.51,13.5-0.76,20.26C186.59,426.51,184.98,431.73,183.37,436.95z"/>
	<path class="st23" d="M245.66,495.03c0.17-1.02,0.33-2.04,0.5-3.07c0.27-0.19,0.53-0.38,0.8-0.57c4.12,2.7,8.44,4.01,13.98,0.69
		c-0.24,3.61-0.4,6.1-0.57,8.59c0.14,1.56,0.31,3.12,0.43,4.68c0.41,5.47,1.6,10.49,7.47,12.78c0.11,0.97,0.22,1.95,0.34,2.92
		c-8.59-0.32-17.18-0.63-25.77-1.03c-0.46-0.02-0.88-0.86-1.33-1.32c1.14-6.54,2.27-13.08,3.41-19.62c0.18-1.03,0.36-2.06,0.54-3.08
		C245.52,495.69,245.59,495.36,245.66,495.03z"/>
	<path class="st16" d="M188.38,398.5c-6.44,20.96-17.41,39.57-30.79,56.68c-9.65,12.33-20.45,23.75-30.73,35.59
		c-0.77,0.88-1.46,1.83-2.18,2.74c0,0,0.05-0.03,0.05-0.03c-0.28,0.28-0.57,0.56-0.85,0.83c0,0,0.05-0.05,0.05-0.05
		c-0.3,0.35-0.6,0.7-0.9,1.05c-1.76,0.81-3.52,1.62-5.29,2.43c-0.01-0.55-0.01-1.11-0.02-1.66c15.5-13.98,29.13-29.63,41.35-46.51
		c8.59-11.86,16.1-24.36,21.94-37.81c0.4-0.93,0.56-1.97,0.82-2.97c0,0-0.05,0.03-0.05,0.03c0.36-0.55,0.71-1.09,1.07-1.64
		c0.49-1.8,0.97-3.6,1.46-5.4c0.84-1.24,1.63-2.52,2.57-3.68C187.02,397.93,187.87,398.35,188.38,398.5z"/>
	<path class="st14" d="M268.59,521.06c-0.11-0.97-0.22-1.95-0.34-2.92c7.44,0.03,14.88,0.06,22.32,0.09
		c-2.42,0.56-4.82,1.35-7.28,1.62C278.42,520.4,273.5,520.67,268.59,521.06z"/>
	<path class="st11" d="M123.88,494.31c0.28-0.28,0.57-0.55,0.85-0.83C124.45,493.75,124.16,494.03,123.88,494.31z"/>
	<path class="st11" d="M123.03,495.31c0.3-0.35,0.6-0.7,0.9-1.05C123.63,494.61,123.33,494.96,123.03,495.31z"/>
	<path class="st12" d="M292.85,456.27c4.44-5.23,8.89-10.45,13.31-15.7c2.54-3.01,5.03-6.06,7.54-9.09
		c3.27,7.06,8.35,12.37,16.04,14.08c7.4,1.64,14.62,0.39,20.97-4.47c0.36,0.81,0.63,1.14,0.64,1.48c0.3,8.15,0.76,16.3,0.78,24.45
		c0.02,7.23-0.55,14.45-0.68,21.68c-0.05,2.74-1.41,3.26-3.76,3.25c-24.42-0.06-48.83-0.07-73.25-0.09
		c7.35-11.47,15.57-22.45,20.69-35.59C294.13,456.27,293.49,456.27,292.85,456.27z"/>
	<path id="Leg_White" class="st14" d="M261.26,492.32c-5.54,3.32-9.85,2.01-13.97-0.69c0.2-2.72,0.41-5.44,0.61-8.15
		c0.45-2,0.9-4,1.35-6c8.13,1.85,15.59,7.12,15.42,11.71c0,0.1,0.37,0.16-0.04,0.51C263.7,490.52,261.25,492.41,261.26,492.32z"/>
	<path class="st12" d="M322.06,420.5c2.56-3.12,5.13-6.24,7.69-9.36c0.78-0.09,1.58-0.1,2.34-0.27c8.1-1.76,14.51,2.42,16.02,10.48
		c0.99,5.26-4,12.6-9.2,13.53c-8.62,1.54-14.78-2.77-15.96-11.11C322.81,422.66,322.37,421.59,322.06,420.5z"/>
	<path class="st6" d="M338.68,399.96c2-2.43,3.99-4.85,5.99-7.28c0.67,2.74,1.34,5.48,2.21,9.06
		C343.74,401.05,341.21,400.5,338.68,399.96z"/>
	<path class="st18" d="M144.99,423.82c-0.08,0.55-0.15,1.11-0.23,1.66C144.84,424.93,144.92,424.38,144.99,423.82z"/>
	<path class="st19" d="M565.19,162.62c-4.22-0.01-7.56-3.24-7.52-7.26c0.04-3.71,3.93-7.76,7.49-7.8c4.36-0.05,7.56,3.21,7.6,7.74
		C572.8,160.21,570.29,162.63,565.19,162.62z"/>
	<path class="st19" d="M530.65,144.37c1.78-0.41,4.02-1.64,5.22-0.98c1.19,0.66,1.34,3.21,1.95,4.93c-1.69,0.61-3.53,1.96-5.05,1.66
		C529.78,149.38,530.84,146.48,530.65,144.37z"/>
	<path class="st19" d="M544.33,168.06c-1.57-2.36-3.37-3.9-3.13-4.99c0.31-1.41,2.26-2.46,3.5-3.66c1.14,1.31,2.99,2.51,3.19,3.95
		C548.04,164.46,546.1,165.84,544.33,168.06z"/>
	<path class="st19" d="M538.91,132.49c-5.02-0.01-7.41-2.27-7.44-7.04c-0.03-4.56,3.13-7.9,7.51-7.92c3.53-0.02,7.54,4.11,7.56,7.79
		C546.56,129.31,543.16,132.51,538.91,132.49z"/>
	<path class="st19" d="M557.43,142.01c-1.27,0.78-2.74,2.41-3.75,2.16c-1.49-0.37-2.65-2.08-3.95-3.21c1.2-1.23,2.3-3.29,3.64-3.46
		c1.24-0.15,2.73,1.71,4.11,2.69C557.46,140.79,557.45,141.4,557.43,142.01z"/>
	<path class="st19" d="M573.21,125.03c-1.33,0.9-2.85,2.7-3.94,2.47c-1.41-0.3-2.47-2.22-3.69-3.44c1.16-1.14,2.28-3.14,3.49-3.2
		c1.36-0.07,2.81,1.62,4.23,2.54C573.27,123.94,573.24,124.48,573.21,125.03z"/>
	<path class="st28" d="M189.77,277.15c4.69,4.17,6.74,9.5,6.87,15.67c-4.16,0.68-8.31,1.36-12.47,2.03
		c-0.48-0.02-0.96-0.04-1.44-0.05c-0.27-1.68-0.66-3.35-0.75-5.04c-0.05-0.94,0.2-2.63,0.63-2.74c4.82-1.23,3.21-4.5,2.58-7.49
		c-0.11-0.51-0.12-1.04-0.17-1.56C186.59,277.7,188.18,277.43,189.77,277.15z"/>
	<path class="st29" d="M184.16,294.86c4.16-0.68,8.31-1.36,12.47-2.03c0.09,2.92,0.18,5.84,0.26,8.76
		C191.49,301.53,186.9,299.94,184.16,294.86z"/>
	<path class="st24" d="M203.22,300.29c0.88-0.2,1.76-0.4,2.65-0.59C204.99,299.89,204.11,300.09,203.22,300.29z"/>
	<path class="st24" d="M206.37,299.6c0.27-0.06,0.53-0.12,0.8-0.17C206.91,299.49,206.64,299.55,206.37,299.6z"/>
	<path class="st19" d="M630.52,115.93c4.67-0.25,5.4,1.87,5.63,4.43c0.27,2.95-1.63,4.01-4.06,4.14c-2.8,0.15-4.8-1.63-4.46-4.21
		C627.86,118.46,629.85,116.87,630.52,115.93z"/>
	<path class="st3" d="M182.86,407.18c-0.36,0.55-0.71,1.09-1.07,1.64C182.15,408.27,182.51,407.72,182.86,407.18z"/>
	<path class="st19" d="M652.75,138.78c-1.64,1.29-3.15,3.4-4.94,3.66c-2.36,0.35-4.48-1.25-4.52-4.2c-0.04-2.92,1.51-5.1,4.34-4.75
		c1.81,0.22,3.39,2.24,5.08,3.45C652.72,137.56,652.74,138.17,652.75,138.78z"/>
	<path class="st19" d="M638.91,143.54c-1.09,0.44-2.27,1.38-3.24,1.2c-0.97-0.18-1.72-1.48-2.57-2.29c0.65-0.67,1.27-1.82,1.97-1.88
		c0.89-0.07,1.86,0.75,2.79,1.18C638.21,142.34,638.56,142.94,638.91,143.54z"/>
	<path class="st29" d="M189.77,277.15c-1.59,0.27-3.17,0.54-4.76,0.81c-1.27-0.66-2.55-1.32-3.82-1.97c-0.09-0.1-0.18-0.2-0.28-0.3
		c0.09-0.48,0.17-0.97,0.26-1.45c1.24-1.22,2.49-2.45,3.73-3.67C186.52,272.77,188.14,274.96,189.77,277.15z"/>
	<path class="st29" d="M177.52,276.13c-0.11-0.38-0.23-0.77-0.34-1.15c1.25,0.24,2.49,0.48,3.74,0.72c0.09,0.1,0.18,0.2,0.28,0.3
		C179.96,276.04,178.74,276.08,177.52,276.13z"/>
	<path class="st19" d="M481.76,66.7c-1.68,1.43-2.68,2.28-3.68,3.13c-0.96-1.18-2.28-2.24-2.72-3.59c-0.18-0.55,1.72-2.54,2.42-2.41
		C479.01,64.05,480.05,65.38,481.76,66.7z"/>
	<path class="st14" d="M180.91,275.7c-1.25-0.24-2.49-0.48-3.74-0.72c-0.37-1.08-1.08-2.19-0.99-3.23c0.07-0.84,1.03-2.16,1.74-2.27
		c0.87-0.13,2.27,0.56,2.74,1.32c0.56,0.91,0.37,2.27,0.5,3.44C181.08,274.73,181,275.21,180.91,275.7z"/>
	<path class="st29" d="M191.29,269.96c-0.5,0.06-1,0.12-1.49,0.18C190.3,270.08,190.79,270.02,191.29,269.96z"/>
	<path class="st19" d="M488.65,84.08c-1.5-2.34-3.12-3.76-2.91-4.82c0.24-1.16,2.04-2.45,3.38-2.77c0.65-0.16,2.58,1.82,2.53,2.75
		C491.57,80.54,490.18,81.76,488.65,84.08z"/>
	<path class="st12" d="M247.57,483.24c-0.2,2.72-0.41,5.44-0.61,8.15c-0.27,0.19-0.53,0.38-0.8,0.57c-21.92-0.01-43.84,0-65.77-0.08
		c-1.78-0.01-3.56-0.62-5.34-0.95c-2.37-10.92,4.94-20.31,16.05-20.38c15.59-0.1,31.18-0.06,46.77,0.02
		c2.21,0.01,4.42,0.63,6.63,0.96C240.15,477.2,241.39,481.94,247.57,483.24z"/>
	<path class="st23" d="M377.09,286.04c-0.36-3.37-0.73-6.74-1.09-10.11c6.25-3.03,12.5-6.05,18.76-9.07
		c2.2,2.37,4.39,4.74,6.59,7.11C393.26,277.99,385.17,282.02,377.09,286.04z"/>
	<path class="st30" d="M271.57,432.46c-4.83-3.76-9.65-7.52-14.48-11.28c5.17-0.1,10.33-0.21,15.5-0.31
		c1.23,1.58,2.46,3.16,3.69,4.74C274.7,427.89,273.13,430.18,271.57,432.46z"/>
	<path class="st9" d="M394.76,266.86c-6.25,3.02-12.5,6.05-18.76,9.07c-2.04-7.34-3.64-14.85-6.26-21.99
		c-2.58-7.02-6.1-13.7-9.41-20.43c-0.77-1.57-2.34-2.76-3.54-4.13c-0.23-1.15-0.53-2.29-0.67-3.45c-1.04-8.53-2.58-16.95-7.05-24.46
		c-1.66-2.78-1.89-5.36-0.6-8.2c1.41,0.14,2.81,0.28,4.44,0.44c-0.72-3.98-1.43-7.89-2.14-11.81c1.93,1.38,3.74,2.98,5.81,4.1
		c5.09,2.73,6.69,6.94,7.09,12.55c0.66,9.16,2.23,18.26,3.42,27.39c0.74,2.05,1.07,4.4,2.29,6.11c7.43,10.4,15.07,20.65,22.64,30.96
		C392.96,264.27,393.85,265.57,394.76,266.86z"/>
	<path class="st24" d="M367.1,225.94c-1.19-9.13-2.76-18.23-3.42-27.39c-0.4-5.61-2-9.82-7.09-12.55c-2.07-1.11-3.88-2.72-5.81-4.09
		c-0.86-1.43-1.72-2.86-2.58-4.3l0.1-0.13c0.32-0.2,0.63-0.4,0.95-0.61c0.47-0.29,0.93-0.58,1.4-0.88c0.53,0,1.06,0,1.58,0
		c2.47,1.04,4.87,2.27,7.41,3.06c3.48,1.08,7.07,1.83,10.94,2.8c-1.09,3.82-2.07,7.3-3.19,11.22c3.71,0.82,7.22,1.59,11.31,2.5
		c-0.9,2.61-1.7,5.03-2.58,7.42c-2.63,7.14-5.28,14.28-7.96,21.41C367.96,224.97,367.47,225.43,367.1,225.94z"/>
	<path class="st14" d="M432.56,166.85c0.39,0.69,0.79,1.38,1.18,2.07c-0.46-0.28-0.93-0.57-1.39-0.85
		C432.42,167.66,432.49,167.26,432.56,166.85z"/>
	<path class="st14" d="M431.61,165.6c0.19,0.3,0.39,0.59,0.58,0.89C432,166.19,431.8,165.9,431.61,165.6z"/>
	<path class="st1" d="M353.13,175.11c0.26-0.21,0.53-0.42,0.79-0.63C353.66,174.69,353.39,174.9,353.13,175.11z"/>
	<path class="st8" d="M333.34,272.88c1.86-4.54,3.72-9.08,5.58-13.62c3.68-10.27,6.23-20.78,6.61-31.74
		c0.07-3.56,0.15-7.12,0.23-10.68c-0.49-3.78-1.02-7.55-1.45-11.33c-0.39-3.38-1.91-5.8-5.01-7.49c-1.3-0.71-2.03-2.46-3.01-3.73
		c0.89-1.1,1.77-2.19,2.66-3.29c3.74-0.36,4.64,2.27,5.3,5.09c0.33,1.39,0.24,2.95,0.84,4.19c6.99,14.6,7.94,30.14,6.14,45.76
		c-1.87,16.27-6.93,31.79-14.48,46.38c-4.16,8.04-8.72,15.87-13.1,23.79c-0.49-0.37-1.28-0.66-1.41-1.13
		c-1.15-3.9-2.39-7.8-3.13-11.79c-0.27-1.47,0.43-3.32,1.16-4.76C324.55,289.94,328.97,281.42,333.34,272.88z"/>
	<path class="st13" d="M245.29,253.77c0.75-0.85,1.5-1.71,2.25-2.56C246.79,252.07,246.04,252.92,245.29,253.77z"/>
	<path class="st13" d="M241.34,258.56c0.49-0.6,0.98-1.19,1.47-1.79C242.32,257.36,241.83,257.96,241.34,258.56z"/>
	<path class="st13" d="M258,238.82c0.25-0.34,0.51-0.68,0.76-1.02C258.51,238.14,258.25,238.48,258,238.82z"/>
	<path class="st9" d="M350.65,176c-0.47,0.29-0.93,0.58-1.4,0.88c-0.32,0.2-0.63,0.4-0.94,0.61c0,0-0.1,0.13-0.1,0.13
		c-0.3,0.03-0.61,0.06-0.91,0.1c-4.98,1.11-9.74,0.38-14.32-1.77c-1.35-1.06-2.71-2.11-4.06-3.17c-0.31-0.53-0.63-1.07-0.94-1.6
		c1.49,0.75,2.99,1.5,5.36,2.7c0-3.81,0.12-7.13-0.09-10.44c-0.05-0.72-1.12-1.64-1.93-2c-1.4-0.62-2.96-0.89-4.45-1.3
		c0.05-0.38,0.1-0.75,0.15-1.13c2.88,0.47,5.75,0.95,8.63,1.42c0.96,1.97,2.08,3.88,2.83,5.92c0.47,1.28,0.39,2.76,0.64,4.82
		c-0.4-0.37-0.18-0.03-0.04-0.06C344.11,169.96,347.12,173.57,350.65,176z"/>
	<path class="st28" d="M332.54,151.64c-0.56,0.21-1.11,0.43-1.67,0.64C331.43,152.06,331.98,151.85,332.54,151.64z"/>
	<path class="st14" d="M443.56,188.38c-1.04,0.95-2.08,1.89-3.11,2.84c-0.46-0.61-1.15-1.17-1.33-1.85
		c-1.76-6.62-3.43-13.25-5.13-19.89C437.17,175.78,440.37,182.08,443.56,188.38z"/>
	<path class="st31" d="M445.07,119.76c5.28,1.32,10.57,2.65,15.85,3.97c-0.07,0.49-0.13,0.99-0.2,1.48
		c-4.38-0.94-8.75-1.88-13.13-2.82c-0.95,0.91-2.17,1.66-2.79,2.76c-3.8,6.78-7.21,13.79-11.27,20.4c-1.94,3.15-1.96,5.49-0.31,8.67
		c11.79,22.7,23.36,45.51,35.15,68.21c0.89,1.71,2.65,3.33,4.4,4.17c10.94,5.24,21.99,10.25,33.02,15.31
		c1.23,0.56,2.58,0.88,4.48,1.52c-0.11-1.86-0.17-2.98-0.23-4.11c0.03-9.23,0.06-18.45,0.09-27.68c0.5-0.26,1.01-0.52,1.51-0.78
		c0.12,11.86,0.25,23.73,0.37,35.59c-4.86-1.97-9.77-3.82-14.56-5.94c-8.91-3.94-17.83-7.88-26.56-12.19
		c-2.05-1.01-3.89-3.21-4.98-5.31c-9.69-18.71-19.18-37.53-28.75-56.3c-2.15-4.22-4.31-8.44-6.66-12.55
		c-1.54-2.68-1.56-5.03-0.03-7.76C435.44,137.58,440.22,128.65,445.07,119.76z"/>
	<path class="st32" d="M511.64,210.87c-0.5,0.26-1.01,0.52-1.51,0.78c-11.91-24.82-23.97-49.57-35.64-74.51
		c-2.82-6.04-5.62-11.23-13.18-11.43c-0.2-0.01-0.39-0.32-0.59-0.5c0.07-0.49,0.13-0.99,0.2-1.48c2.97,0.57,5.97,0.99,8.88,1.78
		c0.96,0.26,2.01,1.28,2.46,2.22c13.14,27.43,26.22,54.9,39.29,82.36C511.66,210.31,511.62,210.61,511.64,210.87z"/>
	<path class="st9" d="M336.29,194.29c0.99,1.28,1.72,3.02,3.01,3.73c3.1,1.69,4.62,4.11,5.01,7.49c0.44,3.78,0.96,7.55,1.45,11.33
		c-5.52-5.91-11.08-11.78-16.53-17.75c-1.1-1.2-1.79-2.77-2.68-4.17c2.45,1.58,4.91,3.17,7.67,4.95
		C334.98,197.82,335.64,196.05,336.29,194.29z"/>
	<path class="st9" d="M349.15,171.4c0.48,0,0.97,0,1.45,0c0.02,0.12,0.04,0.24,0.05,0.36c-0.52,0.09-1.04,0.18-1.56,0.27
		C349.11,171.82,349.13,171.61,349.15,171.4z"/>
	<path class="st7" d="M323.66,316.21c4.38-7.92,8.94-15.75,13.1-23.79c7.55-14.59,12.6-30.11,14.48-46.38
		c1.8-15.62,0.85-31.16-6.14-45.76c-0.6-1.25-0.51-2.8-0.84-4.19c-0.66-2.82-1.56-5.45-5.3-5.09c0.62-1.06,1.23-2.11,1.85-3.17
		c0.78,0.01,1.56,0.01,2.35,0.02c1.78,1.81,3.55,3.61,5.33,5.42c-1.29,2.84-1.06,5.42,0.6,8.2c4.47,7.51,6.01,15.92,7.05,24.46
		c0.14,1.16,0.44,2.3,0.67,3.45c-0.1,15.82-1.58,31.51-5.55,46.84c-2.73,10.55-6.11,20.92-9.25,31.36c-0.33,1.1-1.07,2.07-1.61,3.1
		c-0.28,0.23-0.57,0.46-0.85,0.68c0,0,0.01-0.02,0.01-0.02c-2.1,0.81-4.19,1.62-6.29,2.43C330.05,314.59,326.85,315.4,323.66,316.21
		z"/>
	<path class="st3" d="M348.48,193.27c-1.78-1.81-3.55-3.61-5.33-5.42c0.67-0.64,1.34-1.28,2.01-1.92c0.25-0.12,0.51-0.23,0.76-0.35
		c0.22-0.96,0.44-1.93,0.66-2.89c-0.06-0.12-0.18-0.24-0.17-0.35c0.05-0.25,0.16-0.48,0.25-0.72c0.25-0.89,0.5-1.78,0.75-2.68
		c-0.04-0.42-0.08-0.84-0.12-1.26c0.3-0.03,0.61-0.06,0.91-0.1c0.86,1.43,1.72,2.86,2.58,4.3c0.71,3.92,1.42,7.83,2.14,11.81
		C351.3,193.55,349.89,193.41,348.48,193.27z"/>
	<path class="st28" d="M347.3,177.7c0.04,0.42,0.08,0.84,0.12,1.26c-0.25,0.89-0.5,1.78-0.75,2.68c-0.09,0.24-0.2,0.47-0.25,0.72
		c-0.02,0.1,0.11,0.23,0.17,0.35c-0.22,0.96-0.44,1.93-0.66,2.89c-0.25,0.12-0.51,0.23-0.76,0.35c-4.06-3.33-8.12-6.67-12.18-10
		C337.56,178.09,342.31,178.81,347.3,177.7z"/>
	<path class="st24" d="M339.53,311.37c0.28-0.23,0.57-0.46,0.85-0.68C340.09,310.91,339.81,311.14,339.53,311.37z"/>
	<path class="st0" d="M323.66,316.21c3.2-0.81,6.39-1.62,9.59-2.43c-1.4,4.6-2.76,9.22-4.26,13.79c-0.19,0.58-1.15,0.91-1.76,1.35
		c-7.05-12-15.49-22.87-26.28-31.75c-8.06-6.64-16.73-12.35-26.89-15.37c-0.09-3.25-0.18-6.49-0.26-9.74
		c0.7-0.93,1.31-1.95,2.12-2.77c9.5-9.51,19.1-18.92,28.49-28.54c2.22-2.28,3.66-2,5.91-0.21c10.15,8.07,17.21,18.32,21.97,30.26
		c0.29,0.72,0.7,1.38,1.06,2.07c-4.37,8.54-8.79,17.06-13.08,25.65c-0.72,1.45-1.43,3.29-1.16,4.76c0.74,3.99,1.98,7.89,3.13,11.79
		C322.38,315.55,323.17,315.84,323.66,316.21z"/>
	<path class="st2" d="M274.06,281.8c10.17,3.02,18.83,8.73,26.89,15.37c10.78,8.88,19.23,19.75,26.28,31.75
		c-0.77,2.42-1.55,4.84-2.33,7.26c-6.68-10.94-13.58-21.81-23.57-30.03c-7.38-6.07-15.31-11.59-23.45-16.6
		C274.43,287.41,273.13,285.48,274.06,281.8z"/>
	<path class="st12" d="M183.37,436.95c1.61-5.22,3.22-10.44,4.83-15.66c22.11,0.06,44.23,0.11,66.34,0.17c-0.01,0.5-0.03,1-0.04,1.5
		c-0.06,0.62-0.12,1.23-0.17,1.85c-2.08,9.18-7.9,14.03-17.21,14.07c-15.13,0.07-30.27,0.11-45.4-0.07
		C188.93,438.77,186.15,437.6,183.37,436.95z"/>
	<path class="st18" d="M254.33,424.81c0.06-0.62,0.12-1.23,0.17-1.85C254.44,423.58,254.38,424.2,254.33,424.81z"/>
	<path class="st12" d="M245.66,495.03c-0.07,0.33-0.15,0.65-0.22,0.98C245.52,495.69,245.59,495.36,245.66,495.03z"/>
	<path class="st3" d="M348.3,177.48c0.31-0.2,0.63-0.4,0.94-0.61C348.93,177.08,348.62,177.28,348.3,177.48z"/>
	<path class="st33" d="M510.04,239.33c0.06,1.12,0.13,2.25,0.23,4.11c-1.91-0.64-3.25-0.96-4.48-1.52
		c-11.03-5.05-22.08-10.07-33.02-15.31c-1.75-0.84-3.51-2.46-4.4-4.17c-11.79-22.7-23.36-45.51-35.15-68.21
		c-1.65-3.18-1.63-5.53,0.31-8.67c4.07-6.61,7.47-13.62,11.27-20.4c0.61-1.1,1.84-1.85,2.79-2.76c0.12,0.76,0.04,1.62,0.38,2.26
		c2.98,5.7,6.13,11.3,9.02,17.04c2.28,4.53,4.27,9.22,6.38,13.83c-2.34,1.04-1.58,2.53-0.7,4.16c2.72,5.08,5.37,10.19,8.25,15.68
		c-3.94,2.01-7.63,3.89-11.59,5.92c1.14,2.18,2.08,3.98,3.12,5.98c4-1.92,7.65-3.67,11.75-5.64c2.69,5.07,5.58,9.78,7.72,14.81
		c1.37,3.23,2.99,3.83,5.88,2.47c0.07,0.38,0.04,0.82,0.22,1.15c6.54,12.54,13.07,25.07,19.69,37.56
		C508.13,238.38,509.25,238.77,510.04,239.33z"/>
	<path class="st34" d="M463.39,155.53c-2.12-4.62-4.1-9.3-6.38-13.83c-2.89-5.74-6.05-11.34-9.02-17.04
		c-0.34-0.65-0.26-1.5-0.38-2.26c4.38,0.94,8.75,1.88,13.13,2.82c0.2,0.17,0.39,0.49,0.59,0.5c7.56,0.2,10.36,5.39,13.18,11.43
		c11.66,24.94,23.72,49.69,35.64,74.51c-0.03,9.23-0.06,18.45-0.09,27.68c-0.79-0.56-1.91-0.95-2.32-1.71
		c-6.62-12.49-13.15-25.03-19.69-37.56c-0.17-0.33-0.15-0.76-0.22-1.15c1.98-1.26,2.26-2.51,0.95-4.75
		c-2.9-4.96-5.34-10.18-8.12-15.61c2.41-1.26,4.54-2.55,6.81-3.52c2.65-1.14,2.16-2.71,1.2-4.74c-1-2.1-2.17-2.74-4.32-1.56
		c-2.25,1.23-4.62,2.26-7.06,3.45c-3.45-6.4-6.68-12.36-9.97-18.46C465.72,154.43,464.56,154.98,463.39,155.53z"/>
	<path class="st9" d="M345.93,185.59c0.22-0.96,0.44-1.92,0.66-2.89C346.37,183.66,346.15,184.62,345.93,185.59z"/>
	<path class="st9" d="M346.67,181.64c0.25-0.89,0.5-1.78,0.75-2.68C347.17,179.85,346.92,180.74,346.67,181.64z"/>
	<path class="st14" d="M463.39,155.53c1.17-0.55,2.34-1.09,3.9-1.83c3.29,6.1,6.52,12.07,9.97,18.46c2.45-1.18,4.81-2.22,7.06-3.45
		c2.15-1.17,3.33-0.53,4.32,1.56c0.97,2.03,1.45,3.6-1.2,4.74c-2.26,0.97-4.39,2.26-6.81,3.52c2.79,5.42,5.22,10.65,8.12,15.61
		c1.31,2.24,1.04,3.49-0.95,4.75c-2.89,1.37-4.51,0.76-5.88-2.47c-2.14-5.03-5.03-9.75-7.72-14.81c-4.11,1.97-7.75,3.72-11.75,5.64
		c-1.04-2-1.98-3.8-3.12-5.98c3.96-2.02,7.65-3.9,11.59-5.92c-2.88-5.49-5.53-10.61-8.25-15.68
		C461.81,158.05,461.05,156.57,463.39,155.53z"/>
</g>
</svg>
