<svg xmlns="http://www.w3.org/2000/svg" viewBox="0 0 443.8 386.1">
  <title>sickman-01</title>
  <g id="Floor">
    <path d="M479.7,428.3c0,.1-99.4.3-221.9.3s-222-.2-222-.3,99.4-.3,222-.3S479.7,428.2,479.7,428.3Z" transform="translate(-35.8 -105.7)" fill="#b5d9e8"/>
  </g>
  <g id="Character">
    <g>
      <g>
        <path d="M417.3,416.3c-7.7-2.2-10.7,1.9-10.7,1.9s2.5-14.8-5.4-51.2-44.9-68.8-50.3-78.8-11.1-49.5-13.9-70.3A32.5,32.5,0,0,0,320.7,194a187.7,187.7,0,0,0-21.2-9.9c1.1-.7-7.9-14.6-15.9-14.6s-44.9-14-66.6,8c-3.1,3.1-7.6,17.5-7.6,17.5s-7.5,7.9-14,13.9-30.2,67.9-39.6,84.1-7.3,50.7-7.3,50.7c-22.1,5.4-39.9,15.7-46.5,41s15.1,43.5,15.1,43.5H425.5C424.9,422.1,421.2,417.4,417.3,416.3Z" transform="translate(-35.8 -105.7)" fill="#00ceba"/>
        <g opacity="0.5">
          <path d="M276.2,177.2c1.1-.4,15.5.3,19.5,20.2l-15.2.7Z" transform="translate(-35.8 -105.7)"/>
        </g>
        <g opacity="0.5">
          <path d="M390.8,380.6c-10.1-22-47.2-11.6-55.2-16.9-3.5-2.3-8.7-3.8-13.4-8.6l1,12.4,4.2,61,71.2-.3S401,402.6,390.8,380.6Z" transform="translate(-35.8 -105.7)"/>
        </g>
        <g opacity="0.5">
          <path d="M210.5,306.4c-1.2,1-27.5,11.4-27.5,12.3s-3.5,36.1-3.5,36.1l-44.9,6.3-18.9,10.2-7.5,14.6-4.6,15.4L114.7,421l6.1,7.3,109.7.3V346.3s-16.9-39.9-18.5-39.9" transform="translate(-35.8 -105.7)"/>
        </g>
        <g opacity="0.5">
          <path d="M210.2,204.6s4.7-10.4,5.4-11,1.1-3.6,1.7-6.9a19.4,19.4,0,0,1,2.9-7.1,18.1,18.1,0,0,1,5.2-4.3h0l8.8,20.2-6.9,9.9Z" transform="translate(-35.8 -105.7)"/>
        </g>
      </g>
      <g>
        <path d="M302.5,198.1l-21-3.2L220,200.1s-21.9,50.6-20.6,52,18.1,56.3,18.1,56.3l-1.2,45.8s-6.3,7.7-7.3,13.2c-3.4,17.3,111.6,21.5,114.5,11.2v-168Z" transform="translate(-35.8 -105.7)" fill="#455a64"/>
        <path d="M220,200.1s-19.3,2-24.6,15-21.6,87.2-21.6,87.2-2.5,16.1,4.3,24.7,23.4,5.8,34,1c17.6-8,31.6-61.4,31.6-61.4l7.6-18.5-28.6-9.4-13,28.1Z" transform="translate(-35.8 -105.7)" fill="#455a64"/>
        <path d="M289.8,196.4c1,.2,34.6,4.9,40.7,10.5s5.4,55.1,5.4,55.1-5.4,62.6-10.4,66.6-27.1,19.1-39.5-9.3c-3.6-8.2-11.5-18.4-16.5-28.8a388.6,388.6,0,0,1-16-40l28.2-13.2,21.9,37.1-4-53.2Z" transform="translate(-35.8 -105.7)" fill="#455a64"/>
        <g>
          <g>
            <g>
              <g>
                <path d="M217.1,156.1a30.1,30.1,0,0,1,22.1-34.2l1.5-.4c16.5-3.2,28.5,9.1,31.2,25.6l13.7,65.8a3.2,3.2,0,0,1-1.1,3l-32.1,26.3-7.5-34.4s-16.3,1.6-20.5-14C222.4,186.3,219.5,170.4,217.1,156.1Z" transform="translate(-35.8 -105.7)" fill="#ffbe9d"/>
                <path d="M244.7,207.8a38.7,38.7,0,0,0,19-11.2s-2,12.5-17.9,15Z" transform="translate(-35.8 -105.7)" fill="#eb996e"/>
              </g>
              <g>
                <g>
                  <path d="M232.1,165.3c-.3-.2-1.9,1.2-4.4,1.5s-4.4-.9-4.6-.5.2.6,1,1.1a6.9,6.9,0,0,0,3.8.8,6.7,6.7,0,0,0,3.4-1.5C232,166,232.2,165.5,232.1,165.3Z" transform="translate(-35.8 -105.7)" fill="#263238"/>
                  <path d="M255.6,162.6c-.3-.2-1.6,1.6-4,2.3s-4.5.1-4.6.4.3.6,1.2,1a7.3,7.3,0,0,0,3.9,0,6.9,6.9,0,0,0,3.1-2.2C255.7,163.3,255.8,162.7,255.6,162.6Z" transform="translate(-35.8 -105.7)" fill="#263238"/>
                  <path d="M242.5,179.8a20.6,20.6,0,0,0-4.1.3c-.6.1-1.2.1-1.4-.3a2.9,2.9,0,0,1-.1-1.9q.3-2.4.6-5.1c.9-7.3,1.3-13.2,1-13.3s-1.2,5.9-2,13.2q-.3,2.7-.6,5.1a4.4,4.4,0,0,0,.3,2.5,1.8,1.8,0,0,0,1.3.6h1.1A20.7,20.7,0,0,0,242.5,179.8Z" transform="translate(-35.8 -105.7)" fill="#263238"/>
                </g>
                <path d="M254.2,153.6c-.5-.5-2.6.9-5.3,1.9s-5.2,1.4-5.3,2.1.6.8,1.8.9a9.2,9.2,0,0,0,4.4-.6,8.5,8.5,0,0,0,3.6-2.5C254.2,154.6,254.4,153.8,254.2,153.6Z" transform="translate(-35.8 -105.7)" fill="#263238"/>
                <path d="M231.3,159.4c-.5-.6-2.6-.4-5.1-.7s-4.5-1-5-.5,0,.9.8,1.5a7.8,7.8,0,0,0,4,1.5,8.2,8.2,0,0,0,4.1-.5C231.1,160.2,231.5,159.7,231.3,159.4Z" transform="translate(-35.8 -105.7)" fill="#263238"/>
              </g>
            </g>
            <g>
              <path d="M272.5,159.3c.2-.2,9.9-5.9,12.3,4.8s-8.9,11-9,10.7S272.5,159.3,272.5,159.3Z" transform="translate(-35.8 -105.7)" fill="#ffbe9d"/>
              <path d="M277.3,170.2l.5.2a2.5,2.5,0,0,0,1.4-.3c1.1-.7,1.6-2.7,1.3-4.6a5.7,5.7,0,0,0-1.2-2.6c-.5-.7-1.1-1.2-1.7-1.1a1,1,0,0,0-1,.7.9.9,0,0,0,0,.6s-.3-.1-.3-.6a1.6,1.6,0,0,1,.3-.8l1-.5a2.8,2.8,0,0,1,2.3,1.3,6.1,6.1,0,0,1,1.3,2.8c.4,2.2-.2,4.5-1.7,5.3a2.9,2.9,0,0,1-1.8.1C277.3,170.5,277.2,170.2,277.3,170.2Z" transform="translate(-35.8 -105.7)" fill="#eb996e"/>
            </g>
          </g>
          <path d="M243.5,159c0,.1-.4.3-1.2.2a4.4,4.4,0,0,1-2.4-1.3,4.3,4.3,0,0,1-.9-2.6c0-.7.2-1.1.3-1.1s0,.4.1,1.1a3.7,3.7,0,0,0,.9,2.2,3.8,3.8,0,0,0,2.1,1.3Z" transform="translate(-35.8 -105.7)" fill="#eb996e"/>
          <path d="M276.6,142.1a1.4,1.4,0,0,0,.2.6c1.9,9.3-.6,21.3-.6,21.3-6.9,1.7-8.2-11.6-8.2-11.6-9.1-1.4-8.9-14.7-11.4-16.1s-8-4.9-23.6,8.1c-6,5-15.2,7-20.4,7h-.7a17,17,0,0,1-5-.9,9.9,9.9,0,0,1-4.7-3.3,5,5,0,0,1-.2-5.5,10.8,10.8,0,0,1-3.8-5.1,6.4,6.4,0,0,1,1-6c1.5-1.6,4.1-2.2,5.8-.9a5.3,5.3,0,0,1,3-7.2c2.7-.8,5.5.7,8.4.8s5.3-1.1,7.6-2.6,4.3-3.5,6.6-5a22.3,22.3,0,0,1,16.5-3c5.6,1.1,10.1,2.5,13.2,7.3,3.4-2,8.2-.2,11.3,2.1,0,0,4.4,2.5,4.7,11.1S276.6,142.1,276.6,142.1Z" transform="translate(-35.8 -105.7)" fill="#263238"/>
          <path d="M205.7,127c.1,0,.6.6,1.7,1.4a17.6,17.6,0,0,0,5.4,2.2,25.1,25.1,0,0,0,8.7.1,56.4,56.4,0,0,0,10.4-2.9,79.2,79.2,0,0,1,10.4-3,25.9,25.9,0,0,1,8.8,0,18.3,18.3,0,0,1,5.6,2.1l1.3,1,.4.4c-.1.1-.6-.5-1.8-1.2a18.9,18.9,0,0,0-5.5-2,25.7,25.7,0,0,0-8.7.2,83.8,83.8,0,0,0-10.4,3,56.4,56.4,0,0,1-10.4,2.9,25.4,25.4,0,0,1-8.8-.2,14.1,14.1,0,0,1-5.5-2.5l-1.2-1Z" transform="translate(-35.8 -105.7)" fill="#455a64"/>
          <path d="M257.7,131.6a9.3,9.3,0,0,0-1.9-1.1,13.1,13.1,0,0,0-5.7-1.2,23.6,23.6,0,0,0-8.6,1.5c-3.1,1.1-6.4,2.8-10,4.3l-5.3,1.8a24.9,24.9,0,0,1-5.3.7,23.9,23.9,0,0,1-8.8-1.1,25.2,25.2,0,0,1-5.5-2.3l-1.4-.9-.4-.3,1.9,1a25.8,25.8,0,0,0,5.5,2.2,28.5,28.5,0,0,0,8.7,1,30,30,0,0,0,5.1-.8,36.8,36.8,0,0,0,5.3-1.8c3.6-1.5,6.8-3.2,10-4.3a24.7,24.7,0,0,1,8.8-1.4,14.4,14.4,0,0,1,5.8,1.4l1.4.9C257.6,131.4,257.8,131.5,257.7,131.6Z" transform="translate(-35.8 -105.7)" fill="#455a64"/>
          <path d="M276.5,132.3a5.7,5.7,0,0,1-2,1.3,10.3,10.3,0,0,1-5.5.7,16.8,16.8,0,0,1-5.3-2,13.9,13.9,0,0,0-2.1-.7c0-.1.9-.1,2.3.4s3.1,1.5,5.2,1.8a10.8,10.8,0,0,0,5.3-.6C275.7,132.7,276.5,132.2,276.5,132.3Z" transform="translate(-35.8 -105.7)" fill="#455a64"/>
          <path d="M276.8,135.1a5.1,5.1,0,0,1-2.1,1.1,15.5,15.5,0,0,1-5.4.9,17.6,17.6,0,0,1-5.4-1.1,13.5,13.5,0,0,1-2-1.1,13,13,0,0,1,2.2.7,14.7,14.7,0,0,0,5.2.9,15.8,15.8,0,0,0,5.3-.7Z" transform="translate(-35.8 -105.7)" fill="#455a64"/>
          <path d="M235.4,156c.2,0,.5,1.3-.3,2.7a3.2,3.2,0,0,1-1.9,1.7c-.1-.1.8-.8,1.5-2A12.3,12.3,0,0,0,235.4,156Z" transform="translate(-35.8 -105.7)" fill="#eb996e"/>
        </g>
        <path d="M204.2,279l.3-.7,1-2.1,3.7-8.1c3.2-7.1,7.8-17.2,13.3-29.5h.3l28.7,9.8h.2v.3c-4.3,10.8-8.9,22.7-13.8,35-2.9,7.2-5.7,14.2-8.3,21.1a97.5,97.5,0,0,1-4.5,9.8,35.3,35.3,0,0,1-13.9,14.4,28.7,28.7,0,0,1-8.8,3,36.8,36.8,0,0,1-8.7.4,29,29,0,0,1-7.9-1.3,16.2,16.2,0,0,1-6.2-3.8,17,17,0,0,1-3.6-5.4,37.6,37.6,0,0,1-2.3-10.1,49.2,49.2,0,0,1-.1-6.5c.1-1.5.2-2.3.2-2.3v.6c0,.4-.1.9-.1,1.7a53.1,53.1,0,0,0,.2,6.5,33.4,33.4,0,0,0,2.4,10,17.4,17.4,0,0,0,3.5,5.3,15.9,15.9,0,0,0,6.2,3.6,27,27,0,0,0,7.7,1.3,41.7,41.7,0,0,0,8.6-.4,29,29,0,0,0,8.7-3,39.1,39.1,0,0,0,7.7-6,38.5,38.5,0,0,0,6-8.2,78.9,78.9,0,0,0,4.4-9.8c2.6-6.8,5.4-13.9,8.3-21.1l13.9-35v.3l-28.7-9.8h.3c-5.6,12.3-10.2,22.4-13.5,29.4l-3.8,8.1-1,2Z" transform="translate(-35.8 -105.7)" fill="#263238"/>
        <path d="M212.5,261.8c-.1,0,0-.5.1-1.2l.8-3.2c.6-2.6,1.5-6.2,2.5-10.3,1.8-7.2,3-12,3.7-14.5.3,0-1.2,6.6-3.2,14.7-1,4-2,7.6-2.7,10.2a17.4,17.4,0,0,1-.9,3.1Z" transform="translate(-35.8 -105.7)" fill="#263238"/>
        <g>
          <path d="M235.3,179.8s-3.1-3.2-5.8,0-2.4,10.9,2.7,18.7,3.1,37,3.1,37l30.4-11.3,2.1,9.3a32,32,0,0,0,10.2-9.3c3.9-6-2.1-13.5-3.3-18.3s-12.2-12.2-15.4-17.2S248.1,173.7,235.3,179.8Z" transform="translate(-35.8 -105.7)" fill="#fafafa"/>
          <g>
            <g>
              <path d="M255.5,248.8s-8.6-18.2-9.7-21.6-6.3-14.5-5.6-16.7,3.6,0,3.6,0-6-11.5-4.2-13.9a2,2,0,0,1,3.2-.2s-3.7-6.7-.5-8.6c1.6-1.1,4.4,2.9,4.4,2.9s2.6-2.9,4.9.8,12.3,19.8,12.3,19.8-.6-7.7.8-12.3c.9-3.1,5.5-4.9,5.7,4.6.2,6.1,7.4,35,7.4,35Z" transform="translate(-35.8 -105.7)" fill="#ffbe9d"/>
              <path d="M255.5,248.8l.4-.2,1.1-.5,4.4-2.1,16.3-7.6v.2c-1.8-7.4-4-16.2-6-26.2-.5-2.6-1-5.1-1.3-7.8s-.2-2.7-.4-4l-.2-1-.3-1a3.5,3.5,0,0,0-1.1-1.5,1.7,1.7,0,0,0-1.8-.1,3.5,3.5,0,0,0-1.3,1.4,6.6,6.6,0,0,0-.6,2l-.3,2.1a43,43,0,0,0-.2,8.8l-.2.3-.2-.2-6.3-10c-1.5-2.6-3.1-5.1-4.6-7.6a17.4,17.4,0,0,1-1.1-1.8,5.4,5.4,0,0,0-1.4-1.6,2.3,2.3,0,0,0-1.8-.5,3.3,3.3,0,0,0-1.7,1h-.4a7.5,7.5,0,0,0-2.6-2.7c-.5-.3-1.1-.5-1.5-.2a2.8,2.8,0,0,0-.9,1.4,6,6,0,0,0,.3,3.5,16.2,16.2,0,0,0,1.3,3.3c.1.2.1.3-.1.4h-.2a2,2,0,0,0-2-.5l-.9.7a2.9,2.9,0,0,0-.3,1,17.1,17.1,0,0,0,.9,4.5,61.4,61.4,0,0,0,3.6,8.2c0,.1,0,.3-.1.3a.2.2,0,0,1-.3,0,6,6,0,0,0-2.2-.9,1,1,0,0,0-.9.4,1.3,1.3,0,0,0-.1.6v.5a24.2,24.2,0,0,0,1.3,4.6c1,2.9,2.1,5.7,3.1,8.3,2,5.2,4,9.6,5.7,13.2l3.8,8.5c.4.9.7,1.7,1,2.2l.2.5v.2h-.1l-.3-.6c-.2-.5-.6-1.2-1-2.2s-2.3-4.8-4-8.4-3.7-8-5.7-13.2c-1-2.6-2.2-5.3-3.2-8.3a23.2,23.2,0,0,1-1.3-4.7v-.6a.9.9,0,0,1,.3-.7,1.4,1.4,0,0,1,1.2-.6,5.5,5.5,0,0,1,2.5,1l-.3.2a61.4,61.4,0,0,1-3.6-8.2,14.6,14.6,0,0,1-1-4.7,3.5,3.5,0,0,1,.5-1.3,2.7,2.7,0,0,1,1-.8,2,2,0,0,1,1.3-.1,3.5,3.5,0,0,1,1.2.7l-.4.3a14.3,14.3,0,0,1-1.4-3.4,7,7,0,0,1-.3-3.8,3,3,0,0,1,1.2-1.7,1.2,1.2,0,0,1,1-.2,1.8,1.8,0,0,1,1,.4,10.7,10.7,0,0,1,2.8,2.8h-.4a4.5,4.5,0,0,1,1.9-1.1,2.5,2.5,0,0,1,2.2.6,5.9,5.9,0,0,1,1.5,1.7l1.1,1.9c1.6,2.4,3.1,5,4.7,7.5l6.2,10.1h-.5a44,44,0,0,1,.2-8.9,15.2,15.2,0,0,1,.3-2.1,8.6,8.6,0,0,1,.7-2.1,3.5,3.5,0,0,1,1.5-1.7,2,2,0,0,1,2.2.2,3.6,3.6,0,0,1,1.3,1.7c.1.4.3.7.4,1.1l.2,1c.2,1.3.2,2.7.4,4a63.5,63.5,0,0,0,1.2,7.8c2,10,4.2,18.8,5.9,26.2,0,.1,0,.2-.1.2l-16.4,7.5-4.4,2-1.1.5Z" transform="translate(-35.8 -105.7)" fill="#eb996e"/>
            </g>
            <path d="M257.5,212.8c-.1.1-2.6-4.8-5.6-10.9s-5.4-11.1-5.2-11.2,2.6,4.9,5.6,11S257.7,212.8,257.5,212.8Z" transform="translate(-35.8 -105.7)" fill="#eb996e"/>
            <path d="M252.5,217.4c-.2.1-2.4-4.6-5.1-10.4s-4.7-10.6-4.6-10.6,2.4,4.6,5.1,10.4S252.6,217.4,252.5,217.4Z" transform="translate(-35.8 -105.7)" fill="#eb996e"/>
            <path d="M249.6,223.7a18,18,0,0,1-1.2-1.7c-.7-1.2-1.6-2.7-2.5-4.6s-1.4-3.5-1.8-4.7a7.9,7.9,0,0,1-.4-2.1c.1-.1,1.1,3,2.7,6.6S249.7,223.6,249.6,223.7Z" transform="translate(-35.8 -105.7)" fill="#eb996e"/>
          </g>
          <g>
            <path d="M234.7,196.3a2.8,2.8,0,0,0-3.1-1.3c-2.7.7-7.2,2.1-8.4,3.2s-5.7,6-5.7,8.8c0,.9-.9,2.5-1.2,4a10.3,10.3,0,0,0-.1,3,9,9,0,0,0,2.5,3.6c1.2,1.1,5.6,11.5,5.6,11.5l2.6,10.6,11.7,4.1,9.6,3.3-5-14.3-7.9,2.7.8-18.3,2.3-4.3-.6-2.8-1.9-.6a2.3,2.3,0,0,0,.3-3.2l-1.6-1.4c2-.7,2.9-2,1.8-4.3a3.4,3.4,0,0,0-2.9-.7A3.9,3.9,0,0,0,234.7,196.3Z" transform="translate(-35.8 -105.7)" fill="#ffbe9d"/>
            <path d="M234.2,230.3l-.4-.4-.8-1.1a11.7,11.7,0,0,1-1.2-2,7,7,0,0,1-.5-3,7.7,7.7,0,0,1,1.4-3.4c.8-1.1,1.8-2.1,2.7-3.2a9.5,9.5,0,0,0,2.4-3.8,4.1,4.1,0,0,0,.1-2.2,1.8,1.8,0,0,0-1.6-1.3,3.3,3.3,0,0,0-2,1.2l-1.8,1.6-3.4,3c-2.3,2-4.2,3.8-5.2,5.7a7.2,7.2,0,0,0-.6,5c.3,1.2.7,1.9.6,1.9l-.3-.5-.5-1.3a12.9,12.9,0,0,1-.3-2.3,8.4,8.4,0,0,1,.8-2.9c.9-2.1,3-4,5.1-5.9l3.5-3.1,1.8-1.6c.6-.5,1.2-1.3,2.3-1.3a2.3,2.3,0,0,1,2.1,1.6,3.5,3.5,0,0,1-.1,2.5,10.9,10.9,0,0,1-2.5,4,35,35,0,0,0-2.7,3.1,6.8,6.8,0,0,0-1.4,3.2,5.4,5.4,0,0,0,.4,2.9,18.6,18.6,0,0,0,1,2Z" transform="translate(-35.8 -105.7)" fill="#eb996e"/>
            <path d="M226,218.3a.3.3,0,0,0-.1-.2l-.3-.5-.3-.9a1.9,1.9,0,0,1,.3-1.4h0l8.1-4.5A8,8,0,0,0,236,209a2.4,2.4,0,0,0,.5-1.4,1.9,1.9,0,0,0-.6-1.3,3.4,3.4,0,0,0-3.1-.6,23.3,23.3,0,0,0-3.3,1.4l-9.1,4.1a5.9,5.9,0,0,0-1.7,1.3,3.4,3.4,0,0,0-.5,1.9,12.6,12.6,0,0,0,1,3.6,34,34,0,0,0,2.4,5c.6,1.1,1,1.7.9,1.8l-.3-.4a10.5,10.5,0,0,1-.8-1.3,35.9,35.9,0,0,1-2.5-4.9,10.6,10.6,0,0,1-1.1-3.8,3.8,3.8,0,0,1,.5-2.1,5.5,5.5,0,0,1,1.9-1.5l9.1-4.2a20.2,20.2,0,0,1,3.4-1.4,3.7,3.7,0,0,1,3.5.8,2.1,2.1,0,0,1,.8,1.6,3.2,3.2,0,0,1-.6,1.7,8.7,8.7,0,0,1-2.5,1.9l-8.2,4.3h.1a1.5,1.5,0,0,0-.3,1.1,5.1,5.1,0,0,1,.2.9A4.4,4.4,0,0,1,226,218.3Z" transform="translate(-35.8 -105.7)" fill="#eb996e"/>
            <path d="M217.5,209.7a4.9,4.9,0,0,1,.5-1.1,26.2,26.2,0,0,1,1.7-2.8,11.2,11.2,0,0,1,3.9-3,29.3,29.3,0,0,1,5.7-1.8l2.9-.9a9.2,9.2,0,0,1,2.9-.4,2.6,2.6,0,0,1,1.3.6,1.9,1.9,0,0,1,.7,1.2,3.1,3.1,0,0,1-.5,2.3,4.5,4.5,0,0,1-2.9,1.5h-1.2c0-.1.4-.1,1.1-.2a4.6,4.6,0,0,0,2.7-1.6,2.1,2.1,0,0,0,.4-1.9,1.8,1.8,0,0,0-1.7-1.4,9.3,9.3,0,0,0-2.7.4l-2.9.9a28.3,28.3,0,0,0-5.6,1.8A11.2,11.2,0,0,0,220,206a17.8,17.8,0,0,0-1.8,2.7Z" transform="translate(-35.8 -105.7)" fill="#eb996e"/>
          </g>
          <path d="M229.4,200.7l1.3-.3a5.8,5.8,0,0,0,3.1-1.6,2.6,2.6,0,0,0,.8-2.1,2.1,2.1,0,0,0-1.5-1.9,7.5,7.5,0,0,0-3,.8l-3.2,1a22.2,22.2,0,0,0-3.1,1.3,6.6,6.6,0,0,0-2.3,2.1,18.8,18.8,0,0,0-1.6,2.3,8.7,8.7,0,0,0-1.5,2,10.8,10.8,0,0,0-.8,3.4c-.1.9,0,1.3-.1,1.4a9.7,9.7,0,0,1,.6-5l.6-1a7.6,7.6,0,0,0,.8-1.1l1.7-2.3a8.4,8.4,0,0,1,2.3-2.3l3.2-1.3,3.3-1a5.8,5.8,0,0,1,3.2-.7,2.2,2.2,0,0,1,1.3.8,3,3,0,0,1,.5,1.4,2.8,2.8,0,0,1-1,2.4,5.9,5.9,0,0,1-3.3,1.6Z" transform="translate(-35.8 -105.7)" fill="#eb996e"/>
        </g>
        <path d="M293.6,258.5l-.3-.4a6.4,6.4,0,0,0-.6-1l-2.5-4.2c-2.1-3.7-5.1-9-8.9-15.5h.2l-28.1,13.2v-.3c3.2,9.2,7.1,19.2,11.7,29.4s10.3,21.1,15.4,30.2l7.4,12.8a36.5,36.5,0,0,0,8.2,9.8,21.1,21.1,0,0,0,4.9,2.6,17.3,17.3,0,0,0,4.9.8,17.9,17.9,0,0,0,7.8-1.4,12,12,0,0,0,4.1-2.8l1.2-1.3-.3.4-.8,1a13,13,0,0,1-4.2,2.9,17.8,17.8,0,0,1-7.8,1.5,18,18,0,0,1-5-.8,21.7,21.7,0,0,1-5-2.6c-3.2-2.4-5.9-6-8.3-9.9l-7.5-12.8c-5.1-9.1-10.5-19.2-15.5-30.2s-8.5-20.2-11.7-29.4v-.2h.2l28.2-13.1h.2l8.8,15.6,2.4,4.2a5.4,5.4,0,0,0,.6,1.1Z" transform="translate(-35.8 -105.7)" fill="#263238"/>
        <path d="M237.3,191.7c0,.1-.6.2-1.5,0a6.3,6.3,0,0,1-4.8-5.5,4.2,4.2,0,0,1,.1-1.6c.1,0,.1.6.3,1.5a6.2,6.2,0,0,0,1.5,3.2,6.6,6.6,0,0,0,3,2Z" transform="translate(-35.8 -105.7)" fill="#e0e0e0"/>
        <path d="M254.4,186.4l.6.8a23.3,23.3,0,0,1,1.5,2.3,48.5,48.5,0,0,1,3.6,8.3,41.1,41.1,0,0,1,2,8.8,16.8,16.8,0,0,1,.3,2.7v1c-.1,0-.2-1.4-.6-3.7a65,65,0,0,0-2.2-8.7,51.5,51.5,0,0,0-3.5-8.2C255.1,187.6,254.3,186.4,254.4,186.4Z" transform="translate(-35.8 -105.7)" fill="#e0e0e0"/>
        <path d="M239.3,195.1h-1.6a12.8,12.8,0,0,1-3.8-1.4,11.4,11.4,0,0,1-3-2.6,5.5,5.5,0,0,1-.8-1.4,18.7,18.7,0,0,0,4.1,3.6C236.8,194.8,239.4,194.9,239.3,195.1Z" transform="translate(-35.8 -105.7)" fill="#e0e0e0"/>
      </g>
      <g>
        <path d="M267.1,438.9l34.3,15.6s9.5,3.5,12,2.9,7.3-2.3,5.9-10.8-17.7-18.8-17.7-18.8Z" transform="translate(-35.8 -105.7)" fill="#00ceba"/>
        <g>
          <path d="M262.6,412.5l-49.1,16c-3,1-6.5,4.1-5.4,8l19.2,55.4s5.9,1.8,4.8-34.1l41.7-13.7Z" transform="translate(-35.8 -105.7)" fill="#00ceba"/>
          <path d="M232,474.9c0,.2-2.3-1.1-5.3-1.1s-5.2,1.4-5.2,1.2.4-.4,1.4-.8a9.7,9.7,0,0,1,3.8-.9,9.9,9.9,0,0,1,3.9.8C231.6,474.5,232.1,474.8,232,474.9Z" transform="translate(-35.8 -105.7)" fill="#fff"/>
          <path d="M217.1,427.9q0-.1.9.3a3.8,3.8,0,0,1,1.6,2,10.1,10.1,0,0,1,.8,3.7,19.5,19.5,0,0,1-.3,4.7,11.7,11.7,0,0,1-1.7,4.3,10.1,10.1,0,0,1-2.8,2.7,6.1,6.1,0,0,1-2.3,1h-1a10.3,10.3,0,0,0,3.1-1.4,9.6,9.6,0,0,0,2.6-2.7,12.5,12.5,0,0,0,1.6-4.1,24.8,24.8,0,0,0,.3-4.6,12.3,12.3,0,0,0-.6-3.6,3.8,3.8,0,0,0-1.5-1.9A2.1,2.1,0,0,0,217.1,427.9Z" transform="translate(-35.8 -105.7)" fill="#fff"/>
          <path d="M246.6,453.4l-.7-1.1-1.6-3.1c-1.4-2.7-3.3-6.4-5.2-10.5s-3.6-7.9-4.8-10.7-1-2.5-1.3-3.3-.5-1.2-.4-1.2l.6,1.2,1.5,3.2,4.9,10.6,5,10.5,1.5,3.2C246.5,453,246.7,453.4,246.6,453.4Z" transform="translate(-35.8 -105.7)" fill="#fff"/>
        </g>
        <g>
          <path d="M375.8,372.1c-7.1-6-8.5-7.1-22.3-8.2s-36.5,2-36.5,2-43,13.3-63.6,10.8-39.2-14-39.2-14-48.8-1.2-55.5.5-19.4,6.4-21.9,14.2-4.3,17,2.8,25.8,42.7,25.1,42.7,25.1l33.5-.5,22.3-7,14.7,31.1s103.5-32.8,108.1-33.2S386,406,386,399.7,382.8,378.1,375.8,372.1Z" transform="translate(-35.8 -105.7)" fill="#263238"/>
          <path d="M260.3,409.7c0,.1-.1,0-.2,0l-.8-.2-2.7-.9-10-3.5c-8.5-3-20-7.5-32.5-13.1s-23.5-11.3-31.4-15.5l-9.3-5.2-2.5-1.5-.6-.3-.2-.2h.2l.7.4,2.5,1.3c2.2,1.2,5.4,3,9.4,5,7.9,4.2,18.9,9.8,31.4,15.4s24,10.1,32.4,13.3l10,3.6,2.7,1,.7.2Z" transform="translate(-35.8 -105.7)" fill="#455a64"/>
          <path d="M338.3,375.3v.3a6.5,6.5,0,0,1-.2,1.1l-.9,3.9H337l-49.9,19.4-50,19.1V419c.9,1.5,1.6,2.7,2,3.5s.4.7.6.9v.3c0,.1-.1,0-.2-.2a2.4,2.4,0,0,0-.6-.9l-2.1-3.5h.1L287,399.6c22.2-8.6,41.4-15.9,50-19.1h-.1c.4-1.6.7-3,1-3.9l.3-1A.4.4,0,0,1,338.3,375.3Z" transform="translate(-35.8 -105.7)" fill="#455a64"/>
        </g>
      </g>
      <g>
        <path d="M404.4,409.1l-7.6-44.4-20.6-38.9-25.7-24.1-7.7-32.1-4-38.3-2.7-14.8a18.9,18.9,0,0,0-12.9-14.6l-28.1-8.6s.6,6.9-1.7,22.1-1.5,39.9-1.5,39.9,18.8,37.4,18.8,56.4c-.1,25.8,5.3,37.5,11.5,43.7s9.9,6.4,13.4,8.6c8.1,5.3,45.1-5.1,55.3,17a90,90,0,0,1,8,42.4H408Z" transform="translate(-35.8 -105.7)" fill="#00ceba"/>
        <path d="M220.7,176.3s-3.2,8.5-3,15.9c.2,3.4-1.8,6.3-3.8,8.9a108.4,108.4,0,0,0-10.4,14.5c-1.4,2.3-1.4,5.5-2.6,8.6-5,13.1,10.7,37.7,10.2,39.3s-30,52-24.4,73.5-2.8,27-2.8,27-17.3,2-29.7,1-43.8,2.8-46.8,25.1,13.1,38.1,13.1,38.1h-3.1s-18.8-18.5-16.4-33,10.2-29.8,10.2-29.8L138.8,354l17.7-2-2-29,4.7-26.8,21.7-53.7,10-22.2,4-10.6,16.5-13,5.2-15.6Z" transform="translate(-35.8 -105.7)" fill="#00ceba"/>
        <path d="M332.2,313.8a1.7,1.7,0,0,1-.1-.7c-.1-.6-.2-1.3-.4-2.2s-.6-4.7-1.2-8.1-1.3-7.4-2.5-11.8a62.7,62.7,0,0,0-5.2-13.7,44.8,44.8,0,0,0-9-11.6,34.5,34.5,0,0,0-10-6.6A29.6,29.6,0,0,0,296,257l-3-.2h.8a15.7,15.7,0,0,1,2.2,0,29.2,29.2,0,0,1,7.9,2,36.9,36.9,0,0,1,10.2,6.5,45.2,45.2,0,0,1,9.1,11.7,66.7,66.7,0,0,1,5.3,13.9c1.1,4.4,1.9,8.5,2.4,11.9s.8,6.1,1,8.1.2,1.6.3,2.2Z" transform="translate(-35.8 -105.7)" fill="#263238"/>
        <path d="M336.2,275.3l-.9-1.8a32,32,0,0,0-2.9-4.9A34.3,34.3,0,0,0,318,257a33.8,33.8,0,0,0-18.2-2.1,22.2,22.2,0,0,0-5.5,1.3l-2,.6.5-.2a4.8,4.8,0,0,1,1.4-.6,25.8,25.8,0,0,1,5.5-1.5,33,33,0,0,1,18.5,2.1,33.6,33.6,0,0,1,14.5,11.8,40.2,40.2,0,0,1,2.8,5,8.2,8.2,0,0,1,.5,1.4A1,1,0,0,1,336.2,275.3Z" transform="translate(-35.8 -105.7)" fill="#263238"/>
        <path d="M355.9,308.7v.5a8.2,8.2,0,0,1-.1,1.4c-.1,1.2-.2,3-.5,5.2a48.1,48.1,0,0,1-4.6,16.6,32.5,32.5,0,0,1-5.6,7.7,24.5,24.5,0,0,1-6.3,4.6,23.9,23.9,0,0,1-5,1.8l-1.4.2h-.5a25.1,25.1,0,0,0,6.7-2.3,26.4,26.4,0,0,0,6.1-4.6,30.9,30.9,0,0,0,5.5-7.6c3.1-6,4.1-12.1,4.8-16.5.3-2.1.5-3.9.6-5.1s.1-1.1.2-1.5S355.8,308.7,355.9,308.7Z" transform="translate(-35.8 -105.7)" fill="#263238"/>
        <path d="M400.7,380.1a20.2,20.2,0,0,1-.6-2.6,28,28,0,0,0-2.7-6.7,34.7,34.7,0,0,0-6.8-8.2,44,44,0,0,0-11.2-6.8,59.9,59.9,0,0,0-12.6-3.5,98.7,98.7,0,0,0-10.8-1.2l-7.2-.5h-2c-.5,0-.7,0-.7-.1h2.7l7.3.3c3,.2,6.7.5,10.7,1.1a59.9,59.9,0,0,1,12.8,3.5,40.8,40.8,0,0,1,11.3,7,28.3,28.3,0,0,1,6.8,8.4,22.8,22.8,0,0,1,2.6,6.8,8.8,8.8,0,0,1,.3,2A2.8,2.8,0,0,1,400.7,380.1Z" transform="translate(-35.8 -105.7)" fill="#263238"/>
        <path d="M293.4,257.5c0-.1.2-.6.5-1.7s.8-2.6,1.3-4.5c1.2-3.7,2.7-9,4.2-14.8s2.7-11.1,3.5-15c.5-1.8.8-3.4,1-4.5a6.9,6.9,0,0,1,.5-1.7l-.3,1.7a45,45,0,0,1-.8,4.6c-.7,3.9-1.9,9.2-3.4,15s-3.1,11.1-4.3,14.8l-1.5,4.5A6.5,6.5,0,0,1,293.4,257.5Z" transform="translate(-35.8 -105.7)" fill="#263238"/>
        <path d="M175.9,344.9a.3.3,0,0,1-.1-.2,6.4,6.4,0,0,1-.2-.7c-.1-.5-.4-1.4-.6-2.5a63.9,63.9,0,0,1-1.4-9.4,67,67,0,0,1,4.9-30.8,69.8,69.8,0,0,1,8.5-15,75.6,75.6,0,0,1,9.6-10.3,64.3,64.3,0,0,1,7.6-5.8l2.2-1.3.6-.3h0l-.5.4-2.2,1.4a84.4,84.4,0,0,0-7.4,5.9,69.6,69.6,0,0,0-9.5,10.3,70.6,70.6,0,0,0-8.4,14.9,68.3,68.3,0,0,0-5,30.6,56,56,0,0,0,1.2,9.4c.2,1.1.4,1.9.5,2.5a2,2,0,0,1,.1.7Z" transform="translate(-35.8 -105.7)" fill="#263238"/>
        <path d="M207.7,266.3l-.9.2-2.4.5a77.5,77.5,0,0,0-8.8,2.4,63.8,63.8,0,0,0-12.2,5.6,54.5,54.5,0,0,0-12.9,10.2,50.9,50.9,0,0,0-8.9,13.7,44.2,44.2,0,0,0-3.4,22.1c.1,1,.3,1.8.4,2.4a6.2,6.2,0,0,1,.1.9,6.6,6.6,0,0,1-.2-.9c-.1-.5-.3-1.3-.5-2.4a42.6,42.6,0,0,1-.2-9.1,45.4,45.4,0,0,1,3.4-13.1,48.9,48.9,0,0,1,9-14,54.5,54.5,0,0,1,12.9-10.2,65,65,0,0,1,12.4-5.6,86.2,86.2,0,0,1,8.9-2.2l2.4-.4C207.4,266.3,207.7,266.2,207.7,266.3Z" transform="translate(-35.8 -105.7)" fill="#263238"/>
        <path d="M180.3,273.3c-.1.1-.8-.3-1.7-1.3a12.3,12.3,0,0,1-2.7-4.4,13.4,13.4,0,0,1-.8-5.2,6.2,6.2,0,0,1,.5-2.1c.1,0-.1.8-.1,2.1a14.7,14.7,0,0,0,.9,5,11.6,11.6,0,0,0,2.5,4.3Z" transform="translate(-35.8 -105.7)" fill="#263238"/>
        <path d="M117.4,360.3c-.1,0,.1-.2.4-.4l1.2-1.3a3.8,3.8,0,0,1,.9-.9l1.1-1c.8-.7,1.7-1.5,2.8-2.3l1.7-1.3,1.9-1.2c1.3-.9,2.8-1.7,4.4-2.6a58.3,58.3,0,0,1,10.7-4.4,64,64,0,0,1,11.4-2.3l5.1-.3h4.4l3.6.4,1.5.2,1.2.2,1.7.4h.6c0,.1-.2,0-.6,0l-1.7-.3-1.2-.2H167c-1.1-.1-2.3-.3-3.6-.3H159a47.5,47.5,0,0,0-5.1.4,71.2,71.2,0,0,0-11.2,2.2,72,72,0,0,0-10.7,4.4l-4.4,2.5-1.9,1.3-1.7,1.2c-1.1.8-2,1.6-2.8,2.3l-1.2.9-.9.9-1.3,1.1Z" transform="translate(-35.8 -105.7)" fill="#263238"/>
        <path d="M194.4,237.3c-.1,0-.1-.2-.2-.6s-.1-1-.2-1.8a24.7,24.7,0,0,1,.2-6.5c.7-5.5,3.3-12.9,7.7-20.1,2.2-3.6,4.4-7,6-10.2s2.8-6.4,3.8-8.9,1.8-4.7,2.4-6.1l.7-1.7.3-.5-.2.6a13.8,13.8,0,0,0-.6,1.6c-.5,1.6-1.3,3.7-2.2,6.2s-2.2,5.7-3.8,9-3.7,6.7-5.9,10.3a53.9,53.9,0,0,0-7.9,19.8,31.5,31.5,0,0,0-.3,6.5C194.3,236.5,194.4,237.3,194.4,237.3Z" transform="translate(-35.8 -105.7)" fill="#263238"/>
        <path d="M284.6,169.7h.5l1.2.3a18.7,18.7,0,0,1,4.1,2c3.2,2.1,6.9,6.2,9.6,11.5a44,44,0,0,1,4.4,14.3q.5,2.8.6,4.5c0,1,.1,1.6,0,1.6s-.1-.5-.2-1.6-.4-2.6-.7-4.5a50.8,50.8,0,0,0-4.6-14.1,31.7,31.7,0,0,0-9.3-11.4A18.1,18.1,0,0,0,284.6,169.7Z" transform="translate(-35.8 -105.7)" fill="#263238"/>
        <path d="M292.2,226.9v-2.3c.1-1.4.2-3.6.5-6.2s.6-5.7,1-9.1c.3-1.8.5-3.6.8-5.4a27.9,27.9,0,0,0,.3-5.8,22.8,22.8,0,0,0-3.2-10.6,22.5,22.5,0,0,0-6-6.8,16.1,16.1,0,0,0-5.5-2.7,8.9,8.9,0,0,0-2.2-.4h.6a5.9,5.9,0,0,1,1.7.2,14.2,14.2,0,0,1,5.6,2.6,22.2,22.2,0,0,1,6.2,6.9,23.3,23.3,0,0,1,3.3,10.8,22.1,22.1,0,0,1-.3,5.8c-.3,1.9-.5,3.7-.8,5.4-.5,3.5-.8,6.6-1.1,9.2s-.5,4.7-.7,6.1-.1,1.3-.1,1.7A1.5,1.5,0,0,1,292.2,226.9Z" transform="translate(-35.8 -105.7)" fill="#263238"/>
        <path d="M212.8,264.8a.3.3,0,0,0-.1-.2l-.4-.6-1.4-2.4c-1.2-2-2.9-5-4.8-8.8a65.3,65.3,0,0,1-5.2-14.1,36.3,36.3,0,0,1,.3-18.2A22.3,22.3,0,0,1,203,216a26.5,26.5,0,0,1,2.4-4c1.7-2.5,3.6-4.8,5.4-7a42.1,42.1,0,0,0,4.4-6.6,23,23,0,0,0,2.4-6.4,38.9,38.9,0,0,0,.3-5.7A15.8,15.8,0,0,1,219,182a6.5,6.5,0,0,1,1.4-2.3c.5-.5.8-.5.8-.5a1.8,1.8,0,0,0-.7.6,6.6,6.6,0,0,0-1.3,2.3,14.4,14.4,0,0,0-1,4.2c-.1,1.7.1,3.6-.2,5.7a22,22,0,0,1-2.4,6.6,45.4,45.4,0,0,1-4.4,6.7c-1.8,2.2-3.7,4.5-5.4,7a29.8,29.8,0,0,0-4.1,8.4,36.3,36.3,0,0,0-.3,17.9,64.7,64.7,0,0,0,5,14c1.9,3.8,3.5,6.8,4.7,8.9l1.3,2.4.3.6A.8.8,0,0,1,212.8,264.8Z" transform="translate(-35.8 -105.7)" fill="#263238"/>
        <g opacity="0.3">
          <path d="M204.4,269.6A52.3,52.3,0,0,0,180,288.2a64,64,0,0,0-11.4,28.5c-.3,1.8-.1,4.1,1.6,4.5a2.5,2.5,0,0,0,2.8-1.3,8.4,8.4,0,0,0,.8-3.2,67.2,67.2,0,0,1,31-46.7" transform="translate(-35.8 -105.7)"/>
        </g>
        <path d="M296,178.1a9.8,9.8,0,0,0-4.1,1.3,11.5,11.5,0,0,0-3.1,3,4.5,4.5,0,0,1,.5-1.2,7.1,7.1,0,0,1,2.3-2.3,8.8,8.8,0,0,1,3-1C295.5,177.9,296,178,296,178.1Z" transform="translate(-35.8 -105.7)" fill="#fafafa"/>
        <path d="M301.8,224.3a33,33,0,0,0-4.3-2.6,22.2,22.2,0,0,0-4.8-1.3c0-.2,2.4-.3,5,.8A8.4,8.4,0,0,1,301.8,224.3Z" transform="translate(-35.8 -105.7)" fill="#fafafa"/>
        <path d="M336.6,218.9l-.7-1.2a9.1,9.1,0,0,0-2.4-2.6,13.5,13.5,0,0,0-5-2.2,57.6,57.6,0,0,0-6.6-1c-4.8-.4-9.1-.9-12.2-1.3l-3.7-.4-1.4-.3H306l3.7.3,12.2,1.1a59.5,59.5,0,0,1,6.7,1,13.4,13.4,0,0,1,5.1,2.4,9.4,9.4,0,0,1,2.4,2.8,2.6,2.6,0,0,1,.4,1Z" transform="translate(-35.8 -105.7)" fill="#fafafa"/>
        <path d="M342.2,268.2l-.8-2a32.2,32.2,0,0,0-2.9-5,30.7,30.7,0,0,0-5.9-6.2,35.1,35.1,0,0,0-9.2-5,46.6,46.6,0,0,0-18.9-2.4l-5.7.7-1.6.2h-.6l.6-.2,1.5-.3a47.8,47.8,0,0,1,5.8-.8,43.8,43.8,0,0,1,19.1,2.2,31.5,31.5,0,0,1,9.2,5.2,27,27,0,0,1,6,6.3,24.6,24.6,0,0,1,2.8,5.1c.2.7.4,1.2.5,1.5A2.8,2.8,0,0,1,342.2,268.2Z" transform="translate(-35.8 -105.7)" fill="#fafafa"/>
        <path d="M336.5,346a1.8,1.8,0,0,0-.1-.5V344c0-.7-.1-1.5-.1-2.4s-.1-1.9-.2-3.1c-.4-4.6-1.2-10.9-2.3-17.9s-2.4-13.2-3.2-17.7c-.4-2.3-.8-4.2-1-5.4a10.4,10.4,0,0,1-.2-1.5,1.8,1.8,0,0,1-.1-.5c.1,0,.1.1.2.5s.2.8.3,1.4.7,3.2,1.1,5.4c1,4.5,2.2,10.8,3.4,17.7s1.9,13.4,2.2,18c0,1.1.1,2.2.1,3.1V344a6.6,6.6,0,0,1-.1,1.5Z" transform="translate(-35.8 -105.7)" fill="#fafafa"/>
        <g opacity="0.3">
          <path d="M332,309.4c.1,2.7.9,5.3,1.3,7.9s2,5.6,4.7,5.9,4.3-1.5,5.1-3.7a12.7,12.7,0,0,0,0-6.7c-1.8-9.6-6.4-18.4-11.1-27s-8.5-15.1-14.9-20.9-15-9.7-23.5-8.2c0,0,12.6.4,20.6,8.2S331.9,304.9,332,309.4Z" transform="translate(-35.8 -105.7)"/>
        </g>
        <g opacity="0.3">
          <path d="M294.7,254.9c6.8-20.2,13-44,8.5-62.1,7.8,8.9,9.4,22.7,6.5,33.6s-10,20.8-16.1,30.3" transform="translate(-35.8 -105.7)"/>
        </g>
        <path d="M369.4,368c-.1,0-.1-1.2-.5-3a23.1,23.1,0,0,0-2.6-6.5,21.8,21.8,0,0,0-4.7-5.4,21.7,21.7,0,0,1-2.3-1.9l.7.4a6.9,6.9,0,0,1,1.8,1.2,19.7,19.7,0,0,1,7.5,12.2c.1.9.2,1.7.2,2.2S369.5,368,369.4,368Z" transform="translate(-35.8 -105.7)" fill="#fafafa"/>
        <path d="M404.6,390.7a4.9,4.9,0,0,1-.2,1.8,10,10,0,0,1-2,4,10.5,10.5,0,0,1-3.5,2.8l-1.8.5a16.3,16.3,0,0,1,1.6-.9,10.9,10.9,0,0,0,3.3-2.7,14.7,14.7,0,0,0,2.1-3.8A9.5,9.5,0,0,1,404.6,390.7Z" transform="translate(-35.8 -105.7)" fill="#fafafa"/>
        <path d="M366.4,308.2c0-.1,0,.1.2.4s.3.8.5,1.5a29.3,29.3,0,0,1,1.1,5.4,32.7,32.7,0,0,1-2.9,17.8,33.2,33.2,0,0,1-12.1,13.5,28.3,28.3,0,0,1-4.9,2.5l-1.4.5-.5.2a11.6,11.6,0,0,1,1.8-.9,26.4,26.4,0,0,0,4.8-2.6,32.7,32.7,0,0,0,14.8-31,37.4,37.4,0,0,0-.9-5.4C366.5,308.9,366.3,308.2,366.4,308.2Z" transform="translate(-35.8 -105.7)" fill="#fafafa"/>
        <g opacity="0.3">
          <path d="M374.8,350.1a14.3,14.3,0,0,0-5.4-2.6,45.7,45.7,0,0,1-6.3-1.9,8,8,0,0,1-4.4-4.6c-.5-1.8,0-3.7.3-5.6a34.7,34.7,0,0,0-1.8-17.8c-.1-.4-.3-.8-.6-.9a1.1,1.1,0,0,0-1.4.4,3.8,3.8,0,0,0-.5,1.5c-.9,6.7-3,13.3-7.1,18.6s-9.7,9.6-16.4,9.5l-.4,1.1a21.4,21.4,0,0,0,11.1,2.9c3.8.2,7.7-.2,11.5-.2a58.1,58.1,0,0,1,23.6,5A6.3,6.3,0,0,0,374.8,350.1Z" transform="translate(-35.8 -105.7)"/>
        </g>
        <path d="M160.4,366.1c-.1,0-.2-1.6-.9-3.9a23.2,23.2,0,0,0-1.5-4.1,42.9,42.9,0,0,0-2.6-4.5,37,37,0,0,0-3.4-4.1,35.4,35.4,0,0,0-3.3-2.8c-2-1.4-3.4-2.1-3.4-2.2l1,.4,1.2.6,1.4.9a24.9,24.9,0,0,1,3.4,2.8,24.2,24.2,0,0,1,3.5,4.1,21.4,21.4,0,0,1,2.6,4.6,27.2,27.2,0,0,1,1.5,4.2l.3,1.6c.1.5.1.9.2,1.3S160.5,366.1,160.4,366.1Z" transform="translate(-35.8 -105.7)" fill="#fafafa"/>
        <path d="M186.5,325.9a4.3,4.3,0,0,1-2.1.3,14.4,14.4,0,0,1-5.1-.7,13.8,13.8,0,0,1-4.4-2.6,8.5,8.5,0,0,1-1.5-1.5c.1-.2,2.4,2.3,6.1,3.6S186.5,325.7,186.5,325.9Z" transform="translate(-35.8 -105.7)" fill="#fafafa"/>
        <path d="M177.8,301.9c-.1,0-.6-.8-1.6-2l-2-1.7-2.9-1.4a13.2,13.2,0,0,0-3.2-.7,12.2,12.2,0,0,0-2.7,0c-1.5.2-2.4.5-2.4.4l.6-.3,1.8-.5a11.7,11.7,0,0,1,2.7-.1,13,13,0,0,1,3.3.7,10.5,10.5,0,0,1,3,1.5,13.7,13.7,0,0,1,2.1,1.9,7.7,7.7,0,0,1,1,1.5Z" transform="translate(-35.8 -105.7)" fill="#fafafa"/>
        <path d="M157.9,316.9a18.2,18.2,0,0,0-5.4.1,21,21,0,0,0-5,2c0-.1.4-.5,1.3-1.1a11.2,11.2,0,0,1,3.6-1.4,11,11,0,0,1,4-.1C157.4,316.6,157.9,316.8,157.9,316.9Z" transform="translate(-35.8 -105.7)" fill="#fafafa"/>
        <path d="M178,276.8h-1.9a11.3,11.3,0,0,1-4.1-1.3,13.7,13.7,0,0,1-3.5-2.7c-.8-.9-1.1-1.5-1-1.5a18.6,18.6,0,0,0,4.7,3.7C175.2,276.6,178,276.6,178,276.8Z" transform="translate(-35.8 -105.7)" fill="#fafafa"/>
        <path d="M197.9,273.4a10.7,10.7,0,0,0-2-2c-1.2-1-2.5-1.3-2.4-1.5a3.9,3.9,0,0,1,2.7,1.1C197.6,272,198.1,273.3,197.9,273.4Z" transform="translate(-35.8 -105.7)" fill="#fafafa"/>
        <path d="M209.2,266.1h-.5l-1.3-.2a21.3,21.3,0,0,1-4.9-1.2,29,29,0,0,1-13.1-9.6,28.6,28.6,0,0,1-5.6-15.3,18.7,18.7,0,0,1,.1-4.9,11.5,11.5,0,0,0,.2-1.4v-.4c.1,0,0,.6-.1,1.8a39.1,39.1,0,0,0,0,4.9,30.6,30.6,0,0,0,5.7,15,30.1,30.1,0,0,0,12.9,9.6,29,29,0,0,0,4.7,1.3Z" transform="translate(-35.8 -105.7)" fill="#fafafa"/>
        <path d="M200.4,221.3a1.5,1.5,0,0,1-.8-.5,5.3,5.3,0,0,1-1.2-2,4.4,4.4,0,0,1,0-2.3c.1-.5.3-.8.4-.8a10.3,10.3,0,0,0,.1,3A11,11,0,0,0,200.4,221.3Z" transform="translate(-35.8 -105.7)" fill="#fafafa"/>
        <path d="M216.1,195.4c0,.1-.4.3-1.2.3a4.4,4.4,0,0,1-2.8-.9,5.1,5.1,0,0,1-1.7-2.4,4.5,4.5,0,0,1,0-1.3c.1,0,.1.5.4,1.1a5.1,5.1,0,0,0,1.6,2.2,6.6,6.6,0,0,0,2.6,1Z" transform="translate(-35.8 -105.7)" fill="#fafafa"/>
        <path d="M114.5,376.8l-1.5-.7a10.8,10.8,0,0,1-2.6-2.9,9,9,0,0,1-1-3.8c0-1,.2-1.6.3-1.6a10.8,10.8,0,0,1,.1,1.6,9.9,9.9,0,0,0,1.1,3.5,10.5,10.5,0,0,0,2.3,2.9A8,8,0,0,1,114.5,376.8Z" transform="translate(-35.8 -105.7)" fill="#fafafa"/>
        <path d="M106.6,403.3a6.8,6.8,0,0,1-3.5-.7,5.9,5.9,0,0,1-2.9-2.1c.1-.1,1.3.9,3.1,1.6S106.6,403.1,106.6,403.3Z" transform="translate(-35.8 -105.7)" fill="#fafafa"/>
      </g>
      <g opacity="0.3">
        <path d="M265,281.7" transform="translate(-35.8 -105.7)"/>
      </g>
      <path d="M261.1,105.7c.2.1-1.3,3.1-1.8,7.2s.2,7.4,0,7.4a11.6,11.6,0,0,1-.5-2.1,31,31,0,0,1,0-5.3,24.5,24.5,0,0,1,1.3-5.2A9.8,9.8,0,0,1,261.1,105.7Z" transform="translate(-35.8 -105.7)" fill="#263238"/>
      <path d="M269.1,111.5c.1.2-3,1.3-5.9,3.9a32.5,32.5,0,0,0-4.5,5.4c-.1-.1.2-.8.9-1.9a18,18,0,0,1,3.3-3.9,16.9,16.9,0,0,1,4.2-2.8Z" transform="translate(-35.8 -105.7)" fill="#263238"/>
      <path d="M222.5,109.3a3.7,3.7,0,0,0-4.7.3,3.6,3.6,0,0,0-1.6,3,5.5,5.5,0,0,0,1.5,3.9,5.6,5.6,0,0,0,2,1.4,6.6,6.6,0,0,0,2.5.6,11.6,11.6,0,0,0,5.4-.9,31,31,0,0,0,5.2-3.1,31.7,31.7,0,0,1,5.2-3.2,12.6,12.6,0,0,1,5.5-1.5,17.3,17.3,0,0,1,5.2.6,24.1,24.1,0,0,1,4.3,1.5,8.5,8.5,0,0,1,2.9,2.3,7,7,0,0,1,1.2,2.5,4.8,4.8,0,0,1-.1,1.8l-.2.6a5.2,5.2,0,0,0,.1-2.3,7,7,0,0,0-1.2-2.5,9.4,9.4,0,0,0-2.9-2.1,21.3,21.3,0,0,0-9.2-1.9,13.5,13.5,0,0,0-5.4,1.4c-1.7.9-3.4,2.1-5.1,3.2a26.1,26.1,0,0,1-5.3,3.1,11.5,11.5,0,0,1-5.7,1,7.7,7.7,0,0,1-2.6-.7,8,8,0,0,1-2.1-1.5,5.9,5.9,0,0,1-1.6-4.2,3.6,3.6,0,0,1,.6-2,4.9,4.9,0,0,1,1.2-1.3,5.1,5.1,0,0,1,2.7-.9,2.9,2.9,0,0,1,1.7.5l.4.2A.3.3,0,0,0,222.5,109.3Z" transform="translate(-35.8 -105.7)" fill="#263238"/>
      <path d="M217,153c.1-.1.7.1,1.8.1a12.7,12.7,0,0,0,4.7-.6,22.4,22.4,0,0,0,6.2-3.1,66.3,66.3,0,0,0,6.5-5.7,57.1,57.1,0,0,1,6.6-5.8,19.7,19.7,0,0,1,6.3-3.2,16.6,16.6,0,0,1,4.8-.7l1.3.2h.4a16.4,16.4,0,0,0-6.4.7,20.5,20.5,0,0,0-6.1,3.3,55.2,55.2,0,0,0-6.5,5.7,47.9,47.9,0,0,1-6.6,5.7,19.7,19.7,0,0,1-6.4,3.1,12.7,12.7,0,0,1-4.8.5l-1.3-.2Z" transform="translate(-35.8 -105.7)" fill="#263238"/>
      <path d="M277.5,125.7a12.8,12.8,0,0,0-1.5-2.5,10.8,10.8,0,0,0-5.8-4,10.5,10.5,0,0,0-7,.7,22.6,22.6,0,0,0-2.6,1.5,2.8,2.8,0,0,1,.6-.6,10.6,10.6,0,0,1,1.8-1.3,11.3,11.3,0,0,1,7.3-.8,10.9,10.9,0,0,1,6,4.2,7.3,7.3,0,0,1,1,2C277.5,125.4,277.6,125.7,277.5,125.7Z" transform="translate(-35.8 -105.7)" fill="#263238"/>
      <g>
        <path d="M339.2,221.9c-.1,0-.1-.5-.2-1.4s0-2.2-.1-3.7,0-3.4-.1-5.5a16.2,16.2,0,0,0-.2-3.1,4.5,4.5,0,0,0-1.6-2.8,7.2,7.2,0,0,1-1.5-1.1,3,3,0,0,1-.6-1.8,4.5,4.5,0,0,0,.1-1.6,1.3,1.3,0,0,0-.5-1.2,12.3,12.3,0,0,0-2.5-1.4,4.4,4.4,0,0,1-1.6-2.1,8.3,8.3,0,0,0-1.1-1.7,3.1,3.1,0,0,0-1.3-.8,1.4,1.4,0,0,0-1.3.1,1.4,1.4,0,0,1,1.4-.3,2.9,2.9,0,0,1,1.4.8,7.4,7.4,0,0,1,1.2,1.7,4.7,4.7,0,0,0,1.5,1.9,22.6,22.6,0,0,1,2.6,1.4,2,2,0,0,1,.7,1.6,8.5,8.5,0,0,1,0,1.6,1.6,1.6,0,0,0,.4,1.4l1.4,1.1a4.1,4.1,0,0,1,1.2,1.4,4.9,4.9,0,0,1,.6,1.7,17.7,17.7,0,0,1,.2,3.2v5.5c0,1.5,0,2.8-.1,3.7Z" transform="translate(-35.8 -105.7)" fill="#bdd9e5"/>
        <path d="M342.8,226.6a3.9,3.9,0,0,1-.4-1,7.5,7.5,0,0,1,0-3c.3-1.2.9-2.6,1.3-4.2s.7-3.4-.5-4.9a7.6,7.6,0,0,0-.8-1.1,4.8,4.8,0,0,1-.5-1.4,18.4,18.4,0,0,1,.2-2.6,6.1,6.1,0,0,0-1-4,5.5,5.5,0,0,0-2.1-2l-.9-.5c0-.1.4,0,1,.3a7.1,7.1,0,0,1,2.3,1.9,6.6,6.6,0,0,1,1.2,4.3,21.1,21.1,0,0,0-.2,2.5,4.9,4.9,0,0,0,1.3,2.3,5.4,5.4,0,0,1,.9,2.7,11,11,0,0,1-.4,2.7c-.5,1.6-1.1,2.9-1.4,4.1a7.7,7.7,0,0,0-.2,2.9C342.7,226.2,342.9,226.6,342.8,226.6Z" transform="translate(-35.8 -105.7)" fill="#bdd9e5"/>
        <path d="M163.7,250.8v-.4a5.7,5.7,0,0,1,.1-1.2,14.8,14.8,0,0,1,1.1-4.1c.6-1.6,1.5-3.5,2.5-5.7a10,10,0,0,1,2.2-3c.9-.9,2.1-1.6,2.5-2.9s.2-2.6.7-3.8a20.5,20.5,0,0,1,1.9-3.3l3.4-5.1,2.4-3.5.9-1.3c.1.1-.2.5-.7,1.4l-2.2,3.6-3.4,5.2a16.5,16.5,0,0,0-1.8,3.2c-.5,1.1-.3,2.4-.7,3.8s-1.8,2.2-2.7,3.1a10.3,10.3,0,0,0-2.1,2.9c-1,2-1.9,4-2.6,5.6a18.7,18.7,0,0,0-1.2,4Z" transform="translate(-35.8 -105.7)" fill="#bdd9e5"/>
        <path d="M141,331c0-.1.6.1,1.1-.6a1.6,1.6,0,0,0,.4-1.4,3.7,3.7,0,0,0-.7-1.8,19.1,19.1,0,0,1-1.4-2.1,8.2,8.2,0,0,1-.7-2.9,7.2,7.2,0,0,1,.4-3.2,9,9,0,0,1,1.7-3,5.5,5.5,0,0,0,.9-1.4,7.5,7.5,0,0,0,.4-1.6,18.1,18.1,0,0,0-.5-3.1,9.5,9.5,0,0,1-.1-2.9,13.5,13.5,0,0,1,.8-2.4,8.1,8.1,0,0,1,2.3-2.9l.9-.5.3-.2c0,.1-.4.3-1,.9a7.3,7.3,0,0,0-2.1,2.8,8,8,0,0,0-.6,5.2,14.3,14.3,0,0,1,.5,3.2,13.6,13.6,0,0,1-.4,1.7,13,13,0,0,1-1,1.5,8.3,8.3,0,0,0-1.6,2.9,6.3,6.3,0,0,0-.4,3,7.6,7.6,0,0,0,.6,2.7,19.3,19.3,0,0,0,1.3,2.1,4.4,4.4,0,0,1,.7,2,2.1,2.1,0,0,1-.5,1.5,1.2,1.2,0,0,1-.9.5Z" transform="translate(-35.8 -105.7)" fill="#bdd9e5"/>
        <path d="M376,302a6,6,0,0,0,0-1.5,7.1,7.1,0,0,0-1.8-3.6,5.9,5.9,0,0,0-2.3-1.4,9.4,9.4,0,0,1-1.5-.6,3.3,3.3,0,0,1-1.4-1.2c-.6-1.2-.3-2.5-.3-3.7a3.8,3.8,0,0,0-.3-1.8,3,3,0,0,0-1.3-1.2c-2.3-1-5.1,0-7.4-1a3.7,3.7,0,0,1-1.3-1.2,3.4,3.4,0,0,1-.7-1.5,14.5,14.5,0,0,1-.1-2.9,10.9,10.9,0,0,0-.4-2.2,3.1,3.1,0,0,0-1.2-1.3,2.5,2.5,0,0,0-1.4-.3,1.5,1.5,0,0,1,1.5.1,3.3,3.3,0,0,1,1.3,1.3,4.7,4.7,0,0,1,.5,2.4c.1.9,0,1.8.2,2.8a3,3,0,0,0,1.8,2.3,8.1,8.1,0,0,0,3.5.5,8.9,8.9,0,0,1,3.9.6,3.2,3.2,0,0,1,1.6,1.4,4.9,4.9,0,0,1,.3,2c0,1.3-.2,2.5.3,3.4s1.6,1.3,2.5,1.7a5.4,5.4,0,0,1,2.5,1.6,6.6,6.6,0,0,1,1.7,3.8,3.1,3.1,0,0,1-.1,1.1A.6.6,0,0,1,376,302Z" transform="translate(-35.8 -105.7)" fill="#bdd9e5"/>
      </g>
      <g>
        <path d="M290.8,327.3c-8-9.7-13-21.9-21.7-37.8,0,0-16.6,71.8,4.5,73.5,9.8.8,15.5-5.4,12.4-22.7C283.9,328.8,290.8,327.3,290.8,327.3Z" transform="translate(-35.8 -105.7)" fill="#00ceba"/>
        <path d="M278.4,306.5v.5c-.1.4-.1.9-.2,1.5s-.5,3.4-.8,5.7c-.7,4.8-1.5,11.4-2,18.7s-.8,14,.1,18.7a25.5,25.5,0,0,0,1.6,5.4l1,1.9c-.1,0-.2-.2-.4-.5l-.7-1.3a22.8,22.8,0,0,1-1.9-5.5c-1-4.7-.7-11.5-.2-18.8s1.4-13.9,2.1-18.7c.4-2.3.7-4.3,1-5.6s.2-1.1.3-1.5A2.8,2.8,0,0,0,278.4,306.5Z" transform="translate(-35.8 -105.7)" fill="#263238"/>
        <path d="M275.5,352.6a9.6,9.6,0,0,1-5.1,1.6,10.9,10.9,0,0,1-5.4-.6c0-.2,2.4.4,5.3.1A23.7,23.7,0,0,0,275.5,352.6Z" transform="translate(-35.8 -105.7)" fill="#fafafa"/>
        <path d="M286.3,330.2c-.1.1-2.4-.8-5.4-1.5s-5.5-.6-5.5-.8a16.4,16.4,0,0,1,5.6.3A15.6,15.6,0,0,1,286.3,330.2Z" transform="translate(-35.8 -105.7)" fill="#fafafa"/>
        <path d="M277.4,306.3a37.5,37.5,0,0,0-4.7-3.1,33.1,33.1,0,0,0-5.3-1.7c0-.2,2.6-.1,5.5,1.3A11.2,11.2,0,0,1,277.4,306.3Z" transform="translate(-35.8 -105.7)" fill="#fafafa"/>
        <g opacity="0.3">
          <path d="M278.3,307.1s-8.3,51.8,2,53.1c0,0,3.1,1,4.8-4.9s-.5-12.7-1-16.6a12.8,12.8,0,0,1,2.6-9.3c2-2.2,4.2-2.5,4.1-2.4S278.4,307.3,278.3,307.1Z" transform="translate(-35.8 -105.7)"/>
        </g>
      </g>
      <path d="M230.8,173.6c0,.7-1.8,1.4-4,1.2s-3.8-1.1-3.7-1.8,1.9-1,3.9-.8S230.8,172.9,230.8,173.6Z" transform="translate(-35.8 -105.7)" fill="#eb996e"/>
      <path d="M262.8,169.1c.4.6-2.5,2.7-6.5,4s-7.5,1.2-7.6.5,3-1.8,6.8-3S262.5,168.5,262.8,169.1Z" transform="translate(-35.8 -105.7)" fill="#eb996e"/>
    </g>
  </g>
</svg>
